G04*
G04 #@! TF.GenerationSoftware,Altium Limited,Altium Designer,25.2.1 (25)*
G04*
G04 Layer_Color=32896*
%FSLAX44Y44*%
%MOMM*%
G71*
G04*
G04 #@! TF.SameCoordinates,F4FED96F-6736-4451-9F0E-EDF3A1B2C77D*
G04*
G04*
G04 #@! TF.FilePolarity,Positive*
G04*
G01*
G75*
%ADD10C,0.2500*%
%ADD12C,0.2000*%
%ADD15C,0.2540*%
%ADD121R,1.5870X0.5080*%
D10*
X1366670Y1018700D02*
G03*
X1366670Y1018700I-1250J0D01*
G01*
X1351370Y870670D02*
G03*
X1351370Y870670I-1250J0D01*
G01*
X1239670Y969170D02*
G03*
X1239670Y969170I-1250J0D01*
G01*
X1255850Y1149520D02*
G03*
X1255850Y1149520I-1250J0D01*
G01*
X1281625Y1114425D02*
G03*
X1281625Y1114425I-1250J0D01*
G01*
X1445875Y1084795D02*
G03*
X1445875Y1084795I-1250J0D01*
G01*
D12*
X1345820Y1042850D02*
X1361820D01*
X1345820Y1027250D02*
Y1042850D01*
X1361820Y1027250D02*
Y1042850D01*
X1345820Y1027250D02*
X1361820D01*
X1758510Y1170070D02*
Y1258170D01*
X1830510D01*
Y1170070D02*
Y1258170D01*
X1758510Y1170070D02*
X1830510D01*
X1309110Y977060D02*
X1321110D01*
X1218509Y918581D02*
Y930539D01*
X1235131Y918581D02*
Y930539D01*
X1509109Y1094360D02*
X1518571D01*
X1509109Y1110360D02*
X1518571D01*
X1371949Y1194180D02*
X1381411D01*
X1371949Y1178180D02*
X1381411D01*
X1559910Y1085470D02*
X1569371D01*
X1559910Y1101470D02*
X1569371D01*
X1300600Y857510D02*
Y864510D01*
X1315600Y857510D02*
Y864510D01*
X1280290Y918210D02*
Y930910D01*
X1264790Y918210D02*
Y930910D01*
X1280290D01*
X1349620Y837920D02*
Y866420D01*
X1332620Y837920D02*
Y866420D01*
X1348620D02*
X1349620D01*
X1348620Y837920D02*
X1349620D01*
X1332620Y866420D02*
X1333620D01*
X1332620Y837920D02*
X1333620D01*
X1316100Y915459D02*
Y924920D01*
X1300100Y915459D02*
Y924920D01*
X1349120Y914750D02*
Y924211D01*
X1333120Y914750D02*
Y924211D01*
X1218820Y977720D02*
X1234820D01*
Y993320D01*
X1218820Y977720D02*
Y993320D01*
X1234820D01*
X1232571Y1089989D02*
X1244529D01*
X1232571Y1107111D02*
X1244529D01*
X1246050Y1129920D02*
Y1145920D01*
X1230450D02*
X1246050D01*
X1230450Y1129920D02*
X1246050D01*
X1230450D02*
Y1145920D01*
X1638410Y1169493D02*
Y1177467D01*
X1620410Y1169493D02*
Y1177467D01*
X1559910Y1133220D02*
X1569371D01*
X1559910Y1117220D02*
X1569371D01*
X1705500Y1169493D02*
Y1177467D01*
X1723500Y1169493D02*
Y1177467D01*
X1508400Y1154810D02*
X1517861D01*
X1508400Y1138810D02*
X1517861D01*
X1681610Y1164590D02*
Y1177290D01*
X1666110Y1164590D02*
Y1177290D01*
X1681610D01*
X1377009Y1029071D02*
Y1041029D01*
X1394131Y1029071D02*
Y1041029D01*
X1266519Y979541D02*
Y991499D01*
X1283641Y979541D02*
Y991499D01*
X1291875Y1106975D02*
X1350875D01*
Y1159825D02*
Y1159975D01*
Y1106975D02*
Y1107125D01*
X1291875Y1159975D02*
X1350875D01*
X1291875Y1159825D02*
Y1159975D01*
Y1106975D02*
Y1107125D01*
X1359993Y1089770D02*
X1367966D01*
X1359993Y1071770D02*
X1367966D01*
X1452075Y1096295D02*
Y1155295D01*
X1399075D02*
X1399225D01*
X1451925D02*
X1452075D01*
X1399075Y1096295D02*
Y1155295D01*
Y1096295D02*
X1399225D01*
X1451925D02*
X1452075D01*
X1305383Y1068180D02*
X1313356D01*
X1305383Y1050180D02*
X1313356D01*
D15*
X1373632Y947166D02*
Y962401D01*
X1366015D01*
X1363475Y959862D01*
Y954783D01*
X1366015Y952244D01*
X1373632D01*
X1368554D02*
X1363475Y947166D01*
X1348240D02*
X1358397D01*
X1348240Y957323D01*
Y959862D01*
X1350779Y962401D01*
X1355858D01*
X1358397Y959862D01*
X1333005Y962401D02*
X1338083Y959862D01*
X1343162Y954783D01*
Y949705D01*
X1340623Y947166D01*
X1335544D01*
X1333005Y949705D01*
Y952244D01*
X1335544Y954783D01*
X1343162D01*
X1341120Y887984D02*
Y903219D01*
X1333503D01*
X1330963Y900680D01*
Y895602D01*
X1333503Y893062D01*
X1341120D01*
X1336042D02*
X1330963Y887984D01*
X1315728D02*
X1325885D01*
X1315728Y898141D01*
Y900680D01*
X1318267Y903219D01*
X1323346D01*
X1325885Y900680D01*
X1300493Y903219D02*
X1310650D01*
Y895602D01*
X1305571Y898141D01*
X1303032D01*
X1300493Y895602D01*
Y890523D01*
X1303032Y887984D01*
X1308111D01*
X1310650Y890523D01*
X1340612Y947928D02*
Y963163D01*
X1332995D01*
X1330455Y960624D01*
Y955546D01*
X1332995Y953006D01*
X1340612D01*
X1335534D02*
X1330455Y947928D01*
X1315220D02*
X1325377D01*
X1315220Y958085D01*
Y960624D01*
X1317759Y963163D01*
X1322838D01*
X1325377Y960624D01*
X1302524Y947928D02*
Y963163D01*
X1310142Y955546D01*
X1299985D01*
X1399794Y1204468D02*
Y1219703D01*
X1392177D01*
X1389637Y1217164D01*
Y1212085D01*
X1392177Y1209546D01*
X1399794D01*
X1394716D02*
X1389637Y1204468D01*
X1374402D02*
X1384559D01*
X1374402Y1214625D01*
Y1217164D01*
X1376941Y1219703D01*
X1382020D01*
X1384559Y1217164D01*
X1369324D02*
X1366785Y1219703D01*
X1361706D01*
X1359167Y1217164D01*
Y1214625D01*
X1361706Y1212085D01*
X1364245D01*
X1361706D01*
X1359167Y1209546D01*
Y1207007D01*
X1361706Y1204468D01*
X1366785D01*
X1369324Y1207007D01*
X1587754Y1111758D02*
Y1126993D01*
X1580137D01*
X1577597Y1124454D01*
Y1119376D01*
X1580137Y1116836D01*
X1587754D01*
X1582676D02*
X1577597Y1111758D01*
X1562362D02*
X1572519D01*
X1562362Y1121915D01*
Y1124454D01*
X1564901Y1126993D01*
X1569980D01*
X1572519Y1124454D01*
X1547127Y1111758D02*
X1557284D01*
X1547127Y1121915D01*
Y1124454D01*
X1549666Y1126993D01*
X1554745D01*
X1557284Y1124454D01*
X1531874Y1120648D02*
Y1135883D01*
X1524256D01*
X1521717Y1133344D01*
Y1128266D01*
X1524256Y1125726D01*
X1531874D01*
X1526796D02*
X1521717Y1120648D01*
X1506482D02*
X1516639D01*
X1506482Y1130805D01*
Y1133344D01*
X1509021Y1135883D01*
X1514100D01*
X1516639Y1133344D01*
X1501404Y1120648D02*
X1496326D01*
X1498865D01*
Y1135883D01*
X1501404Y1133344D01*
X1258062Y955294D02*
Y970529D01*
X1250444D01*
X1247905Y967990D01*
Y962912D01*
X1250444Y960372D01*
X1258062D01*
X1252984D02*
X1247905Y955294D01*
X1232670D02*
X1242827D01*
X1232670Y965451D01*
Y967990D01*
X1235209Y970529D01*
X1240288D01*
X1242827Y967990D01*
X1227592D02*
X1225053Y970529D01*
X1219974D01*
X1217435Y967990D01*
Y957833D01*
X1219974Y955294D01*
X1225053D01*
X1227592Y957833D01*
Y967990D01*
X1585214Y1143508D02*
Y1158743D01*
X1577596D01*
X1575057Y1156204D01*
Y1151125D01*
X1577596Y1148586D01*
X1585214D01*
X1580136D02*
X1575057Y1143508D01*
X1569979D02*
X1564901D01*
X1567440D01*
Y1158743D01*
X1569979Y1156204D01*
X1557283Y1146047D02*
X1554744Y1143508D01*
X1549666D01*
X1547126Y1146047D01*
Y1156204D01*
X1549666Y1158743D01*
X1554744D01*
X1557283Y1156204D01*
Y1153665D01*
X1554744Y1151125D01*
X1547126D01*
X1533652Y1165098D02*
Y1180333D01*
X1526035D01*
X1523495Y1177794D01*
Y1172716D01*
X1526035Y1170176D01*
X1533652D01*
X1528574D02*
X1523495Y1165098D01*
X1518417D02*
X1513339D01*
X1515878D01*
Y1180333D01*
X1518417Y1177794D01*
X1505721D02*
X1503182Y1180333D01*
X1498103D01*
X1495564Y1177794D01*
Y1175255D01*
X1498103Y1172716D01*
X1495564Y1170176D01*
Y1167637D01*
X1498103Y1165098D01*
X1503182D01*
X1505721Y1167637D01*
Y1170176D01*
X1503182Y1172716D01*
X1505721Y1175255D01*
Y1177794D01*
X1503182Y1172716D02*
X1498103D01*
X1303528Y1016254D02*
Y1031489D01*
X1295910D01*
X1293371Y1028950D01*
Y1023872D01*
X1295910Y1021332D01*
X1303528D01*
X1298450D02*
X1293371Y1016254D01*
X1288293D02*
X1283215D01*
X1285754D01*
Y1031489D01*
X1288293Y1028950D01*
X1275597Y1031489D02*
X1265440D01*
Y1028950D01*
X1275597Y1018793D01*
Y1016254D01*
X1394968Y1065784D02*
Y1081019D01*
X1387350D01*
X1384811Y1078480D01*
Y1073401D01*
X1387350Y1070862D01*
X1394968D01*
X1389890D02*
X1384811Y1065784D01*
X1379733D02*
X1374655D01*
X1377194D01*
Y1081019D01*
X1379733Y1078480D01*
X1356880Y1081019D02*
X1361959Y1078480D01*
X1367037Y1073401D01*
Y1068323D01*
X1364498Y1065784D01*
X1359420D01*
X1356880Y1068323D01*
Y1070862D01*
X1359420Y1073401D01*
X1367037D01*
X1256030Y1118108D02*
Y1133343D01*
X1248412D01*
X1245873Y1130804D01*
Y1125725D01*
X1248412Y1123186D01*
X1256030D01*
X1250952D02*
X1245873Y1118108D01*
X1240795D02*
X1235717D01*
X1238256D01*
Y1133343D01*
X1240795Y1130804D01*
X1217942Y1133343D02*
X1228099D01*
Y1125725D01*
X1223021Y1128265D01*
X1220481D01*
X1217942Y1125725D01*
Y1120647D01*
X1220481Y1118108D01*
X1225560D01*
X1228099Y1120647D01*
X1440437Y1172463D02*
Y1182620D01*
X1442977Y1185159D01*
X1448055D01*
X1450594Y1182620D01*
Y1172463D01*
X1448055Y1169924D01*
X1442977D01*
X1445516Y1175002D02*
X1440437Y1169924D01*
X1442977D02*
X1440437Y1172463D01*
X1425202Y1169924D02*
X1435359D01*
X1425202Y1180081D01*
Y1182620D01*
X1427741Y1185159D01*
X1432820D01*
X1435359Y1182620D01*
X1290577Y1171193D02*
Y1181350D01*
X1293116Y1183889D01*
X1298195D01*
X1300734Y1181350D01*
Y1171193D01*
X1298195Y1168654D01*
X1293116D01*
X1295656Y1173732D02*
X1290577Y1168654D01*
X1293116D02*
X1290577Y1171193D01*
X1285499Y1168654D02*
X1280421D01*
X1282960D01*
Y1183889D01*
X1285499Y1181350D01*
X1720854Y1249682D02*
Y1264918D01*
X1728472D01*
X1731011Y1262378D01*
Y1257300D01*
X1728472Y1254761D01*
X1720854D01*
X1736089Y1262378D02*
X1738628Y1264918D01*
X1743707D01*
X1746246Y1262378D01*
Y1259839D01*
X1743707Y1257300D01*
X1746246Y1254761D01*
Y1252222D01*
X1743707Y1249682D01*
X1738628D01*
X1736089Y1252222D01*
Y1254761D01*
X1738628Y1257300D01*
X1736089Y1259839D01*
Y1262378D01*
X1738628Y1257300D02*
X1743707D01*
X1358392Y901187D02*
Y885952D01*
X1350775D01*
X1348235Y888491D01*
Y898648D01*
X1350775Y901187D01*
X1358392D01*
X1333000D02*
X1338079Y898648D01*
X1343157Y893569D01*
Y888491D01*
X1340618Y885952D01*
X1335539D01*
X1333000Y888491D01*
Y891030D01*
X1335539Y893569D01*
X1343157D01*
X1291590Y969005D02*
Y953770D01*
X1283972D01*
X1281433Y956309D01*
Y966466D01*
X1283972Y969005D01*
X1291590D01*
X1266198D02*
X1276355D01*
Y961387D01*
X1271277Y963927D01*
X1268737D01*
X1266198Y961387D01*
Y956309D01*
X1268737Y953770D01*
X1273816D01*
X1276355Y956309D01*
X1692910Y1215385D02*
Y1200150D01*
X1685293D01*
X1682753Y1202689D01*
Y1212846D01*
X1685293Y1215385D01*
X1692910D01*
X1670057Y1200150D02*
Y1215385D01*
X1677675Y1207767D01*
X1667518D01*
X1244092Y1174999D02*
Y1159764D01*
X1236475D01*
X1233935Y1162303D01*
Y1172460D01*
X1236475Y1174999D01*
X1244092D01*
X1228857Y1172460D02*
X1226318Y1174999D01*
X1221239D01*
X1218700Y1172460D01*
Y1169921D01*
X1221239Y1167382D01*
X1223779D01*
X1221239D01*
X1218700Y1164842D01*
Y1162303D01*
X1221239Y1159764D01*
X1226318D01*
X1228857Y1162303D01*
X1245616Y1030473D02*
Y1015238D01*
X1237999D01*
X1235459Y1017777D01*
Y1027934D01*
X1237999Y1030473D01*
X1245616D01*
X1220224Y1015238D02*
X1230381D01*
X1220224Y1025395D01*
Y1027934D01*
X1222763Y1030473D01*
X1227842D01*
X1230381Y1027934D01*
X1365504Y1080003D02*
Y1064768D01*
X1357887D01*
X1355347Y1067307D01*
Y1077464D01*
X1357887Y1080003D01*
X1365504D01*
X1350269Y1064768D02*
X1345191D01*
X1347730D01*
Y1080003D01*
X1350269Y1077464D01*
X1734061Y1214878D02*
X1736600Y1217417D01*
X1741679D01*
X1744218Y1214878D01*
Y1204721D01*
X1741679Y1202182D01*
X1736600D01*
X1734061Y1204721D01*
X1728983Y1202182D02*
X1723905D01*
X1726444D01*
Y1217417D01*
X1728983Y1214878D01*
X1716287D02*
X1713748Y1217417D01*
X1708669D01*
X1706130Y1214878D01*
Y1204721D01*
X1708669Y1202182D01*
X1713748D01*
X1716287Y1204721D01*
Y1214878D01*
X1636271D02*
X1638810Y1217417D01*
X1643889D01*
X1646428Y1214878D01*
Y1204721D01*
X1643889Y1202182D01*
X1638810D01*
X1636271Y1204721D01*
X1631193D02*
X1628654Y1202182D01*
X1623575D01*
X1621036Y1204721D01*
Y1214878D01*
X1623575Y1217417D01*
X1628654D01*
X1631193Y1214878D01*
Y1212339D01*
X1628654Y1209799D01*
X1621036D01*
X1372365Y1112008D02*
X1374904Y1114547D01*
X1379983D01*
X1382522Y1112008D01*
Y1101851D01*
X1379983Y1099312D01*
X1374904D01*
X1372365Y1101851D01*
X1367287Y1112008D02*
X1364748Y1114547D01*
X1359669D01*
X1357130Y1112008D01*
Y1109469D01*
X1359669Y1106929D01*
X1357130Y1104390D01*
Y1101851D01*
X1359669Y1099312D01*
X1364748D01*
X1367287Y1101851D01*
Y1104390D01*
X1364748Y1106929D01*
X1367287Y1109469D01*
Y1112008D01*
X1364748Y1106929D02*
X1359669D01*
X1306071Y1090418D02*
X1308611Y1092957D01*
X1313689D01*
X1316228Y1090418D01*
Y1080261D01*
X1313689Y1077722D01*
X1308611D01*
X1306071Y1080261D01*
X1300993Y1092957D02*
X1290836D01*
Y1090418D01*
X1300993Y1080261D01*
Y1077722D01*
X1329182Y1024631D02*
Y1009396D01*
X1321564D01*
X1319025Y1011935D01*
Y1014474D01*
X1321564Y1017013D01*
X1329182D01*
X1321564D01*
X1319025Y1019553D01*
Y1022092D01*
X1321564Y1024631D01*
X1329182D01*
X1313947Y1009396D02*
X1308869D01*
X1311408D01*
Y1024631D01*
X1313947Y1022092D01*
D121*
X1272225Y928370D02*
D03*
X1673545Y1174750D02*
D03*
M02*
