G04*
G04 #@! TF.GenerationSoftware,Altium Limited,Altium Designer,25.2.1 (25)*
G04*
G04 Layer_Color=8388736*
%FSLAX44Y44*%
%MOMM*%
G71*
G04*
G04 #@! TF.SameCoordinates,F4FED96F-6736-4451-9F0E-EDF3A1B2C77D*
G04*
G04*
G04 #@! TF.FilePolarity,Negative*
G04*
G01*
G75*
%ADD18R,1.2000X0.3000*%
%ADD19R,0.3000X1.2000*%
%ADD21R,1.7062X1.2034*%
%ADD23R,1.0500X1.8000*%
%ADD24R,1.3552X0.2125*%
G04:AMPARAMS|DCode=25|XSize=1.3552mm|YSize=0.2125mm|CornerRadius=0.1062mm|HoleSize=0mm|Usage=FLASHONLY|Rotation=0.000|XOffset=0mm|YOffset=0mm|HoleType=Round|Shape=RoundedRectangle|*
%AMROUNDEDRECTD25*
21,1,1.3552,0.0000,0,0,0.0*
21,1,1.1428,0.2125,0,0,0.0*
1,1,0.2125,0.5714,0.0000*
1,1,0.2125,-0.5714,0.0000*
1,1,0.2125,-0.5714,0.0000*
1,1,0.2125,0.5714,0.0000*
%
%ADD25ROUNDEDRECTD25*%
G04:AMPARAMS|DCode=26|XSize=0.2125mm|YSize=1.3552mm|CornerRadius=0.1062mm|HoleSize=0mm|Usage=FLASHONLY|Rotation=0.000|XOffset=0mm|YOffset=0mm|HoleType=Round|Shape=RoundedRectangle|*
%AMROUNDEDRECTD26*
21,1,0.2125,1.1428,0,0,0.0*
21,1,0.0000,1.3552,0,0,0.0*
1,1,0.2125,0.0000,-0.5714*
1,1,0.2125,0.0000,-0.5714*
1,1,0.2125,0.0000,0.5714*
1,1,0.2125,0.0000,0.5714*
%
%ADD26ROUNDEDRECTD26*%
%ADD32R,1.6582X0.9561*%
%ADD33R,0.9500X1.7000*%
%ADD34R,1.7000X0.9500*%
%ADD35R,1.3561X1.8582*%
%ADD36R,1.8000X1.0500*%
%ADD41R,1.1057X1.6582*%
%ADD42R,0.9561X1.6582*%
%ADD45R,1.3500X1.1000*%
%ADD46R,1.8000X1.0000*%
%ADD47R,1.2532X3.4532*%
%ADD48R,1.9032X1.3032*%
%ADD49R,0.9032X1.4032*%
%ADD50R,1.7532X1.1032*%
%ADD51R,1.3032X1.9032*%
%ADD52R,1.1032X1.1532*%
%ADD53R,0.6000X0.6000*%
%ADD54R,1.9032X1.2532*%
%ADD55R,1.4032X0.9032*%
%ADD56R,1.0032X1.5032*%
%ADD57R,0.7532X1.5032*%
%ADD58R,1.2532X1.9032*%
%ADD59R,1.1032X1.7532*%
%ADD60R,2.2032X5.7032*%
%ADD61C,1.8032*%
G04:AMPARAMS|DCode=62|XSize=1.8032mm|YSize=1.8032mm|CornerRadius=0.5016mm|HoleSize=0mm|Usage=FLASHONLY|Rotation=270.000|XOffset=0mm|YOffset=0mm|HoleType=Round|Shape=RoundedRectangle|*
%AMROUNDEDRECTD62*
21,1,1.8032,0.8000,0,0,270.0*
21,1,0.8000,1.8032,0,0,270.0*
1,1,1.0032,-0.4000,-0.4000*
1,1,1.0032,-0.4000,0.4000*
1,1,1.0032,0.4000,0.4000*
1,1,1.0032,0.4000,-0.4000*
%
%ADD62ROUNDEDRECTD62*%
%ADD63C,2.3032*%
G04:AMPARAMS|DCode=64|XSize=2.3032mm|YSize=2.3032mm|CornerRadius=0.6266mm|HoleSize=0mm|Usage=FLASHONLY|Rotation=270.000|XOffset=0mm|YOffset=0mm|HoleType=Round|Shape=RoundedRectangle|*
%AMROUNDEDRECTD64*
21,1,2.3032,1.0500,0,0,270.0*
21,1,1.0500,2.3032,0,0,270.0*
1,1,1.2532,-0.5250,-0.5250*
1,1,1.2532,-0.5250,0.5250*
1,1,1.2532,0.5250,0.5250*
1,1,1.2532,0.5250,-0.5250*
%
%ADD64ROUNDEDRECTD64*%
G04:AMPARAMS|DCode=65|XSize=1.8032mm|YSize=1.8032mm|CornerRadius=0.5016mm|HoleSize=0mm|Usage=FLASHONLY|Rotation=180.000|XOffset=0mm|YOffset=0mm|HoleType=Round|Shape=RoundedRectangle|*
%AMROUNDEDRECTD65*
21,1,1.8032,0.8000,0,0,180.0*
21,1,0.8000,1.8032,0,0,180.0*
1,1,1.0032,-0.4000,0.4000*
1,1,1.0032,0.4000,0.4000*
1,1,1.0032,0.4000,-0.4000*
1,1,1.0032,-0.4000,-0.4000*
%
%ADD65ROUNDEDRECTD65*%
%ADD66R,1.1500X1.1500*%
%ADD67C,1.1500*%
%ADD68C,1.5700*%
%ADD69R,1.5700X1.5700*%
%ADD70R,1.7032X1.7032*%
%ADD71C,1.7032*%
%ADD72C,0.7112*%
%ADD73C,1.4732*%
G36*
X1562190Y1168270D02*
Y1135020D01*
X1541690D01*
Y1168270D01*
X1562190D01*
D02*
G37*
D18*
X778160Y912530D02*
D03*
Y907530D02*
D03*
Y902530D02*
D03*
Y897530D02*
D03*
Y892530D02*
D03*
Y887530D02*
D03*
Y882530D02*
D03*
Y877530D02*
D03*
Y872530D02*
D03*
Y867530D02*
D03*
Y862530D02*
D03*
Y857530D02*
D03*
Y852530D02*
D03*
Y847530D02*
D03*
Y842530D02*
D03*
Y837530D02*
D03*
X893160D02*
D03*
Y842530D02*
D03*
Y847530D02*
D03*
Y852530D02*
D03*
Y857530D02*
D03*
Y862530D02*
D03*
Y867530D02*
D03*
Y872530D02*
D03*
Y877530D02*
D03*
Y882530D02*
D03*
Y887530D02*
D03*
Y892530D02*
D03*
Y897530D02*
D03*
Y902530D02*
D03*
Y907530D02*
D03*
Y912530D02*
D03*
D19*
X798160Y817530D02*
D03*
X803160D02*
D03*
X808160D02*
D03*
X813160D02*
D03*
X818160D02*
D03*
X823160D02*
D03*
X828160D02*
D03*
X833160D02*
D03*
X838160D02*
D03*
X843160D02*
D03*
X848160D02*
D03*
X853160D02*
D03*
X858160D02*
D03*
X863160D02*
D03*
X868160D02*
D03*
X873160D02*
D03*
Y932530D02*
D03*
X868160D02*
D03*
X863160D02*
D03*
X858160D02*
D03*
X853160D02*
D03*
X848160D02*
D03*
X843160D02*
D03*
X838160D02*
D03*
X833160D02*
D03*
X828160D02*
D03*
X823160D02*
D03*
X818160D02*
D03*
X813160D02*
D03*
X808160D02*
D03*
X803160D02*
D03*
X798160D02*
D03*
D21*
X1374140Y1209040D02*
D03*
Y1235047D02*
D03*
D23*
X1363930Y1179830D02*
D03*
X1389430D02*
D03*
X852120Y750570D02*
D03*
X877620D02*
D03*
D24*
X1432445Y1060010D02*
D03*
D25*
Y1055010D02*
D03*
Y1050010D02*
D03*
Y1045010D02*
D03*
Y1040010D02*
D03*
Y1035010D02*
D03*
Y1030010D02*
D03*
Y1025010D02*
D03*
Y1020010D02*
D03*
Y1015010D02*
D03*
Y1010010D02*
D03*
Y1005010D02*
D03*
X1513955D02*
D03*
Y1010010D02*
D03*
Y1015010D02*
D03*
Y1020010D02*
D03*
Y1025010D02*
D03*
Y1030010D02*
D03*
Y1035010D02*
D03*
Y1040010D02*
D03*
Y1045010D02*
D03*
Y1050010D02*
D03*
Y1055010D02*
D03*
Y1060010D02*
D03*
D26*
X1445700Y991755D02*
D03*
X1450700D02*
D03*
X1455700D02*
D03*
X1460700D02*
D03*
X1465700D02*
D03*
X1470700D02*
D03*
X1475700D02*
D03*
X1480700D02*
D03*
X1485700D02*
D03*
X1490700D02*
D03*
X1495700D02*
D03*
X1500700D02*
D03*
Y1073265D02*
D03*
X1495700D02*
D03*
X1490700D02*
D03*
X1485700D02*
D03*
X1480700D02*
D03*
X1475700D02*
D03*
X1470700D02*
D03*
X1465700D02*
D03*
X1460700D02*
D03*
X1455700D02*
D03*
X1450700D02*
D03*
X1445700D02*
D03*
D32*
X1544320Y743511D02*
D03*
Y716989D02*
D03*
X939800Y934011D02*
D03*
Y907489D02*
D03*
X751840Y847799D02*
D03*
Y874321D02*
D03*
D33*
X1432530Y782320D02*
D03*
X1460530D02*
D03*
X1497360Y815340D02*
D03*
X1469360D02*
D03*
X1446560Y925830D02*
D03*
X1418560D02*
D03*
X1342420Y681990D02*
D03*
X1314420D02*
D03*
X882590Y975360D02*
D03*
X910590D02*
D03*
X711230Y759460D02*
D03*
X683230D02*
D03*
D34*
X1386840Y882650D02*
D03*
Y910650D02*
D03*
X1386804Y1028655D02*
D03*
Y1056655D02*
D03*
Y1125175D02*
D03*
Y1153175D02*
D03*
X1386840Y932180D02*
D03*
Y960180D02*
D03*
Y980410D02*
D03*
Y1008410D02*
D03*
X1386804Y1076915D02*
D03*
Y1104915D02*
D03*
X1386840Y734030D02*
D03*
Y762030D02*
D03*
Y833090D02*
D03*
Y861090D02*
D03*
Y783560D02*
D03*
Y811560D02*
D03*
Y684470D02*
D03*
Y712470D02*
D03*
X1443990Y1153160D02*
D03*
Y1181160D02*
D03*
D35*
X1337331Y944880D02*
D03*
X1306809D02*
D03*
X1337274Y1099805D02*
D03*
X1306752D02*
D03*
X1337295Y1061705D02*
D03*
X1306773D02*
D03*
X1337331Y984250D02*
D03*
X1306809D02*
D03*
X1337310Y1137920D02*
D03*
X1306788D02*
D03*
X1314471Y717550D02*
D03*
X1283949D02*
D03*
X1336040Y765810D02*
D03*
X1305518D02*
D03*
X1337352Y904240D02*
D03*
X1306830D02*
D03*
X1337295Y1023605D02*
D03*
X1306773D02*
D03*
X1337310Y820420D02*
D03*
X1306788D02*
D03*
X1337310Y862330D02*
D03*
X1306788D02*
D03*
D36*
X1432560Y754430D02*
D03*
Y728930D02*
D03*
X1460500Y754430D02*
D03*
Y728930D02*
D03*
X909320Y772060D02*
D03*
Y797560D02*
D03*
X855980Y704900D02*
D03*
Y679400D02*
D03*
D41*
X1643442Y1122680D02*
D03*
X1617918D02*
D03*
D42*
X1653540Y845820D02*
D03*
X1680062D02*
D03*
X1616710D02*
D03*
X1590188D02*
D03*
X921459Y871220D02*
D03*
X947981D02*
D03*
X969719Y840740D02*
D03*
X996241D02*
D03*
X737309Y966470D02*
D03*
X763831D02*
D03*
X685948Y683260D02*
D03*
X712470D02*
D03*
X827479Y976630D02*
D03*
X854001D02*
D03*
D45*
X941070Y764560D02*
D03*
Y797560D02*
D03*
X900430Y678190D02*
D03*
Y711190D02*
D03*
D46*
X650240Y816850D02*
D03*
Y846850D02*
D03*
Y887970D02*
D03*
Y917970D02*
D03*
D47*
X1476800Y692150D02*
D03*
X1418800D02*
D03*
D48*
X1325880Y1234740D02*
D03*
Y1208740D02*
D03*
X1617980Y1205530D02*
D03*
Y1179530D02*
D03*
D49*
X1693185Y1216555D02*
D03*
Y1179555D02*
D03*
D50*
X1653540Y1205780D02*
D03*
Y1179280D02*
D03*
X1018540Y890820D02*
D03*
Y864320D02*
D03*
X977900Y910040D02*
D03*
Y936540D02*
D03*
D51*
X1643680Y1092200D02*
D03*
X1617680D02*
D03*
X1643680Y1061720D02*
D03*
X1617680D02*
D03*
X1508460Y955040D02*
D03*
X1534460D02*
D03*
D52*
X1690620Y996950D02*
D03*
X1722120Y996950D02*
D03*
X1620010Y972820D02*
D03*
X1651510Y972820D02*
D03*
D53*
X1711100Y962660D02*
D03*
X1689100D02*
D03*
X1641680Y934720D02*
D03*
X1619680D02*
D03*
D54*
X1559560Y957530D02*
D03*
Y983030D02*
D03*
D55*
X1328420Y1179830D02*
D03*
X1291420D02*
D03*
D56*
X1551940Y1127770D02*
D03*
D57*
X1536940D02*
D03*
X1566940D02*
D03*
D58*
X1680160Y1045210D02*
D03*
X1705660D02*
D03*
X1622960Y1012190D02*
D03*
X1648460D02*
D03*
D59*
X994960Y872490D02*
D03*
X968460D02*
D03*
X841460Y793750D02*
D03*
X867960D02*
D03*
D60*
X703580Y823720D02*
D03*
Y918720D02*
D03*
D61*
X1802130Y791210D02*
D03*
Y765810D02*
D03*
Y740410D02*
D03*
X1596390Y657860D02*
D03*
X1621790D02*
D03*
X1647190D02*
D03*
X1803400Y1096010D02*
D03*
Y1121410D02*
D03*
Y1070610D02*
D03*
Y1045210D02*
D03*
X1802130Y939800D02*
D03*
Y914400D02*
D03*
Y889000D02*
D03*
X911860Y650240D02*
D03*
X937260D02*
D03*
X988060D02*
D03*
X962660D02*
D03*
X807720Y1023620D02*
D03*
X833120D02*
D03*
X883920D02*
D03*
X858520D02*
D03*
X1008380Y791210D02*
D03*
Y765810D02*
D03*
Y715010D02*
D03*
Y740410D02*
D03*
X789940Y648970D02*
D03*
X764540D02*
D03*
X713740D02*
D03*
X739140D02*
D03*
X653430Y683260D02*
D03*
Y708660D02*
D03*
Y759460D02*
D03*
Y734060D02*
D03*
X702310Y1023620D02*
D03*
X727710D02*
D03*
X676910D02*
D03*
X651510D02*
D03*
X1018540Y974090D02*
D03*
Y999490D02*
D03*
Y948690D02*
D03*
Y923290D02*
D03*
D62*
X1802130Y816610D02*
D03*
X1803400Y1146810D02*
D03*
X1802130Y965200D02*
D03*
X1008380Y689610D02*
D03*
X653430Y784860D02*
D03*
X1018540Y1024890D02*
D03*
D63*
X1786510Y1195070D02*
D03*
X1169670Y1136650D02*
D03*
Y1098550D02*
D03*
Y1060450D02*
D03*
Y984250D02*
D03*
Y946150D02*
D03*
Y831850D02*
D03*
Y793750D02*
D03*
Y869950D02*
D03*
Y908050D02*
D03*
Y1022350D02*
D03*
D64*
X1786510Y1233170D02*
D03*
X1169670Y755650D02*
D03*
D65*
X1672590Y657860D02*
D03*
X1013460Y650240D02*
D03*
X909320Y1023620D02*
D03*
X688340Y648970D02*
D03*
X753110Y1023620D02*
D03*
D66*
X1498600Y873760D02*
D03*
X1544320Y803910D02*
D03*
D67*
X1498600Y899160D02*
D03*
X1544320Y829310D02*
D03*
D68*
X1536700Y659130D02*
D03*
D69*
X1511300D02*
D03*
D70*
X750570Y774700D02*
D03*
D71*
Y749300D02*
D03*
Y723900D02*
D03*
Y698500D02*
D03*
X826770Y774700D02*
D03*
Y749300D02*
D03*
Y723900D02*
D03*
Y698500D02*
D03*
D72*
X1767840Y730250D02*
D03*
X880110Y951230D02*
D03*
X1487170Y1051560D02*
D03*
X811530Y872490D02*
D03*
X842010Y838200D02*
D03*
X731520Y688340D02*
D03*
X685800Y708660D02*
D03*
X650240Y867410D02*
D03*
X892810Y934720D02*
D03*
X880110Y999490D02*
D03*
X844550Y875030D02*
D03*
X816995Y914785D02*
D03*
X805180Y953770D02*
D03*
X803910Y767080D02*
D03*
X716280Y976630D02*
D03*
X1479550Y1108710D02*
D03*
X1475740Y1037590D02*
D03*
X1468120Y1177290D02*
D03*
X1731010Y1130300D02*
D03*
X1456690Y1045210D02*
D03*
X1239520Y882650D02*
D03*
X1469390Y646430D02*
D03*
X1619250Y1247140D02*
D03*
X1349856Y1234740D02*
D03*
X1590040Y1221740D02*
D03*
X1635760Y845820D02*
D03*
X1664970Y1066070D02*
D03*
Y1109980D02*
D03*
X1732280Y1045210D02*
D03*
X1734820Y971550D02*
D03*
X1672590Y1012190D02*
D03*
X1663248Y950412D02*
D03*
X1537970Y920750D02*
D03*
X1544320Y773710D02*
D03*
X1508760Y852170D02*
D03*
X1471930Y1017270D02*
D03*
X1366520Y661670D02*
D03*
X1430020Y817880D02*
D03*
X1342390Y722630D02*
D03*
X811579Y891483D02*
D03*
X801966Y902604D02*
D03*
X873760Y913640D02*
D03*
X828040Y887730D02*
D03*
X848360Y893350D02*
D03*
X793750Y840740D02*
D03*
X800677Y856557D02*
D03*
X917649Y907489D02*
D03*
X858520Y956310D02*
D03*
X961390Y897869D02*
D03*
X910590Y955040D02*
D03*
X961390Y986790D02*
D03*
X951230Y839470D02*
D03*
X1014730Y843280D02*
D03*
X911860Y831850D02*
D03*
X913948Y846638D02*
D03*
X864870Y858520D02*
D03*
X875030Y869950D02*
D03*
X876300Y839470D02*
D03*
X859790Y838200D02*
D03*
X960120Y723900D02*
D03*
X868680Y883920D02*
D03*
X824718Y835172D02*
D03*
X842010Y956310D02*
D03*
X833120Y999490D02*
D03*
X858520Y998220D02*
D03*
X797560Y995680D02*
D03*
X727710D02*
D03*
X753110Y994410D02*
D03*
X702310Y995680D02*
D03*
X676910Y996950D02*
D03*
X651510D02*
D03*
X695960Y783590D02*
D03*
X733365Y758885D02*
D03*
X706120Y715010D02*
D03*
X929640Y730250D02*
D03*
X845820Y660400D02*
D03*
X850900Y772160D02*
D03*
X867410Y723900D02*
D03*
D73*
X1088390Y640080D02*
D03*
Y668020D02*
D03*
Y694690D02*
D03*
Y721360D02*
D03*
Y746760D02*
D03*
Y773430D02*
D03*
Y800100D02*
D03*
Y825500D02*
D03*
Y852170D02*
D03*
Y878840D02*
D03*
Y904240D02*
D03*
Y929640D02*
D03*
Y955040D02*
D03*
Y980440D02*
D03*
Y1005840D02*
D03*
Y1031240D02*
D03*
Y1056640D02*
D03*
Y1082040D02*
D03*
Y1107440D02*
D03*
Y1132840D02*
D03*
Y1158240D02*
D03*
Y1182370D02*
D03*
Y1207770D02*
D03*
Y1233170D02*
D03*
Y1259840D02*
D03*
X1266190Y1179830D02*
D03*
X1250950D02*
D03*
X1236980D02*
D03*
M02*
