M48
;Layer_Color=9474304
;FILE_FORMAT=4:4
METRIC,LZ
;TYPE=PLATED
T01F00S00C0.2845
T02F00S00C0.6500
T03F00S00C0.7112
T04F00S00C0.9000
T05F00S00C1.0200
T06F00S00C1.1000
T07F00S00C1.2700
T08F00S00C1.4000
%
T01
X0176784Y0073025
X0154432Y0077371
X0146939Y0064643
X0136652Y0066167
X0134239Y0072263
X0096012Y007239
X0092964Y0073025
X0086741Y007239
X008509Y0077216
X0080391Y0076708
X0084582Y006604
X0073152Y0068834
X0070612Y0071501
X006858Y0070866
X0069596Y0078359
X00733365Y00758885
X0065024Y0086741
X0065151Y0099695
X0067691
X0070231Y0099568
X0072771
X0075311Y0099441
X0071628Y0097663
X0079756Y0099568
X0083312Y0099949
X0085852Y0099822
X0088011Y0099949
Y0095123
X0085852Y0095631
X0084201
X0080518Y0095377
X00816995Y00914785
X00801966Y00902604
X00811579Y00891483
X0081153Y0087249
X00800677Y00856557
X0079375Y0084074
X00824718Y00835172
X0084201Y008382
X0085979
X008763Y0083947
X0086487Y0085852
X0087503Y0086995
X0086868Y0088392
X0084836Y0089335
X0084455Y0087503
X0082804Y0088773
X0087376Y0091364
X0089281Y0093472
X0091059Y0095504
X00917649Y00907489
X0096139Y00897869
X0095123Y0083947
X00913948Y00846638
X0091186Y0083185
X0101473Y0084328
X0096139Y0098679
X0123952Y0088265
X0143002Y0081788
X0150876Y0085217
X0153797Y0092075
X0147193Y0101727
X0147574Y0103759
X0148717Y0105156
X0145669Y0104521
X0147955Y0110871
X0146812Y0117729
X0166497Y0110998
Y0106607
X0167259Y0101219
X01663248Y00950412
X0173482Y0097155
X0173228Y0104521
X0173101Y011303
X0163576Y0084582
X0161925Y0124714
X0159004Y0122174
X01349856Y0123474
T02
X0154432Y0080391
Y0082931
X014986Y0087376
Y0089916
T03
X0123698Y0117983
X0125095
X0126619
T04
X0082677Y006985
Y007239
Y007493
Y007747
X0075057
Y007493
Y007239
Y006985
T05
X015113Y0065913
X015367
T06
X0159639Y0065786
X0162179
X0164719
X0167259
X0180213Y0074041
Y0076581
Y0079121
X0100838Y0079121
Y0076581
Y0074041
Y0071501
Y0068961
X0101346Y0065024
X0098806
X0096266
X0093726
X0091186
X0078994Y0064897
X0076454
X0073914
X0071374
X0068834
X0065343Y0068326
Y0070866
Y0073406
Y0075946
Y0078486
X0065151Y0102362
X0067691
X0070231
X0072771
X0075311
X0080772
X0083312
X0085852
X0088392
X0090932
X0101854Y0102489
Y0099949
Y0097409
Y0094869
Y0092329
X0180213Y009144
Y009398
Y009652
Y00889
Y0081661
X018034Y0104521
Y0107061
Y0109601
Y0112141
Y0114681
T07
X0108839Y0064008
Y0066802
Y0069469
Y0072136
Y0074676
Y0077343
Y008001
Y008255
Y0085217
Y0087884
Y0090424
Y0092964
Y0095504
Y0098044
Y0100584
Y0103124
Y0105664
Y0108204
Y0110744
Y0113284
Y0115824
Y0118237
Y0120777
Y0123317
Y0125984
T08
X0116967Y0075565
Y0079375
Y0083185
Y0086995
Y0090805
Y0094615
Y0098425
Y0102235
Y0106045
Y0109855
Y0113665
X0178651Y0119507
Y0123317
M30
