G04*
G04 #@! TF.GenerationSoftware,Altium Limited,Altium Designer,25.2.1 (25)*
G04*
G04 Layer_Physical_Order=1*
G04 Layer_Color=255*
%FSLAX44Y44*%
%MOMM*%
G71*
G04*
G04 #@! TF.SameCoordinates,F4FED96F-6736-4451-9F0E-EDF3A1B2C77D*
G04*
G04*
G04 #@! TF.FilePolarity,Positive*
G04*
G01*
G75*
%ADD14C,0.1270*%
%ADD15C,0.2540*%
%ADD18R,1.2000X0.3000*%
%ADD19R,0.3000X1.2000*%
%ADD20R,1.0500X3.2500*%
%ADD21R,1.7062X1.2034*%
%ADD22R,1.7000X1.1000*%
%ADD23R,1.0500X1.8000*%
%ADD24R,1.3552X0.2125*%
G04:AMPARAMS|DCode=25|XSize=1.3552mm|YSize=0.2125mm|CornerRadius=0.1062mm|HoleSize=0mm|Usage=FLASHONLY|Rotation=0.000|XOffset=0mm|YOffset=0mm|HoleType=Round|Shape=RoundedRectangle|*
%AMROUNDEDRECTD25*
21,1,1.3552,0.0000,0,0,0.0*
21,1,1.1428,0.2125,0,0,0.0*
1,1,0.2125,0.5714,0.0000*
1,1,0.2125,-0.5714,0.0000*
1,1,0.2125,-0.5714,0.0000*
1,1,0.2125,0.5714,0.0000*
%
%ADD25ROUNDEDRECTD25*%
G04:AMPARAMS|DCode=26|XSize=0.2125mm|YSize=1.3552mm|CornerRadius=0.1062mm|HoleSize=0mm|Usage=FLASHONLY|Rotation=0.000|XOffset=0mm|YOffset=0mm|HoleType=Round|Shape=RoundedRectangle|*
%AMROUNDEDRECTD26*
21,1,0.2125,1.1428,0,0,0.0*
21,1,0.0000,1.3552,0,0,0.0*
1,1,0.2125,0.0000,-0.5714*
1,1,0.2125,0.0000,-0.5714*
1,1,0.2125,0.0000,0.5714*
1,1,0.2125,0.0000,0.5714*
%
%ADD26ROUNDEDRECTD26*%
%ADD27R,0.7000X1.2000*%
%ADD28R,1.5500X0.9000*%
%ADD29R,1.1000X1.7000*%
%ADD30R,0.9000X0.9500*%
%ADD31R,1.7000X1.0500*%
%ADD32R,1.6582X0.9561*%
%ADD33R,0.9500X1.7000*%
%ADD34R,1.7000X0.9500*%
%ADD35R,1.3561X1.8582*%
%ADD36R,1.8000X1.0500*%
%ADD37R,1.2000X0.7000*%
%ADD38R,0.8000X1.3000*%
%ADD39R,0.5500X1.3000*%
%ADD40R,1.0500X1.7000*%
%ADD41R,1.1057X1.6582*%
%ADD42R,0.9561X1.6582*%
%ADD43R,0.9000X1.5500*%
%ADD44R,2.0000X5.5000*%
%ADD45R,1.3500X1.1000*%
%ADD46R,1.8000X1.0000*%
%ADD53R,0.6000X0.6000*%
%ADD66R,1.1500X1.1500*%
%ADD67C,1.1500*%
%ADD68C,1.5700*%
%ADD69R,1.5700X1.5700*%
%ADD74C,1.0160*%
%ADD75C,0.0762*%
%ADD76C,1.6000*%
G04:AMPARAMS|DCode=77|XSize=1.6mm|YSize=1.6mm|CornerRadius=0.4mm|HoleSize=0mm|Usage=FLASHONLY|Rotation=270.000|XOffset=0mm|YOffset=0mm|HoleType=Round|Shape=RoundedRectangle|*
%AMROUNDEDRECTD77*
21,1,1.6000,0.8000,0,0,270.0*
21,1,0.8000,1.6000,0,0,270.0*
1,1,0.8000,-0.4000,-0.4000*
1,1,0.8000,-0.4000,0.4000*
1,1,0.8000,0.4000,0.4000*
1,1,0.8000,0.4000,-0.4000*
%
%ADD77ROUNDEDRECTD77*%
%ADD78C,2.1000*%
G04:AMPARAMS|DCode=79|XSize=2.1mm|YSize=2.1mm|CornerRadius=0.525mm|HoleSize=0mm|Usage=FLASHONLY|Rotation=270.000|XOffset=0mm|YOffset=0mm|HoleType=Round|Shape=RoundedRectangle|*
%AMROUNDEDRECTD79*
21,1,2.1000,1.0500,0,0,270.0*
21,1,1.0500,2.1000,0,0,270.0*
1,1,1.0500,-0.5250,-0.5250*
1,1,1.0500,-0.5250,0.5250*
1,1,1.0500,0.5250,0.5250*
1,1,1.0500,0.5250,-0.5250*
%
%ADD79ROUNDEDRECTD79*%
G04:AMPARAMS|DCode=80|XSize=1.6mm|YSize=1.6mm|CornerRadius=0.4mm|HoleSize=0mm|Usage=FLASHONLY|Rotation=180.000|XOffset=0mm|YOffset=0mm|HoleType=Round|Shape=RoundedRectangle|*
%AMROUNDEDRECTD80*
21,1,1.6000,0.8000,0,0,180.0*
21,1,0.8000,1.6000,0,0,180.0*
1,1,0.8000,-0.4000,0.4000*
1,1,0.8000,0.4000,0.4000*
1,1,0.8000,0.4000,-0.4000*
1,1,0.8000,-0.4000,-0.4000*
%
%ADD80ROUNDEDRECTD80*%
%ADD81R,1.5000X1.5000*%
%ADD82C,1.5000*%
%ADD83C,0.5080*%
%ADD84C,1.2700*%
G36*
X1561190Y1167270D02*
Y1136020D01*
X1555940D01*
Y1121270D01*
X1547940D01*
Y1136020D01*
X1542690D01*
Y1167270D01*
X1561190D01*
D02*
G37*
D14*
X1830068Y782318D02*
X1828799Y783587D01*
X1826260D01*
X1824990Y782318D01*
Y777240D01*
X1826260Y775970D01*
X1828799D01*
X1830068Y777240D01*
Y779779D01*
X1827529D01*
X1832608Y775970D02*
Y783587D01*
X1837686Y775970D01*
Y783587D01*
X1840225D02*
Y775970D01*
X1844034D01*
X1845303Y777240D01*
Y782318D01*
X1844034Y783587D01*
X1840225D01*
X1617978Y637538D02*
X1616709Y638807D01*
X1614170D01*
X1612900Y637538D01*
Y636268D01*
X1614170Y634999D01*
X1616709D01*
X1617978Y633729D01*
Y632460D01*
X1616709Y631190D01*
X1614170D01*
X1612900Y632460D01*
X1625596Y637538D02*
X1624326Y638807D01*
X1621787D01*
X1620517Y637538D01*
Y632460D01*
X1621787Y631190D01*
X1624326D01*
X1625596Y632460D01*
X1628135Y638807D02*
Y631190D01*
X1633213D01*
X1643378Y637538D02*
X1642109Y638807D01*
X1639570D01*
X1638300Y637538D01*
Y636268D01*
X1639570Y634999D01*
X1642109D01*
X1643378Y633729D01*
Y632460D01*
X1642109Y631190D01*
X1639570D01*
X1638300Y632460D01*
X1645918Y638807D02*
Y631190D01*
X1649726D01*
X1650996Y632460D01*
Y637538D01*
X1649726Y638807D01*
X1645918D01*
X1653535Y631190D02*
Y636268D01*
X1656074Y638807D01*
X1658613Y636268D01*
Y631190D01*
Y634999D01*
X1653535D01*
X1826258Y915668D02*
X1824989Y916937D01*
X1822450D01*
X1821180Y915668D01*
Y910590D01*
X1822450Y909320D01*
X1824989D01*
X1826258Y910590D01*
X1833876Y916937D02*
X1828797D01*
Y913129D01*
X1831337D01*
X1828797D01*
Y909320D01*
X1841493Y916937D02*
X1836415D01*
Y909320D01*
X1841493D01*
X1836415Y913129D02*
X1838954D01*
X1844033Y916937D02*
X1849111D01*
X1846572D01*
Y909320D01*
X1855459Y916937D02*
X1852920D01*
X1851650Y915668D01*
Y910590D01*
X1852920Y909320D01*
X1855459D01*
X1856729Y910590D01*
Y915668D01*
X1855459Y916937D01*
X1864346D02*
X1859268D01*
Y913129D01*
X1861807D01*
X1859268D01*
Y909320D01*
X1871964Y916937D02*
X1866885D01*
Y913129D01*
X1869424D01*
X1866885D01*
Y909320D01*
X1821180Y943607D02*
Y935990D01*
X1824989D01*
X1826258Y937260D01*
Y942338D01*
X1824989Y943607D01*
X1821180D01*
X1833876D02*
X1828797D01*
Y939799D01*
X1831337D01*
X1828797D01*
Y935990D01*
X1841493Y943607D02*
X1836415D01*
Y935990D01*
X1841493D01*
X1836415Y939799D02*
X1838954D01*
X1844033Y943607D02*
X1849111D01*
X1846572D01*
Y935990D01*
X1855459Y943607D02*
X1852920D01*
X1851650Y942338D01*
Y937260D01*
X1852920Y935990D01*
X1855459D01*
X1856729Y937260D01*
Y942338D01*
X1855459Y943607D01*
X1864346D02*
X1859268D01*
Y939799D01*
X1861807D01*
X1859268D01*
Y935990D01*
X1871964Y943607D02*
X1866885D01*
Y939799D01*
X1869424D01*
X1866885D01*
Y935990D01*
X1821180Y961390D02*
Y969007D01*
X1824989D01*
X1826258Y967738D01*
Y965198D01*
X1824989Y963929D01*
X1821180D01*
X1823719D02*
X1826258Y961390D01*
X1833876Y967738D02*
X1832606Y969007D01*
X1830067D01*
X1828797Y967738D01*
Y966468D01*
X1830067Y965198D01*
X1832606D01*
X1833876Y963929D01*
Y962659D01*
X1832606Y961390D01*
X1830067D01*
X1828797Y962659D01*
X1836415Y969007D02*
X1841493D01*
X1838954D01*
Y961390D01*
X1844033Y960120D02*
X1849111D01*
X1856729Y967738D02*
X1855459Y969007D01*
X1852920D01*
X1851650Y967738D01*
Y966468D01*
X1852920Y965198D01*
X1855459D01*
X1856729Y963929D01*
Y962659D01*
X1855459Y961390D01*
X1852920D01*
X1851650Y962659D01*
X1859268Y969007D02*
Y961390D01*
Y965198D01*
X1864346D01*
Y969007D01*
Y961390D01*
X1866885Y969007D02*
Y962659D01*
X1868155Y961390D01*
X1870694D01*
X1871964Y962659D01*
Y969007D01*
X1874503D02*
X1879581D01*
X1877042D01*
Y961390D01*
X1826260Y1092200D02*
Y1099818D01*
X1830069D01*
X1831338Y1098548D01*
Y1096009D01*
X1830069Y1094739D01*
X1826260D01*
X1828799D02*
X1831338Y1092200D01*
X1838956Y1099818D02*
X1833878D01*
Y1092200D01*
X1838956D01*
X1833878Y1096009D02*
X1836417D01*
X1846573Y1098548D02*
X1845304Y1099818D01*
X1842765D01*
X1841495Y1098548D01*
Y1093470D01*
X1842765Y1092200D01*
X1845304D01*
X1846573Y1093470D01*
Y1096009D01*
X1844034D01*
X1854191Y1092200D02*
X1849113D01*
X1854191Y1097278D01*
Y1098548D01*
X1852921Y1099818D01*
X1850382D01*
X1849113Y1098548D01*
X932178Y631188D02*
X930909Y632458D01*
X928370D01*
X927100Y631188D01*
Y626110D01*
X928370Y624840D01*
X930909D01*
X932178Y626110D01*
Y628649D01*
X929639D01*
X934717Y624840D02*
Y632458D01*
X939796Y624840D01*
Y632458D01*
X942335D02*
Y624840D01*
X946144D01*
X947413Y626110D01*
Y631188D01*
X946144Y632458D01*
X942335D01*
X988060Y631188D02*
X989330Y632458D01*
X991869D01*
X993138Y631188D01*
Y629918D01*
X991869Y628649D01*
X990599D01*
X991869D01*
X993138Y627379D01*
Y626110D01*
X991869Y624840D01*
X989330D01*
X988060Y626110D01*
X995677Y624840D02*
Y626110D01*
X996947D01*
Y624840D01*
X995677D01*
X1002026Y631188D02*
X1003295Y632458D01*
X1005834D01*
X1007104Y631188D01*
Y629918D01*
X1005834Y628649D01*
X1004565D01*
X1005834D01*
X1007104Y627379D01*
Y626110D01*
X1005834Y624840D01*
X1003295D01*
X1002026Y626110D01*
X1009643Y632458D02*
Y627379D01*
X1012182Y624840D01*
X1014721Y627379D01*
Y632458D01*
X1036320Y944880D02*
Y952497D01*
X1040129D01*
X1041398Y951228D01*
Y948689D01*
X1040129Y947419D01*
X1036320D01*
X1043938Y944880D02*
Y949958D01*
X1046477Y952497D01*
X1049016Y949958D01*
Y944880D01*
Y948689D01*
X1043938D01*
X1051555Y944880D02*
X1054094D01*
X1052825D01*
Y952497D01*
X1051555Y951228D01*
X1061712Y944880D02*
Y952497D01*
X1057903Y948689D01*
X1062981D01*
X1036320Y970280D02*
Y977897D01*
X1040129D01*
X1041398Y976628D01*
Y974089D01*
X1040129Y972819D01*
X1036320D01*
X1043938Y970280D02*
Y975358D01*
X1046477Y977897D01*
X1049016Y975358D01*
Y970280D01*
Y974089D01*
X1043938D01*
X1051555Y970280D02*
X1054094D01*
X1052825D01*
Y977897D01*
X1051555Y976628D01*
X1057903D02*
X1059173Y977897D01*
X1061712D01*
X1062981Y976628D01*
Y975358D01*
X1061712Y974089D01*
X1060442D01*
X1061712D01*
X1062981Y972819D01*
Y971550D01*
X1061712Y970280D01*
X1059173D01*
X1057903Y971550D01*
X1036320Y995680D02*
Y1003298D01*
X1040129D01*
X1041398Y1002028D01*
Y999489D01*
X1040129Y998219D01*
X1036320D01*
X1038859D02*
X1041398Y995680D01*
X1049016Y1002028D02*
X1047746Y1003298D01*
X1045207D01*
X1043938Y1002028D01*
Y1000758D01*
X1045207Y999489D01*
X1047746D01*
X1049016Y998219D01*
Y996950D01*
X1047746Y995680D01*
X1045207D01*
X1043938Y996950D01*
X1051555Y1003298D02*
X1056633D01*
X1054094D01*
Y995680D01*
X1036320Y1026158D02*
X1037590Y1027428D01*
X1040129D01*
X1041398Y1026158D01*
Y1024888D01*
X1040129Y1023619D01*
X1038859D01*
X1040129D01*
X1041398Y1022349D01*
Y1021080D01*
X1040129Y1019810D01*
X1037590D01*
X1036320Y1021080D01*
X1043938Y1019810D02*
Y1021080D01*
X1045207D01*
Y1019810D01*
X1043938D01*
X1050285Y1026158D02*
X1051555Y1027428D01*
X1054094D01*
X1055364Y1026158D01*
Y1024888D01*
X1054094Y1023619D01*
X1052825D01*
X1054094D01*
X1055364Y1022349D01*
Y1021080D01*
X1054094Y1019810D01*
X1051555D01*
X1050285Y1021080D01*
X1057903Y1027428D02*
Y1022349D01*
X1060442Y1019810D01*
X1062981Y1022349D01*
Y1027428D01*
X619758Y699768D02*
X618489Y701038D01*
X615950D01*
X614680Y699768D01*
Y694690D01*
X615950Y693420D01*
X618489D01*
X619758Y694690D01*
Y697229D01*
X617219D01*
X622298Y693420D02*
Y701038D01*
X627376Y693420D01*
Y701038D01*
X629915D02*
Y693420D01*
X633724D01*
X634993Y694690D01*
Y699768D01*
X633724Y701038D01*
X629915D01*
X613410Y730250D02*
Y737868D01*
X617219D01*
X618488Y736598D01*
Y734059D01*
X617219Y732789D01*
X613410D01*
X615949D02*
X618488Y730250D01*
X621027Y737868D02*
X626106Y730250D01*
Y737868D02*
X621027Y730250D01*
X628645Y737868D02*
Y730250D01*
X632454D01*
X633723Y731520D01*
Y736598D01*
X632454Y737868D01*
X628645D01*
X607060Y755650D02*
Y763268D01*
X610869D01*
X612138Y761998D01*
Y759459D01*
X610869Y758189D01*
X607060D01*
X609599D02*
X612138Y755650D01*
X619756Y763268D02*
X614678D01*
Y755650D01*
X619756D01*
X614678Y759459D02*
X617217D01*
X627373Y761998D02*
X626104Y763268D01*
X623565D01*
X622295Y761998D01*
Y756920D01*
X623565Y755650D01*
X626104D01*
X627373Y756920D01*
Y759459D01*
X624834D01*
X634991Y755650D02*
X629913D01*
X634991Y760728D01*
Y761998D01*
X633721Y763268D01*
X631182D01*
X629913Y761998D01*
X613410Y788668D02*
X618488D01*
X615949D01*
Y781050D01*
X621027Y788668D02*
X626106Y781050D01*
Y788668D02*
X621027Y781050D01*
X628645Y788668D02*
Y781050D01*
X632454D01*
X633723Y782320D01*
Y787398D01*
X632454Y788668D01*
X628645D01*
X772158Y629918D02*
X770889Y631188D01*
X768350D01*
X767080Y629918D01*
Y624840D01*
X768350Y623570D01*
X770889D01*
X772158Y624840D01*
Y627379D01*
X769619D01*
X774697Y623570D02*
Y631188D01*
X779776Y623570D01*
Y631188D01*
X782315D02*
Y623570D01*
X786124D01*
X787393Y624840D01*
Y629918D01*
X786124Y631188D01*
X782315D01*
X735330D02*
Y623570D01*
X740408D01*
X711200Y631188D02*
Y623570D01*
Y627379D01*
X716278D01*
Y631188D01*
Y623570D01*
X683258Y629918D02*
X681989Y631188D01*
X679450D01*
X678180Y629918D01*
Y624840D01*
X679450Y623570D01*
X681989D01*
X683258Y624840D01*
X685798Y623570D02*
Y628648D01*
X688337Y631188D01*
X690876Y628648D01*
Y623570D01*
Y627379D01*
X685798D01*
X693415Y623570D02*
Y631188D01*
X698493Y623570D01*
Y631188D01*
X1036319Y762000D02*
Y769617D01*
X1032510Y765809D01*
X1037588D01*
X1032510Y742948D02*
X1033780Y744218D01*
X1036319D01*
X1037588Y742948D01*
Y741678D01*
X1036319Y740409D01*
X1035049D01*
X1036319D01*
X1037588Y739139D01*
Y737870D01*
X1036319Y736600D01*
X1033780D01*
X1032510Y737870D01*
X1037588Y709930D02*
X1032510D01*
X1037588Y715008D01*
Y716278D01*
X1036319Y717548D01*
X1033780D01*
X1032510Y716278D01*
X1033780Y687070D02*
X1036319D01*
X1035050D01*
Y694688D01*
X1033780Y693418D01*
X1033778Y681988D02*
X1032509Y683258D01*
X1029970D01*
X1028700Y681988D01*
Y676910D01*
X1029970Y675640D01*
X1032509D01*
X1033778Y676910D01*
Y679449D01*
X1031239D01*
X1036318Y675640D02*
Y683258D01*
X1040126D01*
X1041396Y681988D01*
Y679449D01*
X1040126Y678179D01*
X1036318D01*
X1043935Y683258D02*
X1046474D01*
X1045205D01*
Y675640D01*
X1043935D01*
X1046474D01*
X1054092Y683258D02*
X1051553D01*
X1050283Y681988D01*
Y676910D01*
X1051553Y675640D01*
X1054092D01*
X1055361Y676910D01*
Y681988D01*
X1054092Y683258D01*
X750572Y1049018D02*
X749303Y1047749D01*
Y1045210D01*
X750572Y1043940D01*
X751842D01*
X753111Y1045210D01*
Y1047749D01*
X754381Y1049018D01*
X755650D01*
X756920Y1047749D01*
Y1045210D01*
X755650Y1043940D01*
X749303Y1051557D02*
X756920D01*
Y1055366D01*
X755650Y1056636D01*
X750572D01*
X749303Y1055366D01*
Y1051557D01*
X756920Y1059175D02*
X751842D01*
X749303Y1061714D01*
X751842Y1064253D01*
X756920D01*
X753111D01*
Y1059175D01*
X655155Y1043365D02*
X650076D01*
X647537Y1045904D01*
X650076Y1048443D01*
X655155D01*
X651346D01*
Y1043365D01*
X647537Y1050982D02*
X655155D01*
Y1054791D01*
X653885Y1056061D01*
X648807D01*
X647537Y1054791D01*
Y1050982D01*
X648807Y1063678D02*
X647537Y1062409D01*
Y1059870D01*
X648807Y1058600D01*
X653885D01*
X655155Y1059870D01*
Y1062409D01*
X653885Y1063678D01*
X655155Y1071296D02*
Y1066217D01*
X650076Y1071296D01*
X648807D01*
X647537Y1070026D01*
Y1067487D01*
X648807Y1066217D01*
X680555Y1043365D02*
X675476D01*
X672937Y1045904D01*
X675476Y1048443D01*
X680555D01*
X676746D01*
Y1043365D01*
X672937Y1050982D02*
X680555D01*
Y1054791D01*
X679285Y1056061D01*
X674207D01*
X672937Y1054791D01*
Y1050982D01*
X674207Y1063678D02*
X672937Y1062409D01*
Y1059870D01*
X674207Y1058600D01*
X679285D01*
X680555Y1059870D01*
Y1062409D01*
X679285Y1063678D01*
X680555Y1066217D02*
Y1068757D01*
Y1067487D01*
X672937D01*
X674207Y1066217D01*
X705955Y1043365D02*
X700876D01*
X698337Y1045904D01*
X700876Y1048443D01*
X705955D01*
X702146D01*
Y1043365D01*
X698337Y1050982D02*
X705955D01*
Y1056061D01*
X698337Y1063678D02*
Y1058600D01*
X705955D01*
Y1063678D01*
X702146Y1058600D02*
Y1061139D01*
X705955Y1066217D02*
X698337D01*
Y1070026D01*
X699607Y1071296D01*
X702146D01*
X703415Y1070026D01*
Y1066217D01*
Y1068757D02*
X705955Y1071296D01*
X698337Y1073835D02*
Y1078913D01*
Y1076374D01*
X705955D01*
X725172Y1049018D02*
X723903Y1047749D01*
Y1045210D01*
X725172Y1043940D01*
X726442D01*
X727711Y1045210D01*
Y1047749D01*
X728981Y1049018D01*
X730250D01*
X731520Y1047749D01*
Y1045210D01*
X730250Y1043940D01*
X725172Y1056636D02*
X723903Y1055366D01*
Y1052827D01*
X725172Y1051557D01*
X730250D01*
X731520Y1052827D01*
Y1055366D01*
X730250Y1056636D01*
X723903Y1059175D02*
X731520D01*
Y1064253D01*
X829313Y1043940D02*
X836930D01*
Y1047749D01*
X835660Y1049018D01*
X830582D01*
X829313Y1047749D01*
Y1043940D01*
Y1056636D02*
Y1051557D01*
X833121D01*
Y1054097D01*
Y1051557D01*
X836930D01*
X829313Y1064253D02*
Y1059175D01*
X836930D01*
Y1064253D01*
X833121Y1059175D02*
Y1061714D01*
X829313Y1066793D02*
Y1071871D01*
Y1069332D01*
X836930D01*
X829313Y1078219D02*
Y1075680D01*
X830582Y1074410D01*
X835660D01*
X836930Y1075680D01*
Y1078219D01*
X835660Y1079489D01*
X830582D01*
X829313Y1078219D01*
Y1087106D02*
Y1082028D01*
X833121D01*
Y1084567D01*
Y1082028D01*
X836930D01*
X829313Y1094724D02*
Y1089645D01*
X833121D01*
Y1092184D01*
Y1089645D01*
X836930D01*
X855982Y1049018D02*
X854713Y1047749D01*
Y1045210D01*
X855982Y1043940D01*
X861060D01*
X862330Y1045210D01*
Y1047749D01*
X861060Y1049018D01*
X854713Y1056636D02*
Y1051557D01*
X858521D01*
Y1054097D01*
Y1051557D01*
X862330D01*
X854713Y1064253D02*
Y1059175D01*
X862330D01*
Y1064253D01*
X858521Y1059175D02*
Y1061714D01*
X854713Y1066793D02*
Y1071871D01*
Y1069332D01*
X862330D01*
X854713Y1078219D02*
Y1075680D01*
X855982Y1074410D01*
X861060D01*
X862330Y1075680D01*
Y1078219D01*
X861060Y1079489D01*
X855982D01*
X854713Y1078219D01*
Y1087106D02*
Y1082028D01*
X858521D01*
Y1084567D01*
Y1082028D01*
X862330D01*
X854713Y1094724D02*
Y1089645D01*
X858521D01*
Y1092184D01*
Y1089645D01*
X862330D01*
X886460Y1043940D02*
X878843D01*
Y1047749D01*
X880113Y1049018D01*
X882652D01*
X883921Y1047749D01*
Y1043940D01*
Y1046479D02*
X886460Y1049018D01*
X887730Y1051557D02*
Y1056636D01*
X880113Y1064253D02*
X878843Y1062984D01*
Y1060445D01*
X880113Y1059175D01*
X881382D01*
X882652Y1060445D01*
Y1062984D01*
X883921Y1064253D01*
X885191D01*
X886460Y1062984D01*
Y1060445D01*
X885191Y1059175D01*
X878843Y1066793D02*
X886460D01*
X882652D01*
Y1071871D01*
X878843D01*
X886460D01*
X878843Y1074410D02*
X885191D01*
X886460Y1075680D01*
Y1078219D01*
X885191Y1079489D01*
X878843D01*
Y1082028D02*
Y1087106D01*
Y1084567D01*
X886460D01*
X913130Y1045210D02*
X905512D01*
Y1049019D01*
X906782Y1050288D01*
X909321D01*
X910591Y1049019D01*
Y1045210D01*
Y1047749D02*
X913130Y1050288D01*
X905512Y1057906D02*
Y1052828D01*
X913130D01*
Y1057906D01*
X909321Y1052828D02*
Y1055367D01*
X906782Y1065523D02*
X905512Y1064254D01*
Y1061715D01*
X906782Y1060445D01*
X911860D01*
X913130Y1061715D01*
Y1064254D01*
X911860Y1065523D01*
X909321D01*
Y1062984D01*
X913130Y1068063D02*
Y1070602D01*
Y1069332D01*
X905512D01*
X906782Y1068063D01*
D15*
X1767840Y730250D02*
X1791970D01*
X1802130Y740410D01*
Y765810D01*
Y791210D02*
Y816610D01*
X876032Y946465D02*
X880110Y950543D01*
X874048Y943898D02*
X876032Y945882D01*
X880110Y950543D02*
Y951230D01*
X876032Y945882D02*
Y946465D01*
X900430Y712460D02*
X911850D01*
X874775Y914655D02*
X881900Y907530D01*
X871585Y915670D02*
X873760D01*
X874775Y914655D01*
X848813Y892897D02*
X871585Y915670D01*
X800677Y857300D02*
X801869D01*
X1471930Y1016000D02*
Y1017270D01*
X1465700Y1009770D02*
X1471930Y1016000D01*
X1486805Y1037590D02*
X1504225Y1055010D01*
X1583490D01*
X778200Y872490D02*
X811530D01*
X873160Y813030D02*
Y817530D01*
Y813030D02*
X883920Y802270D01*
Y781268D02*
Y802270D01*
X882432Y779780D02*
X883920Y781268D01*
X858520Y779780D02*
X882432D01*
X854710Y783590D02*
X858520Y779780D01*
X854710Y783590D02*
Y801370D01*
X850307Y805773D02*
X854710Y801370D01*
X812793Y805773D02*
X850307D01*
X808390Y810175D02*
X812793Y805773D01*
X808390Y810175D02*
Y817300D01*
X808160Y817530D02*
X808390Y817300D01*
X842697Y838200D02*
X853160Y827737D01*
Y817530D02*
Y827737D01*
X842010Y838200D02*
X842697D01*
X730904Y688340D02*
X731520D01*
X725824Y683260D02*
X730904Y688340D01*
X712470Y683260D02*
X725824D01*
X653430Y708660D02*
X685800D01*
Y683408D02*
Y708660D01*
X1664970Y1109980D02*
Y1117600D01*
Y1102360D02*
Y1109980D01*
X1349856Y1234740D02*
X1373833D01*
X1325880D02*
X1349856D01*
X1544320Y773710D02*
Y803910D01*
Y743511D02*
Y773710D01*
X937260Y650240D02*
Y696292D01*
Y650050D02*
Y650240D01*
X874775Y914655D02*
X874775D01*
X874775D02*
Y914655D01*
X650240Y848120D02*
Y867410D01*
X873160Y934490D02*
X873390Y934720D01*
X873160Y932530D02*
Y934490D01*
X873390Y934720D02*
X892810D01*
X880441Y999821D02*
Y1005840D01*
X883920Y1009319D01*
X880110Y999490D02*
X880441Y999821D01*
X844550Y875030D02*
X867050Y897530D01*
X797560Y896602D02*
X801966Y901008D01*
X788780Y882760D02*
X797560Y891540D01*
Y896602D01*
X778390Y882760D02*
X788780D01*
X805180Y951021D02*
Y953770D01*
Y951021D02*
X808160Y948041D01*
Y932530D02*
Y948041D01*
X818160Y932530D02*
Y957300D01*
X808990Y966470D02*
X818160Y957300D01*
X828160Y932530D02*
Y976041D01*
X763831Y966470D02*
X808990D01*
X1418800Y692150D02*
Y713025D01*
X1424830Y719055D01*
Y724950D01*
X1428810Y728930D01*
X1432560D01*
X1416260Y689610D02*
X1418800Y692150D01*
X1416260Y672040D02*
Y689610D01*
X1460500Y728930D02*
X1464250D01*
X1476800Y716380D01*
Y692150D02*
Y716380D01*
X1469390Y646430D02*
X1476800Y653840D01*
Y692150D01*
X841460Y793750D02*
X843450D01*
X829310D02*
X841460D01*
X803390Y767600D02*
X803910Y767080D01*
X803390Y767600D02*
Y817300D01*
X803160Y817530D02*
X803390Y817300D01*
X737309Y955601D02*
X743931Y948979D01*
X737309Y955601D02*
Y966470D01*
X743931Y948979D02*
X793835D01*
X802930Y932760D02*
X803160Y932530D01*
X802930Y932760D02*
Y939884D01*
X793835Y948979D02*
X802930Y939884D01*
X716280Y976630D02*
X726440Y966470D01*
X737309D01*
X816995Y914785D02*
Y917534D01*
X813160Y921369D02*
X816995Y917534D01*
X813160Y921369D02*
Y932530D01*
X1475740Y1092200D02*
X1480820Y1097280D01*
Y1107440D01*
X1479550Y1108710D02*
X1480820Y1107440D01*
X1475740Y1084580D02*
Y1092200D01*
X1475700Y1073265D02*
Y1084540D01*
X1475740Y1084580D01*
X1487170Y1051560D02*
Y1052988D01*
X1480700Y1059458D02*
Y1067759D01*
Y1059458D02*
X1487170Y1052988D01*
X1475740Y1037590D02*
X1486805D01*
X1479670Y1025010D02*
X1484670Y1030010D01*
X1513955D02*
X1736050D01*
X1484670D02*
X1513955D01*
X1460700Y1073265D02*
Y1169870D01*
X1468120Y1177290D01*
X1663248Y950412D02*
Y960832D01*
X1470700Y1059220D02*
Y1073265D01*
X1456690Y1045210D02*
X1470700Y1059220D01*
X1182285Y862330D02*
X1306788D01*
X1169670Y869950D02*
X1174665D01*
X1182285Y862330D01*
X1169670Y908050D02*
X1303020D01*
X1306830Y904240D01*
X1445700Y927100D02*
X1446970Y925830D01*
X1337310Y862330D02*
X1385600D01*
X1445700Y927100D02*
Y991755D01*
X1385600Y862330D02*
X1386840Y861090D01*
X1390590Y833090D02*
X1408430Y850930D01*
Y864806D01*
X1454580Y910956D01*
Y969820D01*
X1574800Y636270D02*
X1596390Y657860D01*
X1479550Y636270D02*
X1574800D01*
X1469390Y646430D02*
X1479550Y636270D01*
X1425397Y1024802D02*
X1432445D01*
X1358890Y960180D02*
X1386840D01*
X1693185Y1216555D02*
Y1219055D01*
X1690955Y1221285D02*
X1693185Y1219055D01*
X1688455Y1221285D02*
X1690955D01*
X1662600Y1247140D02*
X1688455Y1221285D01*
X1619250Y1247140D02*
X1662600D01*
X1661300Y1202550D02*
X1684295Y1179555D01*
X1653540Y1205780D02*
X1656770Y1202550D01*
X1684295Y1179555D02*
X1693185D01*
X1656770Y1202550D02*
X1661300D01*
X1350009Y1008380D02*
X1386840D01*
X1422552Y1055218D02*
X1432445D01*
X1341114Y1103645D02*
X1386840D01*
X1385585Y1055385D02*
X1386840Y1056640D01*
X1455700Y1073265D02*
Y1116230D01*
X1443990Y1127941D02*
X1455700Y1116230D01*
X1443990Y1127941D02*
Y1153160D01*
X1442660Y1179830D02*
X1443990Y1181160D01*
X1389430Y1179830D02*
X1442660D01*
X1373833Y1234740D02*
X1374140Y1235047D01*
X1325880Y1209040D02*
X1374140D01*
X1376654D01*
X1389430Y1196264D01*
Y1179830D02*
Y1196264D01*
X1450700Y1073265D02*
Y1114810D01*
X1389430Y1176080D02*
X1450700Y1114810D01*
X1389430Y1176080D02*
Y1179830D01*
X1328420D02*
X1363930D01*
X1590040Y1221740D02*
X1606250Y1205530D01*
X1617980D01*
X1635760Y845820D02*
X1653540D01*
X1621790Y657860D02*
Y661502D01*
X1625600Y665312D02*
Y698500D01*
X1590188Y733912D02*
Y845820D01*
Y733912D02*
X1625600Y698500D01*
X1621790Y661502D02*
X1625600Y665312D01*
X1647190Y657860D02*
X1680062Y690732D01*
Y845820D01*
X1590188Y905228D02*
X1619680Y934720D01*
X1590188Y845820D02*
Y905228D01*
X1680062Y934572D02*
X1689100Y943610D01*
X1680062Y845820D02*
Y934572D01*
X1616710Y845820D02*
X1635760D01*
X1569420Y1179530D02*
X1617980D01*
X1551940Y1162050D02*
X1569420Y1179530D01*
X1551940Y1127770D02*
Y1162050D01*
X1653290Y1179530D02*
X1653540Y1179280D01*
X1617980Y1179530D02*
X1653290D01*
X1536940Y1124020D02*
Y1127770D01*
X1500700Y1087780D02*
X1536940Y1124020D01*
X1500700Y1073265D02*
Y1087780D01*
X1566940Y1124160D02*
Y1127770D01*
Y1124160D02*
X1568420Y1122680D01*
X1617918D01*
X1803400Y1045210D02*
Y1146810D01*
X1617680Y1064720D02*
X1631190Y1078230D01*
X1785620D02*
X1803400Y1096010D01*
X1631190Y1078230D02*
X1785620D01*
X1643680Y1061720D02*
X1653540D01*
X1663026Y1064126D02*
X1664970Y1066070D01*
X1655946Y1064126D02*
X1663026D01*
X1653540Y1061720D02*
X1655946Y1064126D01*
X1617680Y1061720D02*
Y1064720D01*
X1643442Y1122680D02*
X1659890D01*
X1664970Y1117600D01*
X1654810Y1092200D02*
X1664970Y1102360D01*
X1643680Y1092200D02*
X1654810D01*
X1617918Y1119918D02*
Y1122680D01*
X1558010Y1060010D02*
X1617918Y1119918D01*
X1513955Y1060010D02*
X1558010D01*
X1617680Y1089200D02*
Y1092200D01*
X1583490Y1055010D02*
X1617680Y1089200D01*
Y1058720D02*
Y1061720D01*
X1608970Y1050010D02*
X1617680Y1058720D01*
X1513955Y1050010D02*
X1608970D01*
X1733550Y1062990D02*
X1802130Y994410D01*
Y965200D02*
Y994410D01*
X1691640Y1062990D02*
X1733550D01*
X1684039Y1049089D02*
Y1055389D01*
X1680160Y1045210D02*
X1684039Y1049089D01*
Y1055389D02*
X1691640Y1062990D01*
X1705660Y1045210D02*
X1732280D01*
X1651000D02*
X1680160D01*
X1650800Y1045010D02*
X1651000Y1045210D01*
X1747520Y969010D02*
X1802130Y914400D01*
X1747520Y969010D02*
Y1005840D01*
X1728350Y1025010D02*
X1747520Y1005840D01*
X1513955Y1025010D02*
X1728350D01*
X1648460Y1012190D02*
X1672590D01*
X1755140Y986790D02*
Y1010920D01*
Y986790D02*
X1802130Y939800D01*
X1736050Y1030010D02*
X1755140Y1010920D01*
X1594292Y1015010D02*
X1612352Y996950D01*
X1689100Y943610D02*
Y962660D01*
X1612352Y996950D02*
X1690620D01*
X1513955Y1015010D02*
X1594292D01*
X1689100Y962660D02*
Y995430D01*
X1513955Y1010010D02*
X1550954D01*
X1588145Y972820D01*
X1620010D01*
X1689100Y995430D02*
X1690620Y996950D01*
X1725930Y962660D02*
X1734820Y971550D01*
X1722120Y984250D02*
Y996950D01*
Y984250D02*
X1734820Y971550D01*
X1711100Y962660D02*
X1725930D01*
X1471930Y1017270D02*
X1479670Y1025010D01*
X1513955Y1045010D02*
X1650800D01*
X1479670Y1025010D02*
X1513955D01*
X1514162Y1019802D02*
X1519876D01*
X1520129Y1019550D02*
X1596172D01*
X1604192Y1011530D02*
X1622400D01*
X1596172Y1019550D02*
X1604192Y1011530D01*
X1513955Y1020010D02*
X1514162Y1019802D01*
X1519876D02*
X1520129Y1019550D01*
X1651510Y972570D02*
Y972820D01*
X1641680Y934720D02*
X1655428Y948468D01*
X1651510Y972570D02*
X1663248Y960832D01*
X1655428Y948468D02*
X1661304D01*
X1663248Y950412D01*
X1619680Y972490D02*
X1620010Y972820D01*
X1619680Y934720D02*
Y972490D01*
X1513955Y1005010D02*
X1519253D01*
X1541233Y983030D01*
X1559560D01*
X1537970Y920750D02*
X1559560Y942340D01*
Y957530D01*
X1534460Y927009D02*
Y955040D01*
X1537970Y920750D02*
Y923499D01*
X1534460Y927009D02*
X1537970Y923499D01*
X1500700Y986457D02*
Y991755D01*
Y986457D02*
X1508460Y978697D01*
Y955040D02*
Y978697D01*
X1495700Y938960D02*
Y991755D01*
Y938960D02*
X1544320Y890340D01*
Y829310D02*
Y890340D01*
Y668000D02*
Y716989D01*
X1536700Y660380D02*
X1544320Y668000D01*
X1536700Y659130D02*
Y660380D01*
X1498600Y862330D02*
X1508760Y852170D01*
X1498600Y862330D02*
Y873760D01*
X1522730Y670560D02*
Y905510D01*
X1490700Y937540D02*
X1522730Y905510D01*
X1490700Y937540D02*
Y991755D01*
X1511300Y659130D02*
X1522730Y670560D01*
X1485700Y929840D02*
X1498600Y916940D01*
X1485700Y929840D02*
Y991755D01*
X1498600Y899160D02*
Y916940D01*
X1480700Y862450D02*
X1497360Y845790D01*
Y815340D02*
Y845790D01*
X1480700Y862450D02*
Y991755D01*
X1470700Y816680D02*
Y991755D01*
X1469360Y815340D02*
X1470700Y816680D01*
X1463660Y851520D02*
Y975197D01*
X1460700Y978157D02*
X1463660Y975197D01*
X1450700Y973700D02*
X1454580Y969820D01*
X1455700Y975717D02*
X1459120Y972297D01*
X1450700Y973700D02*
Y991755D01*
X1459120Y865965D02*
Y972297D01*
X1455700Y975717D02*
Y986249D01*
X1497360Y811590D02*
Y815340D01*
X1475320Y789550D02*
X1497360Y811590D01*
X1464010Y789550D02*
X1475320D01*
X1460530Y786070D02*
X1464010Y789550D01*
X1460530Y782320D02*
Y786070D01*
X1449070Y815340D02*
X1469360D01*
X1432530Y798800D02*
X1449070Y815340D01*
X1432530Y782320D02*
Y798800D01*
X1283949Y675661D02*
Y717550D01*
Y675661D02*
X1318260Y641350D01*
X1385570D01*
X1416260Y672040D01*
X1456780Y725210D02*
X1460500Y728930D01*
X1432560D02*
X1436280Y725210D01*
X1460530Y754460D02*
Y782320D01*
X1460500Y754430D02*
X1460530Y754460D01*
X1432530D02*
Y782320D01*
Y754460D02*
X1432560Y754430D01*
X1465700Y991755D02*
Y1009770D01*
X1366520Y661670D02*
X1368464Y663614D01*
Y669844D01*
X1383090Y684470D01*
X1386840D01*
X1358990Y661670D02*
X1366520D01*
X1342420Y678240D02*
X1358990Y661670D01*
X1342420Y678240D02*
Y681990D01*
X1169670Y755650D02*
X1207770Y717550D01*
X1283949D01*
X1169670Y793750D02*
X1277578D01*
X1297497Y773831D01*
X1300008D01*
X1305518Y768321D01*
Y765810D02*
Y768321D01*
X1169670Y831850D02*
X1181100Y820420D01*
X1306788D01*
X1314420Y681990D02*
X1314471Y682041D01*
Y717550D01*
X1460700Y978157D02*
Y991755D01*
X1430020Y817880D02*
X1463660Y851520D01*
X1403350Y810195D02*
X1459120Y865965D01*
X1403350Y796320D02*
Y810195D01*
X1339641Y722630D02*
X1342390D01*
X1334561Y717550D02*
X1339641Y722630D01*
X1314471Y717550D02*
X1334561D01*
X1390590Y783560D02*
X1403350Y796320D01*
X1386840Y783560D02*
X1390590D01*
X1386840Y833090D02*
X1390590D01*
X1383090Y762030D02*
X1386840D01*
X1379310Y765810D02*
X1383090Y762030D01*
X1336040Y765810D02*
X1379310D01*
X1386840Y712470D02*
Y734030D01*
Y762030D02*
Y783560D01*
Y811560D02*
Y833090D01*
X1346170Y811560D02*
X1386840D01*
X1345331Y812399D02*
X1346170Y811560D01*
X1342820Y812399D02*
X1345331D01*
X1337310Y817909D02*
X1342820Y812399D01*
X1337310Y817909D02*
Y820420D01*
X1386840Y861090D02*
X1390590D01*
X1394070Y864570D01*
Y869590D01*
X1446560Y922080D01*
Y925830D01*
X1358942Y882650D02*
X1386840D01*
X1345373Y896219D02*
X1358942Y882650D01*
X1342862Y896219D02*
X1345373D01*
X1337352Y901729D02*
X1342862Y896219D01*
X1337352Y901729D02*
Y904240D01*
X1169670Y831850D02*
X1172563D01*
X1169670Y944880D02*
X1306809D01*
X1169670Y1023605D02*
X1306773D01*
X1169670Y1061705D02*
X1306773D01*
X1169670Y1099805D02*
X1306752D01*
X1337331Y981739D02*
Y984250D01*
Y942369D02*
Y944880D01*
X1337295Y1021094D02*
Y1023605D01*
X1342405Y1018495D01*
X1337295Y1021094D02*
X1350009Y1008380D01*
X1337331Y981739D02*
X1358890Y960180D01*
X1404620Y994440D02*
Y1004025D01*
X1397662Y933603D02*
X1410970Y946911D01*
X1386840Y960180D02*
Y980410D01*
X1388263Y933603D02*
X1397662D01*
X1390590Y980410D02*
X1404620Y994440D01*
X1386840Y932180D02*
X1388263Y933603D01*
X1410970Y946911D02*
Y1000376D01*
X1408430Y1069340D02*
Y1093470D01*
Y1069340D02*
X1422552Y1055218D01*
X1445700Y1073265D02*
Y1094279D01*
X1425397Y1014802D02*
X1432445D01*
X1410970Y1000376D02*
X1425397Y1014802D01*
X1390590Y1008410D02*
X1417190Y1035010D01*
X1404620Y1004025D02*
X1425397Y1024802D01*
X1386804Y1104915D02*
Y1125175D01*
X1397626Y1104274D02*
X1408430Y1093470D01*
X1387446Y1104274D02*
X1397626D01*
X1386804Y1104915D02*
X1387446Y1104274D01*
X1417190Y1035010D02*
X1432445D01*
X1398255Y1056655D02*
X1409900Y1045010D01*
X1432445D01*
X1418590Y991155D02*
X1432445Y1005010D01*
X1386804Y1056655D02*
Y1076915D01*
X1342805Y1055385D02*
X1385585D01*
X1337274Y1099805D02*
X1342324Y1094755D01*
X1337274Y1099805D02*
X1341114Y1103645D01*
X1337295Y1060895D02*
X1342805Y1055385D01*
X1337295Y1061705D02*
X1342345Y1066755D01*
X1337295Y1060895D02*
Y1061705D01*
X1386840Y980410D02*
X1390590D01*
X1386840Y1008410D02*
X1390590D01*
X1386804Y1028655D02*
X1386840Y1028619D01*
Y1008410D02*
Y1028619D01*
X1386804Y1056655D02*
X1398255D01*
X1362725Y1153175D02*
X1386804D01*
X1347470Y1137920D02*
X1362725Y1153175D01*
X1386804D02*
X1390554D01*
X1337310Y1137920D02*
X1347470D01*
X1386804Y1153175D02*
X1445700Y1094279D01*
X1169670Y984250D02*
X1306809D01*
X1337331Y942369D02*
X1369050Y910650D01*
X1386840D01*
Y932180D01*
X1398270Y882650D02*
X1418590Y902970D01*
X1386840Y882650D02*
X1398270D01*
X1418590Y902970D02*
Y991155D01*
X808160Y817530D02*
Y826330D01*
X793750Y840740D02*
X808160Y826330D01*
X798160Y920015D02*
Y932530D01*
Y920015D02*
X828040Y890135D01*
Y887730D02*
Y890135D01*
X801966Y901008D02*
Y902604D01*
X797520Y877530D02*
X811473Y891483D01*
X811579D01*
X888660Y912530D02*
X893160D01*
X877930Y923260D02*
X888660Y912530D01*
X871015Y923260D02*
X877930D01*
X871014Y923260D02*
X871015Y923260D01*
X863570Y923260D02*
X871014D01*
X828040Y887730D02*
X863570Y923260D01*
X873760Y913640D02*
X874775Y914655D01*
X801869Y857300D02*
X823997Y835172D01*
X848360Y849630D02*
X859790Y838200D01*
X799933Y857300D02*
X800305Y856928D01*
X848360Y892445D02*
Y893350D01*
X800305Y856928D02*
X800677Y856557D01*
X859790Y838200D02*
X867930Y830060D01*
X837470Y881555D02*
X848360Y892445D01*
X787430Y846925D02*
Y850385D01*
X785515Y852300D02*
X787430Y850385D01*
Y846925D02*
X793078Y841277D01*
X778390Y852300D02*
X785515D01*
X778390Y857300D02*
X799933D01*
X823997Y835172D02*
X824718D01*
X778160Y852530D02*
X778390Y852300D01*
X861103Y981753D02*
X867410Y988060D01*
X854001Y978243D02*
X857511Y981753D01*
X861103D01*
X854001Y976630D02*
Y978243D01*
X883920Y988060D02*
X909158Y1013298D01*
X867410Y988060D02*
X883920D01*
X883920Y1009319D02*
Y1023620D01*
X937559Y936551D02*
X941070D01*
X935019Y934011D02*
X937559Y936551D01*
X933188Y932180D02*
X935019Y934011D01*
X909158Y1020918D02*
X910590Y1022350D01*
X935019Y934011D02*
X939800D01*
X922581D02*
X935019D01*
X909158Y1013298D02*
Y1020918D01*
X867403Y943898D02*
X874048D01*
X863390Y939884D02*
X867403Y943898D01*
X863390Y938464D02*
Y939884D01*
X863390Y938464D02*
X863390Y938464D01*
X863390Y932760D02*
Y938464D01*
X910590Y922020D02*
X922581Y934011D01*
X910590Y922020D02*
Y935625D01*
X901100Y912530D02*
X910590Y922020D01*
X893160Y912530D02*
X901100D01*
X900970Y945245D02*
X910590Y935625D01*
X900970Y945245D02*
Y953230D01*
X882590Y971610D02*
X900970Y953230D01*
X882590Y971610D02*
Y975360D01*
X905292Y902530D02*
X921459Y886363D01*
X893160Y902530D02*
X905292D01*
X921459Y867709D02*
Y871220D01*
Y886363D01*
X917649Y907489D02*
X975349D01*
X854001Y976630D02*
X881320D01*
X882590Y975360D01*
X858160Y955950D02*
X858520Y956310D01*
X858160Y932530D02*
Y955950D01*
X975349Y907489D02*
X977900Y910040D01*
X947981Y885784D02*
X960066Y897869D01*
X910590Y975360D02*
Y979110D01*
Y955040D02*
Y975360D01*
X941070Y936551D02*
Y966470D01*
X961390Y986790D02*
X999490Y1024890D01*
X941070Y966470D02*
X961390Y986790D01*
X877602Y739248D02*
Y750552D01*
X869354Y725844D02*
Y731000D01*
X877602Y750552D02*
X877620Y750570D01*
X869354Y731000D02*
X877602Y739248D01*
X867410Y723900D02*
X869354Y725844D01*
X974064Y665698D02*
Y709956D01*
Y665698D02*
X988060Y651702D01*
X960120Y723900D02*
X974064Y709956D01*
X929640Y703912D02*
Y730250D01*
Y703912D02*
X937260Y696292D01*
X999490Y1024890D02*
X1018540D01*
X778160Y877530D02*
X797520D01*
X837470Y860520D02*
Y881555D01*
X824718Y835172D02*
X839175Y849630D01*
X848360D01*
X837470Y860520D02*
X848360Y849630D01*
X867050Y897530D02*
X893160D01*
X1008218Y973928D02*
X1015838D01*
X993140Y874310D02*
Y958850D01*
X1008218Y973928D01*
X1015838D02*
X1017270Y975360D01*
X1000760Y930910D02*
X1018540Y948690D01*
X1000760Y904240D02*
Y930910D01*
Y904240D02*
X1010950Y894050D01*
X1015310D01*
X1019810Y889550D01*
X921459Y867709D02*
X938268Y850900D01*
X945689D01*
X950120D01*
X751013Y881423D02*
X757120Y887530D01*
X778160D01*
X751013Y875148D02*
X751840Y874321D01*
X751013Y875148D02*
Y881423D01*
X738255Y918720D02*
X764363Y892612D01*
X778160D01*
X703580Y918720D02*
X738255D01*
X842010Y953770D02*
X853390Y942390D01*
Y932760D02*
Y942390D01*
X853160Y932530D02*
X853390Y932760D01*
X842010Y953770D02*
Y956310D01*
X993140Y874310D02*
X994960Y872490D01*
X968449Y839470D02*
X969719Y840740D01*
X951230Y839470D02*
X968449D01*
X950120Y850900D02*
X968460Y869240D01*
Y872490D01*
X1014730Y846029D02*
X1019810Y851109D01*
Y863050D01*
X996241Y840740D02*
X998781Y843280D01*
X1014730D02*
Y846029D01*
X998781Y843280D02*
X1014730D01*
X937260Y650240D02*
X962660D01*
X881900Y907530D02*
X893160D01*
X1017270Y975360D02*
X1018540Y974090D01*
X903431Y837530D02*
X909111Y831850D01*
X911860D01*
X893160Y837530D02*
X903431D01*
X911198Y846638D02*
X913948D01*
X893160Y842530D02*
X907091D01*
X911198Y846638D01*
X882145Y847530D02*
X893160D01*
X988060Y650240D02*
X1013460D01*
X1014730D01*
X988060D02*
Y651702D01*
X911860Y650240D02*
X937260D01*
X864870Y858520D02*
X871155D01*
X882145Y847530D01*
X877570Y869950D02*
X882402D01*
X883890Y868462D01*
Y854676D02*
Y868462D01*
Y854676D02*
X885806Y852760D01*
X892930D01*
X893160Y852530D01*
X947981Y871220D02*
Y885784D01*
X977900Y936540D02*
Y987842D01*
X989548Y999490D01*
X1018540D01*
X873160Y817530D02*
Y833581D01*
X876300Y836721D01*
Y839470D01*
X867930Y817760D02*
Y830060D01*
X868160Y793950D02*
Y817530D01*
X867930Y817760D02*
X868160Y817530D01*
X929640Y730250D02*
X941070Y741680D01*
X893160Y892530D02*
X897890D01*
X877290D02*
X893160D01*
X868680Y883920D02*
X877290Y892530D01*
X778160Y857530D02*
X778390Y857300D01*
X778160Y882530D02*
X778390Y882760D01*
X863160Y932530D02*
X863390Y932760D01*
X858520Y998220D02*
Y1023620D01*
X833120Y999490D02*
Y1023620D01*
X797560Y995680D02*
X811940D01*
X827479Y980141D01*
X727710Y995680D02*
Y1023620D01*
X753110Y994410D02*
Y1023620D01*
X827479Y976630D02*
Y980141D01*
X909320Y1023620D02*
X910590Y1022350D01*
X685800Y745708D02*
X694908Y736600D01*
X737870D02*
X750570Y723900D01*
X694908Y736600D02*
X737870D01*
X855980Y679400D02*
X900430D01*
X778160Y872530D02*
X778200Y872490D01*
X651510Y996950D02*
Y1023620D01*
X651510Y1023620D02*
X651510Y1023620D01*
X702310Y995680D02*
Y1023620D01*
X676910Y996950D02*
Y1023620D01*
X867960Y793750D02*
X868160Y793950D01*
X685800Y734060D02*
X705485Y714375D01*
X741680Y783590D02*
X750570Y774700D01*
X695960Y783590D02*
X741680D01*
X653430Y784860D02*
X654700Y783590D01*
X695960D01*
X733365Y758885D02*
X740566Y751684D01*
X748186D01*
X750570Y749300D01*
X711805Y758885D02*
X733365D01*
X711230Y759460D02*
X711805Y758885D01*
X706120Y715010D02*
X722630Y698500D01*
X750570D01*
X685800Y683408D02*
X685948Y683260D01*
X911850Y712460D02*
X929640Y730250D01*
X941070Y741680D02*
Y764560D01*
X909320Y797560D02*
X941070D01*
X850900Y772160D02*
X909320D01*
X850900Y751790D02*
X852120Y750570D01*
X850900Y751790D02*
Y772160D01*
X850850Y749300D02*
X852120Y750570D01*
X826770Y749300D02*
X850850D01*
X855980Y704900D02*
Y712470D01*
X867410Y723900D01*
X826770D02*
X867410D01*
X685800Y745708D02*
Y756890D01*
X683230Y759460D02*
X685800Y756890D01*
X653430Y759460D02*
X678150D01*
X653430D02*
X656590D01*
X826770Y774700D02*
X828040Y775970D01*
Y792480D01*
X829310Y793750D01*
X702830Y917970D02*
X703580Y918720D01*
X653430Y734060D02*
X685800D01*
X653430Y683260D02*
Y708660D01*
X712310Y847799D02*
X751840D01*
X650240Y818120D02*
X697980D01*
X703580Y839069D02*
X712310Y847799D01*
X703580Y823720D02*
Y839069D01*
X697980Y818120D02*
X703580Y823720D01*
X650240Y867410D02*
Y887970D01*
Y917970D02*
X702830D01*
X650270Y759460D02*
X653430D01*
D18*
X778160Y912530D02*
D03*
Y907530D02*
D03*
Y902530D02*
D03*
Y897530D02*
D03*
Y892530D02*
D03*
Y887530D02*
D03*
Y882530D02*
D03*
Y877530D02*
D03*
Y872530D02*
D03*
Y867530D02*
D03*
Y862530D02*
D03*
Y857530D02*
D03*
Y852530D02*
D03*
Y847530D02*
D03*
Y842530D02*
D03*
Y837530D02*
D03*
X893160D02*
D03*
Y842530D02*
D03*
Y847530D02*
D03*
Y852530D02*
D03*
Y857530D02*
D03*
Y862530D02*
D03*
Y867530D02*
D03*
Y872530D02*
D03*
Y877530D02*
D03*
Y882530D02*
D03*
Y887530D02*
D03*
Y892530D02*
D03*
Y897530D02*
D03*
Y902530D02*
D03*
Y907530D02*
D03*
Y912530D02*
D03*
D19*
X798160Y817530D02*
D03*
X803160D02*
D03*
X808160D02*
D03*
X813160D02*
D03*
X818160D02*
D03*
X823160D02*
D03*
X828160D02*
D03*
X833160D02*
D03*
X838160D02*
D03*
X843160D02*
D03*
X848160D02*
D03*
X853160D02*
D03*
X858160D02*
D03*
X863160D02*
D03*
X868160D02*
D03*
X873160D02*
D03*
Y932530D02*
D03*
X868160D02*
D03*
X863160D02*
D03*
X858160D02*
D03*
X853160D02*
D03*
X848160D02*
D03*
X843160D02*
D03*
X838160D02*
D03*
X833160D02*
D03*
X828160D02*
D03*
X823160D02*
D03*
X818160D02*
D03*
X813160D02*
D03*
X808160D02*
D03*
X803160D02*
D03*
X798160D02*
D03*
D20*
X1476800Y692150D02*
D03*
X1418800D02*
D03*
D21*
X1374140Y1209040D02*
D03*
Y1235047D02*
D03*
D22*
X1325880Y1234740D02*
D03*
Y1208740D02*
D03*
X1617980Y1205530D02*
D03*
Y1179530D02*
D03*
D23*
X1363930Y1179830D02*
D03*
X1389430D02*
D03*
X852120Y750570D02*
D03*
X877620D02*
D03*
D24*
X1432445Y1060010D02*
D03*
D25*
Y1055010D02*
D03*
Y1050010D02*
D03*
Y1045010D02*
D03*
Y1040010D02*
D03*
Y1035010D02*
D03*
Y1030010D02*
D03*
Y1025010D02*
D03*
Y1020010D02*
D03*
Y1015010D02*
D03*
Y1010010D02*
D03*
Y1005010D02*
D03*
X1513955D02*
D03*
Y1010010D02*
D03*
Y1015010D02*
D03*
Y1020010D02*
D03*
Y1025010D02*
D03*
Y1030010D02*
D03*
Y1035010D02*
D03*
Y1040010D02*
D03*
Y1045010D02*
D03*
Y1050010D02*
D03*
Y1055010D02*
D03*
Y1060010D02*
D03*
D26*
X1445700Y991755D02*
D03*
X1450700D02*
D03*
X1455700D02*
D03*
X1460700D02*
D03*
X1465700D02*
D03*
X1470700D02*
D03*
X1475700D02*
D03*
X1480700D02*
D03*
X1485700D02*
D03*
X1490700D02*
D03*
X1495700D02*
D03*
X1500700D02*
D03*
Y1073265D02*
D03*
X1495700D02*
D03*
X1490700D02*
D03*
X1485700D02*
D03*
X1480700D02*
D03*
X1475700D02*
D03*
X1470700D02*
D03*
X1465700D02*
D03*
X1460700D02*
D03*
X1455700D02*
D03*
X1450700D02*
D03*
X1445700D02*
D03*
D27*
X1693185Y1216555D02*
D03*
Y1179555D02*
D03*
D28*
X1653540Y1205780D02*
D03*
Y1179280D02*
D03*
X1018540Y890820D02*
D03*
Y864320D02*
D03*
X977900Y910040D02*
D03*
Y936540D02*
D03*
D29*
X1643680Y1092200D02*
D03*
X1617680D02*
D03*
X1643680Y1061720D02*
D03*
X1617680D02*
D03*
X1508460Y955040D02*
D03*
X1534460D02*
D03*
D30*
X1690620Y996950D02*
D03*
X1722120Y996950D02*
D03*
X1620010Y972820D02*
D03*
X1651510Y972820D02*
D03*
D31*
X1559560Y957530D02*
D03*
Y983030D02*
D03*
D32*
X1544320Y743511D02*
D03*
Y716989D02*
D03*
X939800Y934011D02*
D03*
Y907489D02*
D03*
X751840Y847799D02*
D03*
Y874321D02*
D03*
D33*
X1432530Y782320D02*
D03*
X1460530D02*
D03*
X1497360Y815340D02*
D03*
X1469360D02*
D03*
X1446560Y925830D02*
D03*
X1418560D02*
D03*
X1342420Y681990D02*
D03*
X1314420D02*
D03*
X882590Y975360D02*
D03*
X910590D02*
D03*
X711230Y759460D02*
D03*
X683230D02*
D03*
D34*
X1386840Y882650D02*
D03*
Y910650D02*
D03*
X1386804Y1028655D02*
D03*
Y1056655D02*
D03*
Y1125175D02*
D03*
Y1153175D02*
D03*
X1386840Y932180D02*
D03*
Y960180D02*
D03*
Y980410D02*
D03*
Y1008410D02*
D03*
X1386804Y1076915D02*
D03*
Y1104915D02*
D03*
X1386840Y734030D02*
D03*
Y762030D02*
D03*
Y833090D02*
D03*
Y861090D02*
D03*
Y783560D02*
D03*
Y811560D02*
D03*
Y684470D02*
D03*
Y712470D02*
D03*
X1443990Y1153160D02*
D03*
Y1181160D02*
D03*
D35*
X1337331Y944880D02*
D03*
X1306809D02*
D03*
X1337274Y1099805D02*
D03*
X1306752D02*
D03*
X1337295Y1061705D02*
D03*
X1306773D02*
D03*
X1337331Y984250D02*
D03*
X1306809D02*
D03*
X1337310Y1137920D02*
D03*
X1306788D02*
D03*
X1314471Y717550D02*
D03*
X1283949D02*
D03*
X1336040Y765810D02*
D03*
X1305518D02*
D03*
X1337352Y904240D02*
D03*
X1306830D02*
D03*
X1337295Y1023605D02*
D03*
X1306773D02*
D03*
X1337310Y820420D02*
D03*
X1306788D02*
D03*
X1337310Y862330D02*
D03*
X1306788D02*
D03*
D36*
X1432560Y754430D02*
D03*
Y728930D02*
D03*
X1460500Y754430D02*
D03*
Y728930D02*
D03*
X909320Y772060D02*
D03*
Y797560D02*
D03*
X855980Y704900D02*
D03*
Y679400D02*
D03*
D37*
X1328420Y1179830D02*
D03*
X1291420D02*
D03*
D38*
X1551940Y1127770D02*
D03*
D39*
X1536940D02*
D03*
X1566940D02*
D03*
D40*
X1680160Y1045210D02*
D03*
X1705660D02*
D03*
X1622960Y1012190D02*
D03*
X1648460D02*
D03*
D41*
X1643442Y1122680D02*
D03*
X1617918D02*
D03*
D42*
X1653540Y845820D02*
D03*
X1680062D02*
D03*
X1616710D02*
D03*
X1590188D02*
D03*
X921459Y871220D02*
D03*
X947981D02*
D03*
X969719Y840740D02*
D03*
X996241D02*
D03*
X737309Y966470D02*
D03*
X763831D02*
D03*
X685948Y683260D02*
D03*
X712470D02*
D03*
X827479Y976630D02*
D03*
X854001D02*
D03*
D43*
X994960Y872490D02*
D03*
X968460D02*
D03*
X841460Y793750D02*
D03*
X867960D02*
D03*
D44*
X703580Y823720D02*
D03*
Y918720D02*
D03*
D45*
X941070Y764560D02*
D03*
Y797560D02*
D03*
X900430Y678190D02*
D03*
Y711190D02*
D03*
D46*
X650240Y816850D02*
D03*
Y846850D02*
D03*
Y887970D02*
D03*
Y917970D02*
D03*
D53*
X1711100Y962660D02*
D03*
X1689100D02*
D03*
X1641680Y934720D02*
D03*
X1619680D02*
D03*
D66*
X1498600Y873760D02*
D03*
X1544320Y803910D02*
D03*
D67*
X1498600Y899160D02*
D03*
X1544320Y829310D02*
D03*
D68*
X1536700Y659130D02*
D03*
D69*
X1511300D02*
D03*
D74*
X1266190Y1179830D02*
X1291420D01*
X1250950D02*
X1266190D01*
X1236980D02*
X1250950D01*
X1170940Y1137920D02*
X1306788D01*
X1169670D02*
X1170940D01*
X1212850Y1179830D01*
X1169670Y1136650D02*
X1170940Y1137920D01*
X1212850Y1179830D02*
X1236980D01*
D75*
X1588262Y631952D02*
Y637030D01*
X1590801D01*
X1591648Y636184D01*
Y634491D01*
X1590801Y633645D01*
X1588262D01*
X1596726Y636184D02*
X1595880Y637030D01*
X1594187D01*
X1593340Y636184D01*
Y632798D01*
X1594187Y631952D01*
X1595880D01*
X1596726Y632798D01*
Y634491D01*
X1595033D01*
X1598419Y631952D02*
Y637030D01*
X1601804Y631952D01*
Y637030D01*
X1603497D02*
Y631952D01*
X1606036D01*
X1606883Y632798D01*
Y636184D01*
X1606036Y637030D01*
X1603497D01*
D76*
X1802130Y791210D02*
D03*
Y765810D02*
D03*
Y740410D02*
D03*
X1596390Y657860D02*
D03*
X1621790D02*
D03*
X1647190D02*
D03*
X1803400Y1096010D02*
D03*
Y1121410D02*
D03*
Y1070610D02*
D03*
Y1045210D02*
D03*
X1802130Y939800D02*
D03*
Y914400D02*
D03*
Y889000D02*
D03*
X911860Y650240D02*
D03*
X937260D02*
D03*
X988060D02*
D03*
X962660D02*
D03*
X807720Y1023620D02*
D03*
X833120D02*
D03*
X883920D02*
D03*
X858520D02*
D03*
X1008380Y791210D02*
D03*
Y765810D02*
D03*
Y715010D02*
D03*
Y740410D02*
D03*
X789940Y648970D02*
D03*
X764540D02*
D03*
X713740D02*
D03*
X739140D02*
D03*
X653430Y683260D02*
D03*
Y708660D02*
D03*
Y759460D02*
D03*
Y734060D02*
D03*
X702310Y1023620D02*
D03*
X727710D02*
D03*
X676910D02*
D03*
X651510D02*
D03*
X1018540Y974090D02*
D03*
Y999490D02*
D03*
Y948690D02*
D03*
Y923290D02*
D03*
D77*
X1802130Y816610D02*
D03*
X1803400Y1146810D02*
D03*
X1802130Y965200D02*
D03*
X1008380Y689610D02*
D03*
X653430Y784860D02*
D03*
X1018540Y1024890D02*
D03*
D78*
X1786510Y1195070D02*
D03*
X1169670Y1136650D02*
D03*
Y1098550D02*
D03*
Y1060450D02*
D03*
Y984250D02*
D03*
Y946150D02*
D03*
Y831850D02*
D03*
Y793750D02*
D03*
Y869950D02*
D03*
Y908050D02*
D03*
Y1022350D02*
D03*
D79*
X1786510Y1233170D02*
D03*
X1169670Y755650D02*
D03*
D80*
X1672590Y657860D02*
D03*
X1013460Y650240D02*
D03*
X909320Y1023620D02*
D03*
X688340Y648970D02*
D03*
X753110Y1023620D02*
D03*
D81*
X750570Y774700D02*
D03*
D82*
Y749300D02*
D03*
Y723900D02*
D03*
Y698500D02*
D03*
X826770Y774700D02*
D03*
Y749300D02*
D03*
Y723900D02*
D03*
Y698500D02*
D03*
D83*
X1767840Y730250D02*
D03*
X880110Y951230D02*
D03*
X1487170Y1051560D02*
D03*
X811530Y872490D02*
D03*
X842010Y838200D02*
D03*
X731520Y688340D02*
D03*
X685800Y708660D02*
D03*
X650240Y867410D02*
D03*
X892810Y934720D02*
D03*
X880110Y999490D02*
D03*
X844550Y875030D02*
D03*
X816995Y914785D02*
D03*
X805180Y953770D02*
D03*
X803910Y767080D02*
D03*
X716280Y976630D02*
D03*
X1479550Y1108710D02*
D03*
X1475740Y1037590D02*
D03*
X1468120Y1177290D02*
D03*
X1731010Y1130300D02*
D03*
X1456690Y1045210D02*
D03*
X1239520Y882650D02*
D03*
X1469390Y646430D02*
D03*
X1619250Y1247140D02*
D03*
X1349856Y1234740D02*
D03*
X1590040Y1221740D02*
D03*
X1635760Y845820D02*
D03*
X1664970Y1066070D02*
D03*
Y1109980D02*
D03*
X1732280Y1045210D02*
D03*
X1734820Y971550D02*
D03*
X1672590Y1012190D02*
D03*
X1663248Y950412D02*
D03*
X1537970Y920750D02*
D03*
X1544320Y773710D02*
D03*
X1508760Y852170D02*
D03*
X1471930Y1017270D02*
D03*
X1366520Y661670D02*
D03*
X1430020Y817880D02*
D03*
X1342390Y722630D02*
D03*
X811579Y891483D02*
D03*
X801966Y902604D02*
D03*
X873760Y913640D02*
D03*
X828040Y887730D02*
D03*
X848360Y893350D02*
D03*
X793750Y840740D02*
D03*
X800677Y856557D02*
D03*
X917649Y907489D02*
D03*
X858520Y956310D02*
D03*
X961390Y897869D02*
D03*
X910590Y955040D02*
D03*
X961390Y986790D02*
D03*
X951230Y839470D02*
D03*
X1014730Y843280D02*
D03*
X911860Y831850D02*
D03*
X913948Y846638D02*
D03*
X864870Y858520D02*
D03*
X875030Y869950D02*
D03*
X876300Y839470D02*
D03*
X859790Y838200D02*
D03*
X960120Y723900D02*
D03*
X868680Y883920D02*
D03*
X824718Y835172D02*
D03*
X842010Y956310D02*
D03*
X833120Y999490D02*
D03*
X858520Y998220D02*
D03*
X797560Y995680D02*
D03*
X727710D02*
D03*
X753110Y994410D02*
D03*
X702310Y995680D02*
D03*
X676910Y996950D02*
D03*
X651510D02*
D03*
X695960Y783590D02*
D03*
X733365Y758885D02*
D03*
X706120Y715010D02*
D03*
X929640Y730250D02*
D03*
X845820Y660400D02*
D03*
X850900Y772160D02*
D03*
X867410Y723900D02*
D03*
D84*
X1088390Y640080D02*
D03*
Y668020D02*
D03*
Y694690D02*
D03*
Y721360D02*
D03*
Y746760D02*
D03*
Y773430D02*
D03*
Y800100D02*
D03*
Y825500D02*
D03*
Y852170D02*
D03*
Y878840D02*
D03*
Y904240D02*
D03*
Y929640D02*
D03*
Y955040D02*
D03*
Y980440D02*
D03*
Y1005840D02*
D03*
Y1031240D02*
D03*
Y1056640D02*
D03*
Y1082040D02*
D03*
Y1107440D02*
D03*
Y1132840D02*
D03*
Y1158240D02*
D03*
Y1182370D02*
D03*
Y1207770D02*
D03*
Y1233170D02*
D03*
Y1259840D02*
D03*
X1266190Y1179830D02*
D03*
X1250950D02*
D03*
X1236980D02*
D03*
M02*
