G04*
G04 #@! TF.GenerationSoftware,Altium Limited,Altium Designer,25.2.1 (25)*
G04*
G04 Layer_Physical_Order=4*
G04 Layer_Color=16711680*
%FSLAX44Y44*%
%MOMM*%
G71*
G04*
G04 #@! TF.SameCoordinates,F4FED96F-6736-4451-9F0E-EDF3A1B2C77D*
G04*
G04*
G04 #@! TF.FilePolarity,Positive*
G04*
G01*
G75*
%ADD15C,0.2540*%
%ADD21R,1.7062X1.2034*%
%ADD27R,0.7000X1.2000*%
%ADD31R,1.7000X1.0500*%
%ADD32R,1.6582X0.9561*%
%ADD42R,0.9561X1.6582*%
%ADD66R,1.1500X1.1500*%
%ADD67C,1.1500*%
%ADD68C,1.5700*%
%ADD69R,1.5700X1.5700*%
%ADD74C,1.0160*%
%ADD76C,1.6000*%
G04:AMPARAMS|DCode=77|XSize=1.6mm|YSize=1.6mm|CornerRadius=0.4mm|HoleSize=0mm|Usage=FLASHONLY|Rotation=270.000|XOffset=0mm|YOffset=0mm|HoleType=Round|Shape=RoundedRectangle|*
%AMROUNDEDRECTD77*
21,1,1.6000,0.8000,0,0,270.0*
21,1,0.8000,1.6000,0,0,270.0*
1,1,0.8000,-0.4000,-0.4000*
1,1,0.8000,-0.4000,0.4000*
1,1,0.8000,0.4000,0.4000*
1,1,0.8000,0.4000,-0.4000*
%
%ADD77ROUNDEDRECTD77*%
%ADD78C,2.1000*%
G04:AMPARAMS|DCode=79|XSize=2.1mm|YSize=2.1mm|CornerRadius=0.525mm|HoleSize=0mm|Usage=FLASHONLY|Rotation=270.000|XOffset=0mm|YOffset=0mm|HoleType=Round|Shape=RoundedRectangle|*
%AMROUNDEDRECTD79*
21,1,2.1000,1.0500,0,0,270.0*
21,1,1.0500,2.1000,0,0,270.0*
1,1,1.0500,-0.5250,-0.5250*
1,1,1.0500,-0.5250,0.5250*
1,1,1.0500,0.5250,0.5250*
1,1,1.0500,0.5250,-0.5250*
%
%ADD79ROUNDEDRECTD79*%
G04:AMPARAMS|DCode=80|XSize=1.6mm|YSize=1.6mm|CornerRadius=0.4mm|HoleSize=0mm|Usage=FLASHONLY|Rotation=180.000|XOffset=0mm|YOffset=0mm|HoleType=Round|Shape=RoundedRectangle|*
%AMROUNDEDRECTD80*
21,1,1.6000,0.8000,0,0,180.0*
21,1,0.8000,1.6000,0,0,180.0*
1,1,0.8000,-0.4000,0.4000*
1,1,0.8000,0.4000,0.4000*
1,1,0.8000,0.4000,-0.4000*
1,1,0.8000,-0.4000,-0.4000*
%
%ADD80ROUNDEDRECTD80*%
%ADD81R,1.5000X1.5000*%
%ADD82C,1.5000*%
%ADD83C,0.5080*%
%ADD84C,1.2700*%
%ADD98R,1.2200X0.9100*%
%ADD99R,1.2000X0.4000*%
%ADD100R,1.6621X1.0581*%
%ADD101R,0.9500X0.9000*%
%ADD102R,1.0581X1.7121*%
%ADD103R,0.9100X1.2200*%
%ADD104R,1.7121X1.0581*%
%ADD105R,1.3720X0.7100*%
%ADD106C,3.4342*%
%ADD107R,1.2034X1.7062*%
%ADD108R,0.7100X1.3720*%
%ADD109C,0.5080*%
%ADD110C,0.7620*%
G36*
X1311535Y1156075D02*
X1355935D01*
Y1148975D01*
X1350035D01*
Y1143375D01*
X1355935D01*
Y1136275D01*
X1350035D01*
Y1130675D01*
X1355935D01*
Y1123575D01*
X1350035D01*
Y1117975D01*
X1355935D01*
Y1110875D01*
X1311535D01*
Y1156075D01*
D02*
G37*
G36*
X1402975Y1115955D02*
Y1160355D01*
X1410075D01*
Y1154455D01*
X1415675D01*
Y1160355D01*
X1422775D01*
Y1154455D01*
X1428375D01*
Y1160355D01*
X1435475D01*
Y1154455D01*
X1441075D01*
Y1160355D01*
X1448175D01*
Y1115955D01*
X1402975D01*
D02*
G37*
D15*
X880110Y951230D02*
Y999490D01*
X833120Y965200D02*
X842010Y956310D01*
X833120Y965200D02*
Y999490D01*
X676910Y996950D02*
X782377Y891483D01*
X811579D01*
X728196Y992445D02*
X805856Y914785D01*
X816995D01*
X796499Y953770D02*
X805180D01*
X756345Y993924D02*
X796499Y953770D01*
X1430020Y810260D02*
Y817880D01*
X1342390Y722630D02*
X1430020Y810260D01*
X1246130Y882650D02*
X1272290Y908810D01*
X1239520Y882650D02*
X1246130D01*
X775970Y872490D02*
X811530D01*
X651510Y996950D02*
X775970Y872490D01*
X790456Y747791D02*
Y786646D01*
X842010Y838200D01*
X741680Y711200D02*
X749300D01*
X749300Y711200D02*
X753865D01*
X749300Y711200D02*
X749300Y711200D01*
X736600Y706120D02*
X741680Y711200D01*
X753865Y711200D02*
X790456Y747791D01*
X731520Y688340D02*
X736600Y693420D01*
Y706120D01*
X689026Y704702D02*
Y704746D01*
X685800Y707973D02*
X689026Y704746D01*
X685800Y707973D02*
Y708660D01*
X690822Y702906D02*
X723226D01*
X689026Y704702D02*
X690822Y702906D01*
X650240Y867410D02*
X742950D01*
X798465Y840740D02*
X828040Y870315D01*
X793750Y840740D02*
X798465D01*
X892810Y934720D02*
X901700Y925830D01*
X918210D01*
X753596Y993924D02*
X756345D01*
X753110Y994410D02*
X753596Y993924D01*
X727710Y995680D02*
X728196Y995194D01*
Y992445D02*
Y995194D01*
X786130Y816610D02*
X844550Y875030D01*
X728980Y816610D02*
X786130D01*
X820733Y844792D02*
X827917D01*
X786835Y810895D02*
X820733Y844792D01*
X744855Y810895D02*
X786835D01*
X1419225Y1098095D02*
Y1101174D01*
X1421505Y1103454D01*
X1376984Y1080770D02*
X1381731Y1085517D01*
Y1088335D01*
X1353820Y1009595D02*
Y1018700D01*
X1338840Y994615D02*
X1353820Y1009595D01*
X1338840Y988790D02*
Y994615D01*
X1338110Y988060D02*
X1338840Y988790D01*
X1334110Y988060D02*
X1338110D01*
X1353820Y1018700D02*
X1355900Y1020780D01*
X1385570D01*
X1353820Y1051400D02*
X1355900Y1049320D01*
X1392650Y1024801D02*
Y1027860D01*
X1406525Y1041735D02*
Y1098095D01*
X1383038Y1018248D02*
X1386097D01*
X1392650Y1024801D01*
Y1027860D02*
X1406525Y1041735D01*
X1334552Y983761D02*
Y988060D01*
X1350976Y1078256D02*
Y1080770D01*
X1346229Y1073509D02*
X1350976Y1078256D01*
X1336703Y1073509D02*
X1346229D01*
X1329635Y1066441D02*
X1336703Y1073509D01*
X1327121Y1066441D02*
X1329635D01*
X1322374Y1061694D02*
X1327121Y1066441D01*
X1322374Y1059180D02*
Y1061694D01*
X1431925Y1098095D02*
X1444625D01*
X1419225D02*
X1431925D01*
X1427480Y1136650D02*
X1446530D01*
X1479550Y1108710D02*
X1497069D01*
X1500579Y1105200D01*
Y1102360D02*
Y1105200D01*
X1526540Y1102360D02*
Y1146662D01*
X1547869Y1131910D02*
X1551379Y1128400D01*
X1578610Y1093470D02*
Y1125220D01*
X1547869Y1089617D02*
X1551379Y1093127D01*
X1544277Y1089617D02*
X1547869D01*
X1506371Y1051711D02*
X1544277Y1089617D01*
X1487321Y1051711D02*
X1506371D01*
X1551379Y1093127D02*
Y1093470D01*
X1487170Y1051560D02*
X1487321Y1051711D01*
X1475740Y1037590D02*
X1485900D01*
X1489710Y1033780D01*
Y991870D02*
Y1033780D01*
Y991870D02*
X1635760Y845820D01*
X1485900Y1176020D02*
Y1211580D01*
X1446530Y1136650D02*
X1485900Y1176020D01*
X1389941Y1186180D02*
X1459230D01*
X1468120Y1177290D01*
X1551379Y1125220D02*
Y1128400D01*
X1432560Y1131570D02*
X1437267D01*
X1311110Y994560D02*
X1314230D01*
X1751916Y1160476D02*
X1786510Y1195070D01*
X1714500Y1160476D02*
X1751916D01*
X1629106Y1160780D02*
X1629410Y1160476D01*
X1693240Y1205230D02*
X1711986Y1186484D01*
X1634081Y1194823D02*
X1644488Y1205230D01*
X1693240D01*
X1629410Y1186484D02*
X1634081Y1191155D01*
Y1194823D01*
X1714500Y1146810D02*
X1731010Y1130300D01*
X1714500Y1146810D02*
Y1160476D01*
X1711986D02*
X1714500D01*
X1706700Y1155190D02*
X1711986Y1160476D01*
X1673860Y1155190D02*
X1706700D01*
X1711986Y1186484D02*
X1714500D01*
X1673610Y1186690D02*
X1673860D01*
X1499870Y1146810D02*
Y1150321D01*
X1526392Y1146810D02*
X1526540Y1146662D01*
X1287780Y890830D02*
Y916641D01*
X1304589Y933450D01*
X1287780Y890830D02*
X1304850Y873760D01*
X1304589Y933450D02*
X1308100D01*
X1304850Y873760D02*
X1308100D01*
X1341120Y870670D02*
Y906219D01*
X1325940Y833670D02*
X1341120D01*
X1311350Y848260D02*
X1325940Y833670D01*
X1308100Y848260D02*
X1311350D01*
X1456690Y1003266D02*
Y1045210D01*
X1359644Y906219D02*
X1456690Y1003266D01*
X1341120Y906219D02*
X1359644D01*
X1337610Y929231D02*
X1341120Y932741D01*
X1333913Y929231D02*
X1337610D01*
X1311611Y906928D02*
X1333913Y929231D01*
X1308100Y906928D02*
X1311611D01*
X1308100Y957309D02*
X1334552Y983761D01*
X1308100Y933450D02*
Y957309D01*
X1272290Y908810D02*
X1272540D01*
X1272290Y940310D02*
X1272540D01*
X1242270Y910290D02*
X1272290Y940310D01*
X1226820Y910290D02*
X1242270D01*
X1272540Y940310D02*
X1274020Y938830D01*
X1226820D02*
Y969170D01*
X1311110Y981560D02*
X1315110D01*
X1300800Y971250D02*
X1311110Y981560D01*
X1275080Y971250D02*
X1300800D01*
X1273000Y1001870D02*
X1275080Y999790D01*
X1273000Y969170D02*
X1275080Y971250D01*
X1226820Y969170D02*
X1273000D01*
X1521460Y1247140D02*
X1619250D01*
X1485900Y1211580D02*
X1521460Y1247140D01*
X1330640Y1186180D02*
X1363419D01*
X1296985Y1152525D02*
X1330640Y1186180D01*
X1293675Y1152525D02*
X1296985D01*
X1254600Y1139470D02*
X1257880Y1142750D01*
X1259430D02*
X1269205Y1152525D01*
X1254600Y1137920D02*
Y1139470D01*
X1257880Y1142750D02*
X1259430D01*
X1269205Y1152525D02*
X1293675D01*
X1252820Y1136140D02*
X1254600Y1137920D01*
X1252820Y1098550D02*
Y1136140D01*
X1293675Y1061871D02*
X1296366Y1059180D01*
X1293675Y1114425D02*
Y1127125D01*
Y1139825D01*
X1430020Y1134110D02*
X1432560Y1131570D01*
X1330960Y1136650D02*
X1333500Y1134110D01*
X802505Y903143D02*
X892696D01*
X801966Y902604D02*
X802505Y903143D01*
X875704Y915584D02*
Y931949D01*
X873760Y913640D02*
X875704Y915584D01*
X892696Y903143D02*
X897042Y907489D01*
X916379D01*
X828040Y870315D02*
Y887730D01*
X849090Y894080D02*
X896620D01*
X848360Y893350D02*
X849090Y894080D01*
X799983Y857250D02*
X800677Y856557D01*
X753110Y857250D02*
X799983D01*
X898795Y955040D02*
X910590D01*
X875704Y931949D02*
X898795Y955040D01*
X918210Y925830D02*
X1000760Y843280D01*
X1014730D01*
X858520Y956310D02*
Y998220D01*
X961390Y897869D02*
Y986790D01*
X889000Y703580D02*
Y762911D01*
X928806Y731084D02*
X929640Y730250D01*
X871220Y781304D02*
Y826770D01*
X921186Y731084D02*
X928806D01*
X871220Y781050D02*
X921186Y731084D01*
X793750Y805180D02*
X823742Y835172D01*
X750570Y805180D02*
X793750D01*
X723226Y702906D02*
X733940Y713620D01*
X722630Y728980D02*
Y788670D01*
X708660Y715010D02*
X722630Y728980D01*
X706120Y715010D02*
X708660D01*
X896620Y894080D02*
X951230Y839470D01*
X875030Y869950D02*
X914330D01*
X936064Y838126D02*
Y848216D01*
X914330Y869950D02*
X936064Y848216D01*
X928370Y769620D02*
Y795020D01*
Y769620D02*
X1008380Y689610D01*
X911860Y811530D02*
Y831850D01*
Y811530D02*
X928370Y795020D01*
X987425Y735965D02*
Y761365D01*
X924560Y824230D02*
X987425Y761365D01*
X924560Y824230D02*
Y836025D01*
X987425Y735965D02*
X1008380Y715010D01*
X1006032Y742758D02*
X1008380Y740410D01*
X1006032Y742758D02*
Y752220D01*
X931524Y826728D02*
X1006032Y752220D01*
X931524Y826728D02*
Y842666D01*
X915670Y858520D02*
X931524Y842666D01*
X936064Y838126D02*
X1008380Y765810D01*
X913948Y846638D02*
X924560Y836025D01*
X864870Y858520D02*
X915670D01*
X827917Y844792D02*
X867045Y883920D01*
X868680D01*
X876300Y807720D02*
X960120Y723900D01*
X876300Y807720D02*
Y839470D01*
X859790Y838200D02*
X871220Y826770D01*
X823742Y835172D02*
X824718D01*
X787400Y996950D02*
X796290D01*
X797560Y995680D01*
X777240Y1007110D02*
X787400Y996950D01*
X713740Y1007110D02*
X777240D01*
X702310Y995680D02*
X713740Y1007110D01*
X733365Y758885D02*
X733940Y758310D01*
X732790Y759460D02*
X733365Y758885D01*
X732790Y759460D02*
Y787400D01*
X750570Y805180D01*
X722630Y788670D02*
X744855Y810895D01*
X695960Y783590D02*
X728980Y816610D01*
X733940Y713620D02*
Y758310D01*
X789940Y648970D02*
X837139D01*
X845820Y657651D01*
Y660400D01*
X764540Y648970D02*
X789940D01*
X774700Y673100D02*
X811410Y709810D01*
X853320D01*
X763270Y673100D02*
X774700D01*
X739140Y648970D02*
X763270Y673100D01*
X742950Y678180D02*
X772160D01*
X808990Y715010D01*
X713740Y648970D02*
X742950Y678180D01*
X808990Y715010D02*
Y751404D01*
X818196Y760610D01*
X839350D01*
X850900Y772160D01*
X742950Y867410D02*
X753110Y857250D01*
X845820Y660400D02*
X889000Y703580D01*
X853320Y709810D02*
X867410Y723900D01*
D21*
X1629410Y1186484D02*
D03*
Y1160476D02*
D03*
X1714500D02*
D03*
Y1186484D02*
D03*
D27*
X1341120Y833670D02*
D03*
Y870670D02*
D03*
D31*
X1308100Y873760D02*
D03*
Y848260D02*
D03*
D32*
Y906928D02*
D03*
Y933450D02*
D03*
X1341120Y906219D02*
D03*
Y932741D02*
D03*
D42*
X1500579Y1102360D02*
D03*
X1527101D02*
D03*
X1389941Y1186180D02*
D03*
X1363419D02*
D03*
X1551379Y1093470D02*
D03*
X1577901D02*
D03*
Y1125220D02*
D03*
X1551379D02*
D03*
X1526392Y1146810D02*
D03*
X1499870D02*
D03*
D66*
X1498600Y873760D02*
D03*
X1544320Y803910D02*
D03*
D67*
X1498600Y899160D02*
D03*
X1544320Y829310D02*
D03*
D68*
X1536700Y659130D02*
D03*
D69*
X1511300D02*
D03*
D74*
X1376984Y1057906D02*
Y1080770D01*
X1353330Y1051400D02*
X1353820D01*
X1338250Y1036320D02*
X1353330Y1051400D01*
X1330960Y1036320D02*
X1338250D01*
X1330960Y1010410D02*
Y1036320D01*
X1355900Y1049320D02*
X1385570D01*
X1376984Y1057906D02*
X1385570Y1049320D01*
X1333500Y1134110D02*
X1430020D01*
X1551379Y1128400D02*
Y1166258D01*
X1586939Y1160780D02*
X1629106D01*
X1551379Y1125220D02*
X1586939Y1160780D01*
X1551379Y1166258D02*
X1557331Y1172210D01*
X1521759D02*
X1557331D01*
X1574800D01*
X1315110Y994560D02*
X1330960Y1010410D01*
X1224280Y1098550D02*
Y1135050D01*
Y1167130D02*
X1236980Y1179830D01*
X1221900Y1137920D02*
X1222430Y1138450D01*
Y1142665D02*
X1224280Y1144515D01*
Y1080770D02*
Y1098550D01*
X1222430Y1138450D02*
Y1142665D01*
X1224280Y1144515D02*
Y1167130D01*
X1221900Y1137430D02*
X1224280Y1135050D01*
Y1080770D02*
X1248410Y1056640D01*
X1295429D01*
X1296366Y1057577D02*
Y1059180D01*
X1295429Y1056640D02*
X1296366Y1057577D01*
X1293675Y1061871D02*
Y1114425D01*
X1635760Y1233170D02*
X1786510D01*
X1574800Y1172210D02*
X1635760Y1233170D01*
X1647396Y1160476D02*
X1673610Y1186690D01*
X1629410Y1160476D02*
X1647396D01*
X1499870Y1150321D02*
X1521759Y1172210D01*
X1305880Y999790D02*
X1311110Y994560D01*
X1275080Y999790D02*
X1305880D01*
X1226820Y1001870D02*
X1273000D01*
D76*
X1802130Y791210D02*
D03*
Y765810D02*
D03*
Y740410D02*
D03*
X1596390Y657860D02*
D03*
X1621790D02*
D03*
X1647190D02*
D03*
X1803400Y1096010D02*
D03*
Y1121410D02*
D03*
Y1070610D02*
D03*
Y1045210D02*
D03*
X1802130Y939800D02*
D03*
Y914400D02*
D03*
Y889000D02*
D03*
X911860Y650240D02*
D03*
X937260D02*
D03*
X988060D02*
D03*
X962660D02*
D03*
X807720Y1023620D02*
D03*
X833120D02*
D03*
X883920D02*
D03*
X858520D02*
D03*
X1008380Y791210D02*
D03*
Y765810D02*
D03*
Y715010D02*
D03*
Y740410D02*
D03*
X789940Y648970D02*
D03*
X764540D02*
D03*
X713740D02*
D03*
X739140D02*
D03*
X653430Y683260D02*
D03*
Y708660D02*
D03*
Y759460D02*
D03*
Y734060D02*
D03*
X702310Y1023620D02*
D03*
X727710D02*
D03*
X676910D02*
D03*
X651510D02*
D03*
X1018540Y974090D02*
D03*
Y999490D02*
D03*
Y948690D02*
D03*
Y923290D02*
D03*
D77*
X1802130Y816610D02*
D03*
X1803400Y1146810D02*
D03*
X1802130Y965200D02*
D03*
X1008380Y689610D02*
D03*
X653430Y784860D02*
D03*
X1018540Y1024890D02*
D03*
D78*
X1786510Y1195070D02*
D03*
X1169670Y1136650D02*
D03*
Y1098550D02*
D03*
Y1060450D02*
D03*
Y984250D02*
D03*
Y946150D02*
D03*
Y831850D02*
D03*
Y793750D02*
D03*
Y869950D02*
D03*
Y908050D02*
D03*
Y1022350D02*
D03*
D79*
X1786510Y1233170D02*
D03*
X1169670Y755650D02*
D03*
D80*
X1672590Y657860D02*
D03*
X1013460Y650240D02*
D03*
X909320Y1023620D02*
D03*
X688340Y648970D02*
D03*
X753110Y1023620D02*
D03*
D81*
X750570Y774700D02*
D03*
D82*
Y749300D02*
D03*
Y723900D02*
D03*
Y698500D02*
D03*
X826770Y774700D02*
D03*
Y749300D02*
D03*
Y723900D02*
D03*
Y698500D02*
D03*
D83*
X1767840Y730250D02*
D03*
X880110Y951230D02*
D03*
X1487170Y1051560D02*
D03*
X811530Y872490D02*
D03*
X842010Y838200D02*
D03*
X731520Y688340D02*
D03*
X685800Y708660D02*
D03*
X650240Y867410D02*
D03*
X892810Y934720D02*
D03*
X880110Y999490D02*
D03*
X844550Y875030D02*
D03*
X816995Y914785D02*
D03*
X805180Y953770D02*
D03*
X803910Y767080D02*
D03*
X716280Y976630D02*
D03*
X1479550Y1108710D02*
D03*
X1475740Y1037590D02*
D03*
X1468120Y1177290D02*
D03*
X1731010Y1130300D02*
D03*
X1456690Y1045210D02*
D03*
X1239520Y882650D02*
D03*
X1469390Y646430D02*
D03*
X1619250Y1247140D02*
D03*
X1349856Y1234740D02*
D03*
X1590040Y1221740D02*
D03*
X1635760Y845820D02*
D03*
X1664970Y1066070D02*
D03*
Y1109980D02*
D03*
X1732280Y1045210D02*
D03*
X1734820Y971550D02*
D03*
X1672590Y1012190D02*
D03*
X1663248Y950412D02*
D03*
X1537970Y920750D02*
D03*
X1544320Y773710D02*
D03*
X1508760Y852170D02*
D03*
X1471930Y1017270D02*
D03*
X1366520Y661670D02*
D03*
X1430020Y817880D02*
D03*
X1342390Y722630D02*
D03*
X811579Y891483D02*
D03*
X801966Y902604D02*
D03*
X873760Y913640D02*
D03*
X828040Y887730D02*
D03*
X848360Y893350D02*
D03*
X793750Y840740D02*
D03*
X800677Y856557D02*
D03*
X917649Y907489D02*
D03*
X858520Y956310D02*
D03*
X961390Y897869D02*
D03*
X910590Y955040D02*
D03*
X961390Y986790D02*
D03*
X951230Y839470D02*
D03*
X1014730Y843280D02*
D03*
X911860Y831850D02*
D03*
X913948Y846638D02*
D03*
X864870Y858520D02*
D03*
X875030Y869950D02*
D03*
X876300Y839470D02*
D03*
X859790Y838200D02*
D03*
X960120Y723900D02*
D03*
X868680Y883920D02*
D03*
X824718Y835172D02*
D03*
X842010Y956310D02*
D03*
X833120Y999490D02*
D03*
X858520Y998220D02*
D03*
X797560Y995680D02*
D03*
X727710D02*
D03*
X753110Y994410D02*
D03*
X702310Y995680D02*
D03*
X676910Y996950D02*
D03*
X651510D02*
D03*
X695960Y783590D02*
D03*
X733365Y758885D02*
D03*
X706120Y715010D02*
D03*
X929640Y730250D02*
D03*
X845820Y660400D02*
D03*
X850900Y772160D02*
D03*
X867410Y723900D02*
D03*
D84*
X1088390Y640080D02*
D03*
Y668020D02*
D03*
Y694690D02*
D03*
Y721360D02*
D03*
Y746760D02*
D03*
Y773430D02*
D03*
Y800100D02*
D03*
Y825500D02*
D03*
Y852170D02*
D03*
Y878840D02*
D03*
Y904240D02*
D03*
Y929640D02*
D03*
Y955040D02*
D03*
Y980440D02*
D03*
Y1005840D02*
D03*
Y1031240D02*
D03*
Y1056640D02*
D03*
Y1082040D02*
D03*
Y1107440D02*
D03*
Y1132840D02*
D03*
Y1158240D02*
D03*
Y1182370D02*
D03*
Y1207770D02*
D03*
Y1233170D02*
D03*
Y1259840D02*
D03*
X1266190Y1179830D02*
D03*
X1250950D02*
D03*
X1236980D02*
D03*
D98*
X1353820Y1051400D02*
D03*
Y1018700D02*
D03*
X1226820Y969170D02*
D03*
Y1001870D02*
D03*
D99*
X1315110Y981560D02*
D03*
Y994560D02*
D03*
X1334110Y988060D02*
D03*
D100*
X1226820Y910290D02*
D03*
Y938830D02*
D03*
D101*
X1272540Y940310D02*
D03*
X1272540Y908810D02*
D03*
X1673860Y1186690D02*
D03*
X1673860Y1155190D02*
D03*
D102*
X1252820Y1098550D02*
D03*
X1224280D02*
D03*
D103*
X1254600Y1137920D02*
D03*
X1221900D02*
D03*
D104*
X1385570Y1020780D02*
D03*
Y1049320D02*
D03*
X1275080Y971250D02*
D03*
Y999790D02*
D03*
D105*
X1293675Y1114425D02*
D03*
Y1127125D02*
D03*
Y1139825D02*
D03*
Y1152525D02*
D03*
D106*
X1330960Y1136650D02*
D03*
X1422400Y1135380D02*
D03*
D107*
X1350976Y1080770D02*
D03*
X1376984D02*
D03*
X1296366Y1059180D02*
D03*
X1322374D02*
D03*
D108*
X1444625Y1098095D02*
D03*
X1431925D02*
D03*
X1419225D02*
D03*
X1406525D02*
D03*
D109*
X1430915Y1099105D02*
Y1105275D01*
X1391920Y1109980D02*
X1426210D01*
X1430915Y1099105D02*
X1431925Y1098095D01*
X1426210Y1109980D02*
X1430915Y1105275D01*
X1376984Y1080770D02*
Y1095044D01*
X1391920Y1109980D01*
D110*
X1444625Y1098095D02*
X1461770Y1115240D01*
Y1123950D01*
X1484630Y1146810D01*
X1499870D01*
M02*
