G04*
G04 #@! TF.GenerationSoftware,Altium Limited,Altium Designer,25.2.1 (25)*
G04*
G04 Layer_Color=65535*
%FSLAX44Y44*%
%MOMM*%
G71*
G04*
G04 #@! TF.SameCoordinates,F4FED96F-6736-4451-9F0E-EDF3A1B2C77D*
G04*
G04*
G04 #@! TF.FilePolarity,Positive*
G04*
G01*
G75*
%ADD10C,0.2500*%
%ADD11C,0.5000*%
%ADD12C,0.2000*%
%ADD13C,0.6000*%
%ADD14C,0.1270*%
%ADD15C,0.2540*%
%ADD16R,0.5080X1.5870*%
D10*
X1803380Y835310D02*
G03*
X1803380Y835310I-1250J0D01*
G01*
X767660Y912530D02*
G03*
X767660Y912530I-1250J0D01*
G01*
X1433695Y1067110D02*
G03*
X1433695Y1067110I-1250J0D01*
G01*
X1703435Y1179555D02*
G03*
X1703435Y1179555I-1250J0D01*
G01*
X1692540Y657860D02*
G03*
X1692540Y657860I-1250J0D01*
G01*
X1491000Y659130D02*
G03*
X1491000Y659130I-1250J0D01*
G01*
X1329670Y1188830D02*
G03*
X1329670Y1188830I-1250J0D01*
G01*
X1804650Y1165510D02*
G03*
X1804650Y1165510I-1250J0D01*
G01*
X1803380Y983900D02*
G03*
X1803380Y983900I-1250J0D01*
G01*
X1033410Y650240D02*
G03*
X1033410Y650240I-1250J0D01*
G01*
X929270Y1023620D02*
G03*
X929270Y1023620I-1250J0D01*
G01*
X1009630Y670910D02*
G03*
X1009630Y670910I-1250J0D01*
G01*
X751820Y787700D02*
G03*
X751820Y787700I-1250J0D01*
G01*
X670890Y648970D02*
G03*
X670890Y648970I-1250J0D01*
G01*
X654680Y803560D02*
G03*
X654680Y803560I-1250J0D01*
G01*
X773060Y1023620D02*
G03*
X773060Y1023620I-1250J0D01*
G01*
X1019790Y1043590D02*
G03*
X1019790Y1043590I-1250J0D01*
G01*
D11*
X1456700Y1051510D02*
G03*
X1456700Y1051510I-2500J0D01*
G01*
D12*
X1537940Y1115270D02*
G03*
X1537940Y1115270I-1000J0D01*
G01*
X782320Y785600D02*
G03*
X795020Y785600I6350J0D01*
G01*
X1788680Y726210D02*
Y830810D01*
X1815580D01*
Y726210D02*
Y830810D01*
X1788680Y726210D02*
X1815580D01*
X785660Y925030D02*
X792910D01*
X878410D02*
X885660D01*
Y825030D02*
Y832280D01*
Y917780D02*
Y925030D01*
X785660Y825030D02*
X792910D01*
X878410D02*
X885660D01*
X785660D02*
Y832280D01*
Y917780D02*
Y925030D01*
X1427800Y676900D02*
X1467800D01*
X1427800Y707400D02*
X1467800D01*
X1383140Y1218057D02*
Y1226030D01*
X1365140Y1218057D02*
Y1226030D01*
X1333380Y1218240D02*
Y1225240D01*
X1318380Y1218240D02*
Y1225240D01*
X1372930Y1188580D02*
X1380430D01*
X1372930Y1171080D02*
X1380430D01*
X1445700Y1060010D02*
X1500700D01*
Y1005010D02*
Y1060010D01*
X1445700Y1005010D02*
X1500700D01*
X1445700D02*
Y1060010D01*
X1701685Y1183805D02*
Y1212305D01*
X1684685Y1183805D02*
Y1212305D01*
X1700685Y1183805D02*
X1701685D01*
X1700685Y1212305D02*
X1701685D01*
X1684685Y1183805D02*
X1685685D01*
X1684685Y1212305D02*
X1685685D01*
X1660290Y1187530D02*
Y1197530D01*
X1646790Y1187530D02*
Y1197530D01*
X1625480Y1189030D02*
Y1196030D01*
X1610480Y1189030D02*
Y1196030D01*
X1627180Y1084700D02*
X1634180D01*
X1627180Y1099700D02*
X1634180D01*
X1627180Y1054220D02*
X1634180D01*
X1627180Y1069220D02*
X1634180D01*
X1582190Y644410D02*
Y671310D01*
Y644410D02*
X1686790D01*
Y671310D01*
X1582190D02*
X1686790D01*
X1700020Y989200D02*
X1712720D01*
X1700020Y1004700D02*
X1712720D01*
X1700020Y989200D02*
Y1004700D01*
X1695850Y955910D02*
X1704350D01*
X1695850Y969410D02*
X1704350D01*
X1629410Y965070D02*
X1642110D01*
X1629410Y980570D02*
X1642110D01*
X1629410Y965070D02*
Y980570D01*
X1626430Y927970D02*
X1634930D01*
X1626430Y941470D02*
X1634930D01*
X1552060Y966780D02*
Y973780D01*
X1567060Y966780D02*
Y973780D01*
X1552320Y725519D02*
Y734980D01*
X1536320Y725519D02*
Y734980D01*
X1486600Y867960D02*
Y904960D01*
X1508100D02*
X1510600D01*
X1486600D02*
X1489100D01*
X1510600Y867960D02*
Y904960D01*
X1508100Y867960D02*
X1510600D01*
X1486600D02*
X1489100D01*
X1441030Y791320D02*
X1452030D01*
X1441030Y773320D02*
X1452030D01*
X1496100Y645930D02*
Y672330D01*
Y645930D02*
X1551900D01*
Y672330D01*
X1496100D02*
X1551900D01*
X1532320Y798110D02*
X1534820D01*
X1553820D02*
X1556320D01*
Y835110D01*
X1532320D02*
X1534820D01*
X1553820D02*
X1556320D01*
X1532320Y798110D02*
Y835110D01*
X1197670Y730650D02*
Y1161650D01*
X1125670Y730650D02*
X1197670D01*
X1125670D02*
Y1161650D01*
X1197670D01*
X1377840Y891150D02*
Y902150D01*
X1395840Y891150D02*
Y902150D01*
X1377804Y1037155D02*
Y1048155D01*
X1395804Y1037155D02*
Y1048155D01*
X1377804Y1133675D02*
Y1144675D01*
X1395804Y1133675D02*
Y1144675D01*
X1377840Y940680D02*
Y951680D01*
X1395840Y940680D02*
Y951680D01*
X1377840Y988910D02*
Y999910D01*
X1395840Y988910D02*
Y999910D01*
X1317339Y936880D02*
X1326801D01*
X1317339Y952880D02*
X1326801D01*
X1317283Y1091805D02*
X1326744D01*
X1317283Y1107805D02*
X1326744D01*
X1317304Y1053705D02*
X1326765D01*
X1317304Y1069705D02*
X1326765D01*
X1377804Y1085415D02*
Y1096415D01*
X1395804Y1085415D02*
Y1096415D01*
X1317339Y976250D02*
X1326801D01*
X1317339Y992250D02*
X1326801D01*
X1317319Y1129920D02*
X1326780D01*
X1317319Y1145920D02*
X1326780D01*
X1294480Y709550D02*
X1303940D01*
X1294480Y725550D02*
X1303940D01*
X1316049Y757810D02*
X1325510D01*
X1316049Y773810D02*
X1325510D01*
X1377840Y742530D02*
Y753530D01*
X1395840Y742530D02*
Y753530D01*
X1317360Y896240D02*
X1326821D01*
X1317360Y912240D02*
X1326821D01*
X1317304Y1015605D02*
X1326765D01*
X1317304Y1031605D02*
X1326765D01*
X1441310Y737930D02*
Y745430D01*
X1423810Y737930D02*
Y745430D01*
X1469250Y737930D02*
Y745430D01*
X1451750Y737930D02*
Y745430D01*
X1477860Y806340D02*
X1488860D01*
X1477860Y824340D02*
X1488860D01*
X1317319Y812420D02*
X1326780D01*
X1317319Y828420D02*
X1326780D01*
X1377840Y841590D02*
Y852590D01*
X1395840Y841590D02*
Y852590D01*
X1427060Y916830D02*
X1438060D01*
X1427060Y934830D02*
X1438060D01*
X1317319Y854330D02*
X1326780D01*
X1317319Y870330D02*
X1326780D01*
X1377840Y792060D02*
Y803060D01*
X1395840Y792060D02*
Y803060D01*
X1322920Y672990D02*
X1333920D01*
X1322920Y690990D02*
X1333920D01*
X1517960Y962540D02*
X1524960D01*
X1517960Y947540D02*
X1524960D01*
X1377840Y692970D02*
Y703970D01*
X1395840Y692970D02*
Y703970D01*
X1295670Y1171330D02*
Y1172330D01*
X1324170Y1171330D02*
Y1172330D01*
X1295670Y1187330D02*
Y1188330D01*
X1324170Y1187330D02*
Y1188330D01*
X1295670Y1171330D02*
X1324170D01*
X1295670Y1188330D02*
X1324170D01*
X1434990Y1161660D02*
Y1172660D01*
X1452990Y1161660D02*
Y1172660D01*
X1789950Y1031010D02*
X1816850D01*
Y1161010D01*
X1789950D02*
X1816850D01*
X1789950Y1031010D02*
Y1161010D01*
X1788680Y874800D02*
Y979400D01*
X1815580D01*
Y874800D02*
Y979400D01*
X1788680Y874800D02*
X1815580D01*
X1689410Y1052710D02*
X1696410D01*
X1689410Y1037710D02*
X1696410D01*
X1626446Y1131430D02*
X1634914D01*
X1626446Y1113930D02*
X1634914D01*
X1632210Y1019690D02*
X1639210D01*
X1632210Y1004690D02*
X1639210D01*
X1662070Y853820D02*
X1671531D01*
X1662070Y837820D02*
X1671531D01*
X1598719D02*
X1608180D01*
X1598719Y853820D02*
X1608180D01*
X891090Y984360D02*
X902090D01*
X891090Y966360D02*
X902090D01*
X929989Y879220D02*
X939451D01*
X929989Y863220D02*
X939451D01*
X1025290Y872570D02*
Y882570D01*
X1011790Y872570D02*
Y882570D01*
X976710Y865740D02*
X986710D01*
X976710Y879240D02*
X986710D01*
X978250Y848740D02*
X987710D01*
X978250Y832740D02*
X987710D01*
X971150Y918290D02*
Y928290D01*
X984650Y918290D02*
Y928290D01*
X947800Y916020D02*
Y925480D01*
X931800Y916020D02*
Y925480D01*
X897660Y663690D02*
X1027660D01*
Y636790D02*
Y663690D01*
X897660Y636790D02*
X1027660D01*
X897660D02*
Y663690D01*
X793520Y1037070D02*
X923520D01*
Y1010170D02*
Y1037070D01*
X793520Y1010170D02*
X923520D01*
X793520D02*
Y1037070D01*
X1021830Y675410D02*
Y805410D01*
X994930Y675410D02*
X1021830D01*
X994930D02*
Y805410D01*
X1021830D01*
X745839Y974470D02*
X755301D01*
X745839Y958470D02*
X755301D01*
X694479Y691260D02*
X703940D01*
X694479Y675260D02*
X703940D01*
X728580Y812720D02*
Y929720D01*
X678580Y812720D02*
Y929720D01*
X717580D02*
X728580D01*
X717580Y812720D02*
X728580D01*
X678580Y929720D02*
X689580D01*
X678580Y812720D02*
X689580D01*
X836010Y984630D02*
X845471D01*
X836010Y968630D02*
X845471D01*
X900570Y781060D02*
Y788560D01*
X918070Y781060D02*
Y788560D01*
X931570Y773810D02*
Y788310D01*
X950570Y773810D02*
Y788310D01*
X743840Y856329D02*
Y865790D01*
X759840Y856329D02*
Y865790D01*
X641240Y825600D02*
Y838100D01*
X659240Y825600D02*
Y838100D01*
X762170Y687600D02*
Y785600D01*
X815170Y687600D02*
Y785600D01*
X762170D02*
X782320D01*
X795020D02*
X815170D01*
X762170Y687600D02*
X815170D01*
X890930Y687440D02*
Y701940D01*
X909930Y687440D02*
Y701940D01*
X861120Y759320D02*
X868620D01*
X861120Y741820D02*
X868620D01*
X674140Y635520D02*
X804140D01*
X674140D02*
Y662420D01*
X804140D01*
Y635520D02*
Y662420D01*
X864730Y688400D02*
Y695900D01*
X847230Y688400D02*
Y695900D01*
X849710Y800500D02*
X859710D01*
X849710Y787000D02*
X859710D01*
X639980Y669060D02*
Y799060D01*
X666880D01*
Y669060D02*
Y799060D01*
X639980Y669060D02*
X666880D01*
X691730Y750460D02*
X702730D01*
X691730Y768460D02*
X702730D01*
X637310Y1010170D02*
Y1037070D01*
Y1010170D02*
X767310D01*
Y1037070D01*
X637310D02*
X767310D01*
X1005090Y909090D02*
X1031990D01*
Y1039090D01*
X1005090D02*
X1031990D01*
X1005090Y909090D02*
Y1039090D01*
X641240Y896720D02*
Y909220D01*
X659240Y896720D02*
Y909220D01*
D13*
X775170Y775600D02*
G03*
X775170Y775600I-3000J0D01*
G01*
D14*
X1574940Y1133520D02*
Y1159520D01*
X1567180D02*
X1574940D01*
X1528940Y1133520D02*
Y1159520D01*
X1536700D01*
D15*
X1788922Y845312D02*
Y860547D01*
X1796539D01*
X1799079Y858008D01*
Y852930D01*
X1796539Y850390D01*
X1788922D01*
X1804157Y845312D02*
X1809235D01*
X1806696D01*
Y860547D01*
X1804157Y858008D01*
X1816853D02*
X1819392Y860547D01*
X1824471D01*
X1827010Y858008D01*
Y855469D01*
X1824471Y852930D01*
X1821931D01*
X1824471D01*
X1827010Y850390D01*
Y847851D01*
X1824471Y845312D01*
X1819392D01*
X1816853Y847851D01*
X1416057Y652783D02*
Y668018D01*
X1423674D01*
X1426213Y665478D01*
Y660400D01*
X1423674Y657861D01*
X1416057D01*
X1421135D02*
X1426213Y652783D01*
X1438909D02*
Y668018D01*
X1431292Y660400D01*
X1441448D01*
X1446527Y665478D02*
X1449066Y668018D01*
X1454144D01*
X1456683Y665478D01*
Y662939D01*
X1454144Y660400D01*
X1451605D01*
X1454144D01*
X1456683Y657861D01*
Y655322D01*
X1454144Y652783D01*
X1449066D01*
X1446527Y655322D01*
X1248396Y1131572D02*
Y1146807D01*
X1256013D01*
X1258552Y1144268D01*
Y1139190D01*
X1256013Y1136651D01*
X1248396D01*
X1253474D02*
X1258552Y1131572D01*
X1273788D02*
X1263631D01*
X1273788Y1141729D01*
Y1144268D01*
X1271248Y1146807D01*
X1266170D01*
X1263631Y1144268D01*
X1278866Y1134112D02*
X1281405Y1131572D01*
X1286483D01*
X1289023Y1134112D01*
Y1144268D01*
X1286483Y1146807D01*
X1281405D01*
X1278866Y1144268D01*
Y1141729D01*
X1281405Y1139190D01*
X1289023D01*
X1528826Y1192779D02*
Y1180083D01*
X1531365Y1177544D01*
X1536443D01*
X1538983Y1180083D01*
Y1192779D01*
X1551679Y1177544D02*
Y1192779D01*
X1544061Y1185162D01*
X1554218D01*
X1424942Y952504D02*
X1437638D01*
X1440177Y955043D01*
Y960122D01*
X1437638Y962661D01*
X1424942D01*
X1427482Y967739D02*
X1424942Y970278D01*
Y975357D01*
X1427482Y977896D01*
X1430021D01*
X1432560Y975357D01*
Y972818D01*
Y975357D01*
X1435099Y977896D01*
X1437638D01*
X1440177Y975357D01*
Y970278D01*
X1437638Y967739D01*
X1532897Y689613D02*
Y704847D01*
X1540514D01*
X1543053Y702308D01*
Y697230D01*
X1540514Y694691D01*
X1532897D01*
X1537975D02*
X1543053Y689613D01*
X1558288Y704847D02*
X1548132D01*
Y697230D01*
X1553210Y699769D01*
X1555749D01*
X1558288Y697230D01*
Y692152D01*
X1555749Y689613D01*
X1550671D01*
X1548132Y692152D01*
X1563367Y702308D02*
X1565906Y704847D01*
X1570984D01*
X1573523Y702308D01*
Y692152D01*
X1570984Y689613D01*
X1565906D01*
X1563367Y692152D01*
Y702308D01*
X1224266Y709932D02*
Y725167D01*
X1231883D01*
X1234423Y722628D01*
Y717550D01*
X1231883Y715011D01*
X1224266D01*
X1229344D02*
X1234423Y709932D01*
X1247118D02*
Y725167D01*
X1239501Y717550D01*
X1249658D01*
X1254736Y712472D02*
X1257275Y709932D01*
X1262353D01*
X1264893Y712472D01*
Y722628D01*
X1262353Y725167D01*
X1257275D01*
X1254736Y722628D01*
Y720089D01*
X1257275Y717550D01*
X1264893D01*
X1247147Y758193D02*
Y773428D01*
X1254764D01*
X1257303Y770888D01*
Y765810D01*
X1254764Y763271D01*
X1247147D01*
X1252225D02*
X1257303Y758193D01*
X1269999D02*
Y773428D01*
X1262382Y765810D01*
X1272538D01*
X1277617Y770888D02*
X1280156Y773428D01*
X1285234D01*
X1287773Y770888D01*
Y768349D01*
X1285234Y765810D01*
X1287773Y763271D01*
Y760732D01*
X1285234Y758193D01*
X1280156D01*
X1277617Y760732D01*
Y763271D01*
X1280156Y765810D01*
X1277617Y768349D01*
Y770888D01*
X1280156Y765810D02*
X1285234D01*
X1417318Y723907D02*
X1402083D01*
Y731524D01*
X1404622Y734063D01*
X1409700D01*
X1412239Y731524D01*
Y723907D01*
Y728985D02*
X1417318Y734063D01*
Y746759D02*
X1402083D01*
X1409700Y739142D01*
Y749298D01*
X1402083Y754377D02*
Y764533D01*
X1404622D01*
X1414778Y754377D01*
X1417318D01*
X1247126Y812803D02*
Y828037D01*
X1254743D01*
X1257282Y825498D01*
Y820420D01*
X1254743Y817881D01*
X1247126D01*
X1252204D02*
X1257282Y812803D01*
X1269978D02*
Y828037D01*
X1262361Y820420D01*
X1272517D01*
X1287753Y828037D02*
X1282674Y825498D01*
X1277596Y820420D01*
Y815342D01*
X1280135Y812803D01*
X1285213D01*
X1287753Y815342D01*
Y817881D01*
X1285213Y820420D01*
X1277596D01*
X1553217Y927103D02*
Y942337D01*
X1560834D01*
X1563373Y939798D01*
Y934720D01*
X1560834Y932181D01*
X1553217D01*
X1558295D02*
X1563373Y927103D01*
X1576069D02*
Y942337D01*
X1568452Y934720D01*
X1578608D01*
X1593843Y942337D02*
X1583687D01*
Y934720D01*
X1588765Y937259D01*
X1591304D01*
X1593843Y934720D01*
Y929642D01*
X1591304Y927103D01*
X1586226D01*
X1583687Y929642D01*
X1249687Y854713D02*
Y869948D01*
X1257304D01*
X1259843Y867408D01*
Y862330D01*
X1257304Y859791D01*
X1249687D01*
X1254765D02*
X1259843Y854713D01*
X1272539D02*
Y869948D01*
X1264922Y862330D01*
X1275078D01*
X1287774Y854713D02*
Y869948D01*
X1280157Y862330D01*
X1290313D01*
X1585976Y864108D02*
Y879343D01*
X1593593D01*
X1596133Y876804D01*
Y871725D01*
X1593593Y869186D01*
X1585976D01*
X1591054D02*
X1596133Y864108D01*
X1608829D02*
Y879343D01*
X1601211Y871725D01*
X1611368D01*
X1626603Y864108D02*
X1616446D01*
X1626603Y874265D01*
Y876804D01*
X1624064Y879343D01*
X1618985D01*
X1616446Y876804D01*
X1649222Y864108D02*
Y879343D01*
X1656839D01*
X1659379Y876804D01*
Y871725D01*
X1656839Y869186D01*
X1649222D01*
X1654300D02*
X1659379Y864108D01*
X1672075D02*
Y879343D01*
X1664457Y871725D01*
X1674614D01*
X1679692Y864108D02*
X1684771D01*
X1682231D01*
Y879343D01*
X1679692Y876804D01*
X1248417Y896622D02*
Y911858D01*
X1256034D01*
X1258573Y909318D01*
Y904240D01*
X1256034Y901701D01*
X1248417D01*
X1253495D02*
X1258573Y896622D01*
X1271269D02*
Y911858D01*
X1263652Y904240D01*
X1273808D01*
X1278887Y909318D02*
X1281426Y911858D01*
X1286504D01*
X1289043Y909318D01*
Y899162D01*
X1286504Y896622D01*
X1281426D01*
X1278887Y899162D01*
Y909318D01*
X1532890Y845312D02*
Y860547D01*
X1540508D01*
X1543047Y858008D01*
Y852930D01*
X1540508Y850390D01*
X1532890D01*
X1537968D02*
X1543047Y845312D01*
X1548125Y858008D02*
X1550664Y860547D01*
X1555743D01*
X1558282Y858008D01*
Y855469D01*
X1555743Y852930D01*
X1553203D01*
X1555743D01*
X1558282Y850390D01*
Y847851D01*
X1555743Y845312D01*
X1550664D01*
X1548125Y847851D01*
X1563360D02*
X1565899Y845312D01*
X1570978D01*
X1573517Y847851D01*
Y858008D01*
X1570978Y860547D01*
X1565899D01*
X1563360Y858008D01*
Y855469D01*
X1565899Y852930D01*
X1573517D01*
X1489707Y722637D02*
X1474472D01*
Y730254D01*
X1477012Y732793D01*
X1482090D01*
X1484629Y730254D01*
Y722637D01*
Y727715D02*
X1489707Y732793D01*
X1477012Y737872D02*
X1474472Y740411D01*
Y745489D01*
X1477012Y748028D01*
X1479551D01*
X1482090Y745489D01*
Y742950D01*
Y745489D01*
X1484629Y748028D01*
X1487168D01*
X1489707Y745489D01*
Y740411D01*
X1487168Y737872D01*
X1477012Y753107D02*
X1474472Y755646D01*
Y760724D01*
X1477012Y763263D01*
X1479551D01*
X1482090Y760724D01*
X1484629Y763263D01*
X1487168D01*
X1489707Y760724D01*
Y755646D01*
X1487168Y753107D01*
X1484629D01*
X1482090Y755646D01*
X1479551Y753107D01*
X1477012D01*
X1482090Y755646D02*
Y760724D01*
X1248417Y937262D02*
Y952497D01*
X1256034D01*
X1258573Y949958D01*
Y944880D01*
X1256034Y942341D01*
X1248417D01*
X1253495D02*
X1258573Y937262D01*
X1263652Y949958D02*
X1266191Y952497D01*
X1271269D01*
X1273808Y949958D01*
Y947419D01*
X1271269Y944880D01*
X1268730D01*
X1271269D01*
X1273808Y942341D01*
Y939802D01*
X1271269Y937262D01*
X1266191D01*
X1263652Y939802D01*
X1278887Y952497D02*
X1289043D01*
Y949958D01*
X1278887Y939802D01*
Y937262D01*
X1487170Y915162D02*
Y930397D01*
X1494787D01*
X1497327Y927858D01*
Y922779D01*
X1494787Y920240D01*
X1487170D01*
X1492248D02*
X1497327Y915162D01*
X1502405Y927858D02*
X1504944Y930397D01*
X1510023D01*
X1512562Y927858D01*
Y925319D01*
X1510023Y922779D01*
X1507483D01*
X1510023D01*
X1512562Y920240D01*
Y917701D01*
X1510023Y915162D01*
X1504944D01*
X1502405Y917701D01*
X1527797Y930397D02*
X1522719Y927858D01*
X1517640Y922779D01*
Y917701D01*
X1520179Y915162D01*
X1525258D01*
X1527797Y917701D01*
Y920240D01*
X1525258Y922779D01*
X1517640D01*
X1248417Y976633D02*
Y991868D01*
X1256034D01*
X1258573Y989328D01*
Y984250D01*
X1256034Y981711D01*
X1248417D01*
X1253495D02*
X1258573Y976633D01*
X1263652Y989328D02*
X1266191Y991868D01*
X1271269D01*
X1273808Y989328D01*
Y986789D01*
X1271269Y984250D01*
X1268730D01*
X1271269D01*
X1273808Y981711D01*
Y979172D01*
X1271269Y976633D01*
X1266191D01*
X1263652Y979172D01*
X1289043Y991868D02*
X1278887D01*
Y984250D01*
X1283965Y986789D01*
X1286504D01*
X1289043Y984250D01*
Y979172D01*
X1286504Y976633D01*
X1281426D01*
X1278887Y979172D01*
X1248381Y1015987D02*
Y1031223D01*
X1255998D01*
X1258538Y1028683D01*
Y1023605D01*
X1255998Y1021066D01*
X1248381D01*
X1253459D02*
X1258538Y1015987D01*
X1263616Y1028683D02*
X1266155Y1031223D01*
X1271233D01*
X1273773Y1028683D01*
Y1026144D01*
X1271233Y1023605D01*
X1268694D01*
X1271233D01*
X1273773Y1021066D01*
Y1018527D01*
X1271233Y1015987D01*
X1266155D01*
X1263616Y1018527D01*
X1286468Y1015987D02*
Y1031223D01*
X1278851Y1023605D01*
X1289008D01*
X1618996Y1029970D02*
Y1045205D01*
X1626613D01*
X1629153Y1042666D01*
Y1037588D01*
X1626613Y1035048D01*
X1618996D01*
X1624074D02*
X1629153Y1029970D01*
X1634231Y1042666D02*
X1636770Y1045205D01*
X1641849D01*
X1644388Y1042666D01*
Y1040127D01*
X1641849Y1037588D01*
X1639309D01*
X1641849D01*
X1644388Y1035048D01*
Y1032509D01*
X1641849Y1029970D01*
X1636770D01*
X1634231Y1032509D01*
X1649466Y1042666D02*
X1652005Y1045205D01*
X1657084D01*
X1659623Y1042666D01*
Y1040127D01*
X1657084Y1037588D01*
X1654545D01*
X1657084D01*
X1659623Y1035048D01*
Y1032509D01*
X1657084Y1029970D01*
X1652005D01*
X1649466Y1032509D01*
X1248381Y1054088D02*
Y1069323D01*
X1255998D01*
X1258538Y1066783D01*
Y1061705D01*
X1255998Y1059166D01*
X1248381D01*
X1253459D02*
X1258538Y1054088D01*
X1263616Y1066783D02*
X1266155Y1069323D01*
X1271233D01*
X1273773Y1066783D01*
Y1064244D01*
X1271233Y1061705D01*
X1268694D01*
X1271233D01*
X1273773Y1059166D01*
Y1056627D01*
X1271233Y1054088D01*
X1266155D01*
X1263616Y1056627D01*
X1289008Y1054088D02*
X1278851D01*
X1289008Y1064244D01*
Y1066783D01*
X1286468Y1069323D01*
X1281390D01*
X1278851Y1066783D01*
X1253460Y1092188D02*
Y1107422D01*
X1261077D01*
X1263617Y1104883D01*
Y1099805D01*
X1261077Y1097266D01*
X1253460D01*
X1258538D02*
X1263617Y1092188D01*
X1268695Y1104883D02*
X1271234Y1107422D01*
X1276313D01*
X1278852Y1104883D01*
Y1102344D01*
X1276313Y1099805D01*
X1273773D01*
X1276313D01*
X1278852Y1097266D01*
Y1094727D01*
X1276313Y1092188D01*
X1271234D01*
X1268695Y1094727D01*
X1283930Y1092188D02*
X1289008D01*
X1286469D01*
Y1107422D01*
X1283930Y1104883D01*
X1676146Y1062990D02*
Y1078225D01*
X1683763D01*
X1686303Y1075686D01*
Y1070608D01*
X1683763Y1068068D01*
X1676146D01*
X1681224D02*
X1686303Y1062990D01*
X1691381Y1075686D02*
X1693920Y1078225D01*
X1698999D01*
X1701538Y1075686D01*
Y1073147D01*
X1698999Y1070608D01*
X1696459D01*
X1698999D01*
X1701538Y1068068D01*
Y1065529D01*
X1698999Y1062990D01*
X1693920D01*
X1691381Y1065529D01*
X1706616Y1075686D02*
X1709155Y1078225D01*
X1714234D01*
X1716773Y1075686D01*
Y1065529D01*
X1714234Y1062990D01*
X1709155D01*
X1706616Y1065529D01*
Y1075686D01*
X1393197Y1196342D02*
Y1211578D01*
X1400814D01*
X1403353Y1209038D01*
Y1203960D01*
X1400814Y1201421D01*
X1393197D01*
X1398275D02*
X1403353Y1196342D01*
X1418588D02*
X1408432D01*
X1418588Y1206499D01*
Y1209038D01*
X1416049Y1211578D01*
X1410971D01*
X1408432Y1209038D01*
X1423667D02*
X1426206Y1211578D01*
X1431284D01*
X1433823Y1209038D01*
Y1206499D01*
X1431284Y1203960D01*
X1433823Y1201421D01*
Y1198882D01*
X1431284Y1196342D01*
X1426206D01*
X1423667Y1198882D01*
Y1201421D01*
X1426206Y1203960D01*
X1423667Y1206499D01*
Y1209038D01*
X1426206Y1203960D02*
X1431284D01*
X1638307Y1216663D02*
Y1231898D01*
X1645924D01*
X1648463Y1229358D01*
Y1224280D01*
X1645924Y1221741D01*
X1638307D01*
X1643385D02*
X1648463Y1216663D01*
X1663698D02*
X1653542D01*
X1663698Y1226819D01*
Y1229358D01*
X1661159Y1231898D01*
X1656081D01*
X1653542Y1229358D01*
X1668777Y1231898D02*
X1678933D01*
Y1229358D01*
X1668777Y1219202D01*
Y1216663D01*
X1651006Y678183D02*
Y693418D01*
X1658624D01*
X1661163Y690878D01*
Y685800D01*
X1658624Y683261D01*
X1651006D01*
X1666241Y678183D02*
X1671320D01*
X1668780D01*
Y693418D01*
X1666241Y690878D01*
X1689094Y678183D02*
X1678937D01*
X1689094Y688339D01*
Y690878D01*
X1686555Y693418D01*
X1681476D01*
X1678937Y690878D01*
X1125982Y1171448D02*
Y1186683D01*
X1133599D01*
X1136139Y1184144D01*
Y1179065D01*
X1133599Y1176526D01*
X1125982D01*
X1141217Y1171448D02*
X1146295D01*
X1143756D01*
Y1186683D01*
X1141217Y1184144D01*
X1153913Y1171448D02*
X1158991D01*
X1156452D01*
Y1186683D01*
X1153913Y1184144D01*
X1788922Y993902D02*
Y1009137D01*
X1796539D01*
X1799079Y1006598D01*
Y1001519D01*
X1796539Y998980D01*
X1788922D01*
X1804157Y993902D02*
X1809235D01*
X1806696D01*
Y1009137D01*
X1804157Y1006598D01*
X1816853D02*
X1819392Y1009137D01*
X1824471D01*
X1827010Y1006598D01*
Y996441D01*
X1824471Y993902D01*
X1819392D01*
X1816853Y996441D01*
Y1006598D01*
X1790192Y1175512D02*
Y1190747D01*
X1797809D01*
X1800349Y1188208D01*
Y1183130D01*
X1797809Y1180590D01*
X1790192D01*
X1805427Y1178051D02*
X1807966Y1175512D01*
X1813045D01*
X1815584Y1178051D01*
Y1188208D01*
X1813045Y1190747D01*
X1807966D01*
X1805427Y1188208D01*
Y1185669D01*
X1807966Y1183130D01*
X1815584D01*
X1499867Y697225D02*
X1494788D01*
X1497328D01*
Y684529D01*
X1494788Y681990D01*
X1492249D01*
X1489710Y684529D01*
X1504945Y681990D02*
X1510023D01*
X1507484D01*
Y697225D01*
X1504945Y694686D01*
X1616716Y1002028D02*
Y986793D01*
X1624334D01*
X1626873Y989332D01*
Y999488D01*
X1624334Y1002028D01*
X1616716D01*
X1631951Y986793D02*
X1637030D01*
X1634490D01*
Y1002028D01*
X1631951Y999488D01*
X1654804Y986793D02*
X1644647D01*
X1654804Y996949D01*
Y999488D01*
X1652265Y1002028D01*
X1647186D01*
X1644647Y999488D01*
X1689105Y1024887D02*
Y1009652D01*
X1696723D01*
X1699262Y1012192D01*
Y1022348D01*
X1696723Y1024887D01*
X1689105D01*
X1704340Y1009652D02*
X1709419D01*
X1706880D01*
Y1024887D01*
X1704340Y1022348D01*
X1717036Y1009652D02*
X1722115D01*
X1719576D01*
Y1024887D01*
X1717036Y1022348D01*
X1617986Y919477D02*
Y904242D01*
X1625604D01*
X1628143Y906782D01*
Y916938D01*
X1625604Y919477D01*
X1617986D01*
X1633221Y904242D02*
X1638300D01*
X1635760D01*
Y919477D01*
X1633221Y916938D01*
X1645917D02*
X1648456Y919477D01*
X1653535D01*
X1656074Y916938D01*
Y906782D01*
X1653535Y904242D01*
X1648456D01*
X1645917Y906782D01*
Y916938D01*
X1701804Y948688D02*
Y933453D01*
X1709422D01*
X1711961Y935992D01*
Y946148D01*
X1709422Y948688D01*
X1701804D01*
X1717039Y935992D02*
X1719578Y933453D01*
X1724657D01*
X1727196Y935992D01*
Y946148D01*
X1724657Y948688D01*
X1719578D01*
X1717039Y946148D01*
Y943609D01*
X1719578Y941070D01*
X1727196D01*
X1286256Y1214115D02*
Y1198880D01*
X1293873D01*
X1296413Y1201419D01*
Y1211576D01*
X1293873Y1214115D01*
X1286256D01*
X1301491Y1211576D02*
X1304030Y1214115D01*
X1309109D01*
X1311648Y1211576D01*
Y1209037D01*
X1309109Y1206497D01*
X1311648Y1203958D01*
Y1201419D01*
X1309109Y1198880D01*
X1304030D01*
X1301491Y1201419D01*
Y1203958D01*
X1304030Y1206497D01*
X1301491Y1209037D01*
Y1211576D01*
X1304030Y1206497D02*
X1309109D01*
X1709699Y1206943D02*
Y1191708D01*
X1717317D01*
X1719856Y1194247D01*
Y1204403D01*
X1717317Y1206943D01*
X1709699D01*
X1724934D02*
X1735091D01*
Y1204403D01*
X1724934Y1194247D01*
Y1191708D01*
X1358902Y688343D02*
X1356362Y685804D01*
Y680726D01*
X1358902Y678187D01*
X1369058D01*
X1371597Y680726D01*
Y685804D01*
X1369058Y688343D01*
X1358902Y693422D02*
X1356362Y695961D01*
Y701039D01*
X1358902Y703578D01*
X1361441D01*
X1363980Y701039D01*
Y698500D01*
Y701039D01*
X1366519Y703578D01*
X1369058D01*
X1371597Y701039D01*
Y695961D01*
X1369058Y693422D01*
X1371597Y718813D02*
Y708657D01*
X1361441Y718813D01*
X1358902D01*
X1356362Y716274D01*
Y711196D01*
X1358902Y708657D01*
X1336008Y654052D02*
X1338547Y651512D01*
X1343625D01*
X1346164Y654052D01*
Y664208D01*
X1343625Y666748D01*
X1338547D01*
X1336008Y664208D01*
X1330929Y654052D02*
X1328390Y651512D01*
X1323312D01*
X1320772Y654052D01*
Y656591D01*
X1323312Y659130D01*
X1325851D01*
X1323312D01*
X1320772Y661669D01*
Y664208D01*
X1323312Y666748D01*
X1328390D01*
X1330929Y664208D01*
X1315694Y666748D02*
X1310616D01*
X1313155D01*
Y651512D01*
X1315694Y654052D01*
X1358902Y737873D02*
X1356362Y735334D01*
Y730256D01*
X1358902Y727717D01*
X1369058D01*
X1371597Y730256D01*
Y735334D01*
X1369058Y737873D01*
X1358902Y742952D02*
X1356362Y745491D01*
Y750569D01*
X1358902Y753108D01*
X1361441D01*
X1363980Y750569D01*
Y748030D01*
Y750569D01*
X1366519Y753108D01*
X1369058D01*
X1371597Y750569D01*
Y745491D01*
X1369058Y742952D01*
X1358902Y758187D02*
X1356362Y760726D01*
Y765804D01*
X1358902Y768343D01*
X1369058D01*
X1371597Y765804D01*
Y760726D01*
X1369058Y758187D01*
X1358902D01*
Y787403D02*
X1356362Y784864D01*
Y779786D01*
X1358902Y777247D01*
X1369058D01*
X1371597Y779786D01*
Y784864D01*
X1369058Y787403D01*
X1371597Y802638D02*
Y792482D01*
X1361441Y802638D01*
X1358902D01*
X1356362Y800099D01*
Y795021D01*
X1358902Y792482D01*
X1369058Y807717D02*
X1371597Y810256D01*
Y815334D01*
X1369058Y817873D01*
X1358902D01*
X1356362Y815334D01*
Y810256D01*
X1358902Y807717D01*
X1361441D01*
X1363980Y810256D01*
Y817873D01*
X1358902Y836933D02*
X1356362Y834394D01*
Y829316D01*
X1358902Y826777D01*
X1369058D01*
X1371597Y829316D01*
Y834394D01*
X1369058Y836933D01*
X1371597Y852168D02*
Y842012D01*
X1361441Y852168D01*
X1358902D01*
X1356362Y849629D01*
Y844551D01*
X1358902Y842012D01*
Y857247D02*
X1356362Y859786D01*
Y864864D01*
X1358902Y867403D01*
X1361441D01*
X1363980Y864864D01*
X1366519Y867403D01*
X1369058D01*
X1371597Y864864D01*
Y859786D01*
X1369058Y857247D01*
X1366519D01*
X1363980Y859786D01*
X1361441Y857247D01*
X1358902D01*
X1363980Y859786D02*
Y864864D01*
X1480823Y786128D02*
X1478284Y788668D01*
X1473206D01*
X1470667Y786128D01*
Y775972D01*
X1473206Y773432D01*
X1478284D01*
X1480823Y775972D01*
X1496058Y773432D02*
X1485902D01*
X1496058Y783589D01*
Y786128D01*
X1493519Y788668D01*
X1488441D01*
X1485902Y786128D01*
X1501137Y788668D02*
X1511293D01*
Y786128D01*
X1501137Y775972D01*
Y773432D01*
X1473203Y843278D02*
X1470664Y845817D01*
X1465586D01*
X1463047Y843278D01*
Y833122D01*
X1465586Y830583D01*
X1470664D01*
X1473203Y833122D01*
X1488438Y830583D02*
X1478282D01*
X1488438Y840739D01*
Y843278D01*
X1485899Y845817D01*
X1480821D01*
X1478282Y843278D01*
X1503673Y845817D02*
X1498595Y843278D01*
X1493517Y838200D01*
Y833122D01*
X1496056Y830583D01*
X1501134D01*
X1503673Y833122D01*
Y835661D01*
X1501134Y838200D01*
X1493517D01*
X1422373Y908048D02*
X1419834Y910587D01*
X1414756D01*
X1412217Y908048D01*
Y897892D01*
X1414756Y895352D01*
X1419834D01*
X1422373Y897892D01*
X1437608Y895352D02*
X1427452D01*
X1437608Y905509D01*
Y908048D01*
X1435069Y910587D01*
X1429991D01*
X1427452Y908048D01*
X1452843Y910587D02*
X1442687D01*
Y902970D01*
X1447765Y905509D01*
X1450304D01*
X1452843Y902970D01*
Y897892D01*
X1450304Y895352D01*
X1445226D01*
X1442687Y897892D01*
X1358902Y886463D02*
X1356362Y883924D01*
Y878846D01*
X1358902Y876307D01*
X1369058D01*
X1371597Y878846D01*
Y883924D01*
X1369058Y886463D01*
X1371597Y901698D02*
Y891542D01*
X1361441Y901698D01*
X1358902D01*
X1356362Y899159D01*
Y894081D01*
X1358902Y891542D01*
X1371597Y914394D02*
X1356362D01*
X1363980Y906777D01*
Y916933D01*
X1358902Y935993D02*
X1356362Y933454D01*
Y928376D01*
X1358902Y925837D01*
X1369058D01*
X1371597Y928376D01*
Y933454D01*
X1369058Y935993D01*
X1371597Y951228D02*
Y941072D01*
X1361441Y951228D01*
X1358902D01*
X1356362Y948689D01*
Y943611D01*
X1358902Y941072D01*
Y956307D02*
X1356362Y958846D01*
Y963924D01*
X1358902Y966463D01*
X1361441D01*
X1363980Y963924D01*
Y961385D01*
Y963924D01*
X1366519Y966463D01*
X1369058D01*
X1371597Y963924D01*
Y958846D01*
X1369058Y956307D01*
X1357632Y984253D02*
X1355092Y981714D01*
Y976636D01*
X1357632Y974097D01*
X1367788D01*
X1370327Y976636D01*
Y981714D01*
X1367788Y984253D01*
X1370327Y999488D02*
Y989332D01*
X1360171Y999488D01*
X1357632D01*
X1355092Y996949D01*
Y991871D01*
X1357632Y989332D01*
X1370327Y1014723D02*
Y1004567D01*
X1360171Y1014723D01*
X1357632D01*
X1355092Y1012184D01*
Y1007106D01*
X1357632Y1004567D01*
X1582422Y1066798D02*
X1579883Y1069337D01*
X1574805D01*
X1572266Y1066798D01*
Y1056642D01*
X1574805Y1054102D01*
X1579883D01*
X1582422Y1056642D01*
X1597658Y1054102D02*
X1587501D01*
X1597658Y1064259D01*
Y1066798D01*
X1595118Y1069337D01*
X1590040D01*
X1587501Y1066798D01*
X1602736Y1054102D02*
X1607814D01*
X1605275D01*
Y1069337D01*
X1602736Y1066798D01*
X1357632Y1032513D02*
X1355092Y1029974D01*
Y1024896D01*
X1357632Y1022357D01*
X1367788D01*
X1370327Y1024896D01*
Y1029974D01*
X1367788Y1032513D01*
X1370327Y1047748D02*
Y1037592D01*
X1360171Y1047748D01*
X1357632D01*
X1355092Y1045209D01*
Y1040131D01*
X1357632Y1037592D01*
Y1052827D02*
X1355092Y1055366D01*
Y1060444D01*
X1357632Y1062983D01*
X1367788D01*
X1370327Y1060444D01*
Y1055366D01*
X1367788Y1052827D01*
X1357632D01*
X1579883Y1097278D02*
X1577344Y1099818D01*
X1572265D01*
X1569726Y1097278D01*
Y1087122D01*
X1572265Y1084583D01*
X1577344D01*
X1579883Y1087122D01*
X1584961Y1084583D02*
X1590040D01*
X1587500D01*
Y1099818D01*
X1584961Y1097278D01*
X1597657Y1087122D02*
X1600196Y1084583D01*
X1605275D01*
X1607814Y1087122D01*
Y1097278D01*
X1605275Y1099818D01*
X1600196D01*
X1597657Y1097278D01*
Y1094739D01*
X1600196Y1092200D01*
X1607814D01*
X1623057Y1153664D02*
X1620517Y1156203D01*
X1615439D01*
X1612900Y1153664D01*
Y1143507D01*
X1615439Y1140968D01*
X1620517D01*
X1623057Y1143507D01*
X1628135Y1140968D02*
X1633213D01*
X1630674D01*
Y1156203D01*
X1628135Y1153664D01*
X1640831D02*
X1643370Y1156203D01*
X1648448D01*
X1650988Y1153664D01*
Y1151125D01*
X1648448Y1148586D01*
X1650988Y1146046D01*
Y1143507D01*
X1648448Y1140968D01*
X1643370D01*
X1640831Y1143507D01*
Y1146046D01*
X1643370Y1148586D01*
X1640831Y1151125D01*
Y1153664D01*
X1643370Y1148586D02*
X1648448D01*
X1357632Y1083313D02*
X1355092Y1080774D01*
Y1075695D01*
X1357632Y1073156D01*
X1367788D01*
X1370327Y1075695D01*
Y1080774D01*
X1367788Y1083313D01*
X1370327Y1088391D02*
Y1093470D01*
Y1090930D01*
X1355092D01*
X1357632Y1088391D01*
X1355092Y1101087D02*
Y1111244D01*
X1357632D01*
X1367788Y1101087D01*
X1370327D01*
X1357632Y1134113D02*
X1355092Y1131574D01*
Y1126495D01*
X1357632Y1123956D01*
X1367788D01*
X1370327Y1126495D01*
Y1131574D01*
X1367788Y1134113D01*
X1370327Y1139191D02*
Y1144270D01*
Y1141730D01*
X1355092D01*
X1357632Y1139191D01*
X1355092Y1162044D02*
X1357632Y1156965D01*
X1362710Y1151887D01*
X1367788D01*
X1370327Y1154426D01*
Y1159505D01*
X1367788Y1162044D01*
X1365249D01*
X1362710Y1159505D01*
Y1151887D01*
X1514345Y985516D02*
X1511806Y988055D01*
X1506727D01*
X1504188Y985516D01*
Y975359D01*
X1506727Y972820D01*
X1511806D01*
X1514345Y975359D01*
X1519423Y972820D02*
X1524501D01*
X1521962D01*
Y988055D01*
X1519423Y985516D01*
X1542276Y988055D02*
X1532119D01*
Y980437D01*
X1537197Y982977D01*
X1539736D01*
X1542276Y980437D01*
Y975359D01*
X1539736Y972820D01*
X1534658D01*
X1532119Y975359D01*
X1577343Y1203958D02*
X1574804Y1206497D01*
X1569725D01*
X1567186Y1203958D01*
Y1193802D01*
X1569725Y1191263D01*
X1574804D01*
X1577343Y1193802D01*
X1582421Y1191263D02*
X1587500D01*
X1584960D01*
Y1206497D01*
X1582421Y1203958D01*
X1602735Y1191263D02*
Y1206497D01*
X1595117Y1198880D01*
X1605274D01*
X1308103Y1260808D02*
X1305564Y1263347D01*
X1300485D01*
X1297946Y1260808D01*
Y1250652D01*
X1300485Y1248112D01*
X1305564D01*
X1308103Y1250652D01*
X1313181Y1248112D02*
X1318260D01*
X1315720D01*
Y1263347D01*
X1313181Y1260808D01*
X1325877D02*
X1328416Y1263347D01*
X1333495D01*
X1336034Y1260808D01*
Y1258269D01*
X1333495Y1255730D01*
X1330956D01*
X1333495D01*
X1336034Y1253191D01*
Y1250652D01*
X1333495Y1248112D01*
X1328416D01*
X1325877Y1250652D01*
X1445765Y1208528D02*
X1443226Y1211067D01*
X1438147D01*
X1435608Y1208528D01*
Y1198371D01*
X1438147Y1195832D01*
X1443226D01*
X1445765Y1198371D01*
X1450843Y1195832D02*
X1455921D01*
X1453382D01*
Y1211067D01*
X1450843Y1208528D01*
X1473696Y1195832D02*
X1463539D01*
X1473696Y1205989D01*
Y1208528D01*
X1471156Y1211067D01*
X1466078D01*
X1463539Y1208528D01*
X1379222Y1261108D02*
X1376683Y1263648D01*
X1371604D01*
X1369065Y1261108D01*
Y1250952D01*
X1371604Y1248412D01*
X1376683D01*
X1379222Y1250952D01*
X1384300Y1248412D02*
X1389379D01*
X1386840D01*
Y1263648D01*
X1384300Y1261108D01*
X1396996Y1248412D02*
X1402075D01*
X1399536D01*
Y1263648D01*
X1396996Y1261108D01*
X944881Y824228D02*
X942342Y826768D01*
X937263D01*
X934724Y824228D01*
Y814072D01*
X937263Y811533D01*
X942342D01*
X944881Y814072D01*
X960116Y826768D02*
X949959D01*
Y819150D01*
X955038Y821689D01*
X957577D01*
X960116Y819150D01*
Y814072D01*
X957577Y811533D01*
X952498D01*
X949959Y814072D01*
X889003Y764536D02*
X904238D01*
Y756918D01*
X901698Y754379D01*
X896620D01*
X894081Y756918D01*
Y764536D01*
Y759457D02*
X889003Y754379D01*
X904238Y739144D02*
X901698Y744222D01*
X896620Y749301D01*
X891542D01*
X889003Y746762D01*
Y741683D01*
X891542Y739144D01*
X894081D01*
X896620Y741683D01*
Y749301D01*
X607064Y797562D02*
Y812797D01*
X614682D01*
X617221Y810258D01*
Y805180D01*
X614682Y802641D01*
X607064D01*
X622299Y812797D02*
X632456D01*
Y810258D01*
X622299Y800102D01*
Y797562D01*
X970286Y811533D02*
Y826768D01*
X977904D01*
X980443Y824228D01*
Y819150D01*
X977904Y816611D01*
X970286D01*
X975365D02*
X980443Y811533D01*
X985521D02*
X990600D01*
X988060D01*
Y826768D01*
X985521Y824228D01*
X1005835Y811533D02*
Y826768D01*
X998217Y819150D01*
X1008374D01*
X1033783Y894074D02*
X1049018D01*
Y886456D01*
X1046478Y883917D01*
X1041400D01*
X1038861Y886456D01*
Y894074D01*
Y888996D02*
X1033783Y883917D01*
Y878839D02*
Y873760D01*
Y876300D01*
X1049018D01*
X1046478Y878839D01*
Y866143D02*
X1049018Y863604D01*
Y858525D01*
X1046478Y855986D01*
X1043939D01*
X1041400Y858525D01*
Y861065D01*
Y858525D01*
X1038861Y855986D01*
X1036322D01*
X1033783Y858525D01*
Y863604D01*
X1036322Y866143D01*
X889006Y811533D02*
Y826768D01*
X896624D01*
X899163Y824228D01*
Y819150D01*
X896624Y816611D01*
X889006D01*
X894084D02*
X899163Y811533D01*
X904241D02*
X909320D01*
X906780D01*
Y826768D01*
X904241Y824228D01*
X927094Y811533D02*
X916937D01*
X927094Y821689D01*
Y824228D01*
X924555Y826768D01*
X919476D01*
X916937Y824228D01*
X855985Y652783D02*
Y668018D01*
X863603D01*
X866142Y665478D01*
Y660400D01*
X863603Y657861D01*
X855985D01*
X861064D02*
X866142Y652783D01*
X871220D02*
X876299D01*
X873760D01*
Y668018D01*
X871220Y665478D01*
X883916Y652783D02*
X888995D01*
X886456D01*
Y668018D01*
X883916Y665478D01*
X962666Y887732D02*
Y902968D01*
X970284D01*
X972823Y900428D01*
Y895350D01*
X970284Y892811D01*
X962666D01*
X967745D02*
X972823Y887732D01*
X977901D02*
X982980D01*
X980440D01*
Y902968D01*
X977901Y900428D01*
X990597D02*
X993136Y902968D01*
X998215D01*
X1000754Y900428D01*
Y890272D01*
X998215Y887732D01*
X993136D01*
X990597Y890272D01*
Y900428D01*
X1041403Y662936D02*
X1056637D01*
Y655318D01*
X1054098Y652779D01*
X1049020D01*
X1046481Y655318D01*
Y662936D01*
X1056637Y637544D02*
X1054098Y642623D01*
X1049020Y647701D01*
X1043942D01*
X1041403Y645162D01*
Y640083D01*
X1043942Y637544D01*
X1046481D01*
X1049020Y640083D01*
Y647701D01*
X1005332Y1053592D02*
Y1068827D01*
X1012950D01*
X1015489Y1066288D01*
Y1061209D01*
X1012950Y1058670D01*
X1005332D01*
X1030724Y1068827D02*
X1020567D01*
Y1061209D01*
X1025645Y1063749D01*
X1028185D01*
X1030724Y1061209D01*
Y1056131D01*
X1028185Y1053592D01*
X1023106D01*
X1020567Y1056131D01*
X633734Y638812D02*
Y654047D01*
X641352D01*
X643891Y651508D01*
Y646430D01*
X641352Y643891D01*
X633734D01*
X656587Y638812D02*
Y654047D01*
X648969Y646430D01*
X659126D01*
X1031244Y803913D02*
Y819147D01*
X1038862D01*
X1041401Y816608D01*
Y811530D01*
X1038862Y808991D01*
X1031244D01*
X1046479Y816608D02*
X1049018Y819147D01*
X1054097D01*
X1056636Y816608D01*
Y814069D01*
X1054097Y811530D01*
X1051557D01*
X1054097D01*
X1056636Y808991D01*
Y806452D01*
X1054097Y803913D01*
X1049018D01*
X1046479Y806452D01*
X722634Y666752D02*
Y681988D01*
X730252D01*
X732791Y679448D01*
Y674370D01*
X730252Y671831D01*
X722634D01*
X727712D02*
X732791Y666752D01*
X745487D02*
Y681988D01*
X737869Y674370D01*
X748026D01*
X647703Y951227D02*
X657860Y935993D01*
Y951227D02*
X647703Y935993D01*
X662938D02*
X668017D01*
X665478D01*
Y951227D01*
X662938Y948688D01*
X759464Y806448D02*
Y793752D01*
X762003Y791212D01*
X767082D01*
X769621Y793752D01*
Y806448D01*
X784856Y791212D02*
X774699D01*
X784856Y801369D01*
Y803908D01*
X782317Y806448D01*
X777238D01*
X774699Y803908D01*
X744223Y937258D02*
Y924562D01*
X746762Y922022D01*
X751841D01*
X754380Y924562D01*
Y937258D01*
X759458Y922022D02*
X764537D01*
X761998D01*
Y937258D01*
X759458Y934718D01*
X877572Y802636D02*
X892807D01*
Y795018D01*
X890268Y792479D01*
X885190D01*
X882651Y795018D01*
Y802636D01*
Y797558D02*
X877572Y792479D01*
X880112Y787401D02*
X877572Y784862D01*
Y779783D01*
X880112Y777244D01*
X890268D01*
X892807Y779783D01*
Y784862D01*
X890268Y787401D01*
X887729D01*
X885190Y784862D01*
Y777244D01*
X967744Y948692D02*
Y963928D01*
X975362D01*
X977901Y961388D01*
Y956310D01*
X975362Y953771D01*
X967744D01*
X972822D02*
X977901Y948692D01*
X982979Y961388D02*
X985518Y963928D01*
X990597D01*
X993136Y961388D01*
Y958849D01*
X990597Y956310D01*
X993136Y953771D01*
Y951232D01*
X990597Y948692D01*
X985518D01*
X982979Y951232D01*
Y953771D01*
X985518Y956310D01*
X982979Y958849D01*
Y961388D01*
X985518Y956310D02*
X990597D01*
X914965Y883923D02*
Y899157D01*
X922582D01*
X925122Y896618D01*
Y891540D01*
X922582Y889001D01*
X914965D01*
X920043D02*
X925122Y883923D01*
X930200Y899157D02*
X940357D01*
Y896618D01*
X930200Y886462D01*
Y883923D01*
X928374Y946152D02*
Y961387D01*
X935992D01*
X938531Y958848D01*
Y953770D01*
X935992Y951231D01*
X928374D01*
X933453D02*
X938531Y946152D01*
X953766Y961387D02*
X943609D01*
Y953770D01*
X948688Y956309D01*
X951227D01*
X953766Y953770D01*
Y948692D01*
X951227Y946152D01*
X946148D01*
X943609Y948692D01*
X736604Y822962D02*
Y838197D01*
X744222D01*
X746761Y835658D01*
Y830580D01*
X744222Y828041D01*
X736604D01*
X741683D02*
X746761Y822962D01*
X751839Y835658D02*
X754378Y838197D01*
X759457D01*
X761996Y835658D01*
Y833119D01*
X759457Y830580D01*
X756917D01*
X759457D01*
X761996Y828041D01*
Y825502D01*
X759457Y822962D01*
X754378D01*
X751839Y825502D01*
X791214Y969013D02*
Y984248D01*
X798832D01*
X801371Y981708D01*
Y976630D01*
X798832Y974091D01*
X791214D01*
X796292D02*
X801371Y969013D01*
X816606D02*
X806449D01*
X816606Y979169D01*
Y981708D01*
X814067Y984248D01*
X808988D01*
X806449Y981708D01*
X704853Y951233D02*
Y966468D01*
X712471D01*
X715010Y963928D01*
Y958850D01*
X712471Y956311D01*
X704853D01*
X709932D02*
X715010Y951233D01*
X720088D02*
X725167D01*
X722628D01*
Y966468D01*
X720088Y963928D01*
X605794Y1016003D02*
Y1031237D01*
X613412D01*
X615951Y1028698D01*
Y1023620D01*
X613412Y1021081D01*
X605794D01*
X631186Y1016003D02*
X621029D01*
X631186Y1026159D01*
Y1028698D01*
X628647Y1031237D01*
X623568D01*
X621029Y1028698D01*
X935993Y1016003D02*
Y1031237D01*
X943611D01*
X946150Y1028698D01*
Y1023620D01*
X943611Y1021081D01*
X935993D01*
X951228Y1016003D02*
X956307D01*
X953768D01*
Y1031237D01*
X951228Y1028698D01*
X709931Y740408D02*
X707392Y742947D01*
X702313D01*
X699774Y740408D01*
Y730252D01*
X702313Y727712D01*
X707392D01*
X709931Y730252D01*
X725166Y742947D02*
X720088Y740408D01*
X715009Y735330D01*
Y730252D01*
X717548Y727712D01*
X722627D01*
X725166Y730252D01*
Y732791D01*
X722627Y735330D01*
X715009D01*
X899161Y734058D02*
X896622Y736598D01*
X891543D01*
X889004Y734058D01*
Y723902D01*
X891543Y721363D01*
X896622D01*
X899161Y723902D01*
X911857Y721363D02*
Y736598D01*
X904239Y728980D01*
X914396D01*
X618492Y836931D02*
X615952Y834392D01*
Y829313D01*
X618492Y826774D01*
X628648D01*
X631188Y829313D01*
Y834392D01*
X628648Y836931D01*
X618492Y842009D02*
X615952Y844548D01*
Y849627D01*
X618492Y852166D01*
X621031D01*
X623570Y849627D01*
Y847087D01*
Y849627D01*
X626109Y852166D01*
X628648D01*
X631188Y849627D01*
Y844548D01*
X628648Y842009D01*
X617222Y892811D02*
X614683Y890272D01*
Y885193D01*
X617222Y882654D01*
X627378D01*
X629917Y885193D01*
Y890272D01*
X627378Y892811D01*
X629917Y908046D02*
Y897889D01*
X619761Y908046D01*
X617222D01*
X614683Y905507D01*
Y900428D01*
X617222Y897889D01*
X932180Y982978D02*
X929641Y985518D01*
X924563D01*
X922023Y982978D01*
Y972822D01*
X924563Y970283D01*
X929641D01*
X932180Y972822D01*
X937258Y970283D02*
X942337D01*
X939798D01*
Y985518D01*
X937258Y982978D01*
D16*
X1702560Y997265D02*
D03*
X1631950Y973135D02*
D03*
M02*
