G04*
G04 #@! TF.GenerationSoftware,Altium Limited,Altium Designer,25.2.1 (25)*
G04*
G04 Layer_Color=16711935*
%FSLAX44Y44*%
%MOMM*%
G71*
G04*
G04 #@! TF.SameCoordinates,F4FED96F-6736-4451-9F0E-EDF3A1B2C77D*
G04*
G04*
G04 #@! TF.FilePolarity,Negative*
G04*
G01*
G75*
%ADD21R,1.7062X1.2034*%
%ADD32R,1.6582X0.9561*%
%ADD42R,0.9561X1.6582*%
%ADD49R,0.9032X1.4032*%
%ADD54R,1.9032X1.2532*%
%ADD61C,1.8032*%
G04:AMPARAMS|DCode=62|XSize=1.8032mm|YSize=1.8032mm|CornerRadius=0.5016mm|HoleSize=0mm|Usage=FLASHONLY|Rotation=270.000|XOffset=0mm|YOffset=0mm|HoleType=Round|Shape=RoundedRectangle|*
%AMROUNDEDRECTD62*
21,1,1.8032,0.8000,0,0,270.0*
21,1,0.8000,1.8032,0,0,270.0*
1,1,1.0032,-0.4000,-0.4000*
1,1,1.0032,-0.4000,0.4000*
1,1,1.0032,0.4000,0.4000*
1,1,1.0032,0.4000,-0.4000*
%
%ADD62ROUNDEDRECTD62*%
%ADD63C,2.3032*%
G04:AMPARAMS|DCode=64|XSize=2.3032mm|YSize=2.3032mm|CornerRadius=0.6266mm|HoleSize=0mm|Usage=FLASHONLY|Rotation=270.000|XOffset=0mm|YOffset=0mm|HoleType=Round|Shape=RoundedRectangle|*
%AMROUNDEDRECTD64*
21,1,2.3032,1.0500,0,0,270.0*
21,1,1.0500,2.3032,0,0,270.0*
1,1,1.2532,-0.5250,-0.5250*
1,1,1.2532,-0.5250,0.5250*
1,1,1.2532,0.5250,0.5250*
1,1,1.2532,0.5250,-0.5250*
%
%ADD64ROUNDEDRECTD64*%
G04:AMPARAMS|DCode=65|XSize=1.8032mm|YSize=1.8032mm|CornerRadius=0.5016mm|HoleSize=0mm|Usage=FLASHONLY|Rotation=180.000|XOffset=0mm|YOffset=0mm|HoleType=Round|Shape=RoundedRectangle|*
%AMROUNDEDRECTD65*
21,1,1.8032,0.8000,0,0,180.0*
21,1,0.8000,1.8032,0,0,180.0*
1,1,1.0032,-0.4000,0.4000*
1,1,1.0032,0.4000,0.4000*
1,1,1.0032,0.4000,-0.4000*
1,1,1.0032,-0.4000,-0.4000*
%
%ADD65ROUNDEDRECTD65*%
%ADD66R,1.1500X1.1500*%
%ADD67C,1.1500*%
%ADD68C,1.5700*%
%ADD69R,1.5700X1.5700*%
%ADD70R,1.7032X1.7032*%
%ADD71C,1.7032*%
%ADD72C,0.7112*%
%ADD73C,1.4732*%
%ADD100R,1.6621X1.0581*%
%ADD102R,1.0581X1.7121*%
%ADD104R,1.7121X1.0581*%
%ADD105R,1.3720X0.7100*%
%ADD106C,3.4342*%
%ADD107R,1.2034X1.7062*%
%ADD108R,0.7100X1.3720*%
%ADD111R,1.4232X1.1132*%
%ADD112R,1.4032X0.6032*%
%ADD113R,1.1532X1.1032*%
%ADD114R,1.1132X1.4232*%
G36*
X1355935Y1148975D02*
X1350035D01*
Y1143375D01*
X1355935D01*
Y1136275D01*
X1350035D01*
Y1130675D01*
X1355935D01*
Y1123575D01*
X1350035D01*
Y1117975D01*
X1355935D01*
Y1110875D01*
X1311535D01*
Y1156075D01*
X1355935D01*
Y1148975D01*
D02*
G37*
G36*
X1448175Y1115955D02*
X1402975D01*
Y1160355D01*
X1410075D01*
Y1154455D01*
X1415675D01*
Y1160355D01*
X1422775D01*
Y1154455D01*
X1428375D01*
Y1160355D01*
X1435475D01*
Y1154455D01*
X1441075D01*
Y1160355D01*
X1448175D01*
Y1115955D01*
D02*
G37*
D21*
X1629410Y1186484D02*
D03*
Y1160476D02*
D03*
X1714500D02*
D03*
Y1186484D02*
D03*
D32*
X1308100Y906928D02*
D03*
Y933450D02*
D03*
X1341120Y906219D02*
D03*
Y932741D02*
D03*
D42*
X1500579Y1102360D02*
D03*
X1527101D02*
D03*
X1389941Y1186180D02*
D03*
X1363419D02*
D03*
X1551379Y1093470D02*
D03*
X1577901D02*
D03*
Y1125220D02*
D03*
X1551379D02*
D03*
X1526392Y1146810D02*
D03*
X1499870D02*
D03*
D49*
X1341120Y833670D02*
D03*
Y870670D02*
D03*
D54*
X1308100Y873760D02*
D03*
Y848260D02*
D03*
D61*
X1802130Y791210D02*
D03*
Y765810D02*
D03*
Y740410D02*
D03*
X1596390Y657860D02*
D03*
X1621790D02*
D03*
X1647190D02*
D03*
X1803400Y1096010D02*
D03*
Y1121410D02*
D03*
Y1070610D02*
D03*
Y1045210D02*
D03*
X1802130Y939800D02*
D03*
Y914400D02*
D03*
Y889000D02*
D03*
X911860Y650240D02*
D03*
X937260D02*
D03*
X988060D02*
D03*
X962660D02*
D03*
X807720Y1023620D02*
D03*
X833120D02*
D03*
X883920D02*
D03*
X858520D02*
D03*
X1008380Y791210D02*
D03*
Y765810D02*
D03*
Y715010D02*
D03*
Y740410D02*
D03*
X789940Y648970D02*
D03*
X764540D02*
D03*
X713740D02*
D03*
X739140D02*
D03*
X653430Y683260D02*
D03*
Y708660D02*
D03*
Y759460D02*
D03*
Y734060D02*
D03*
X702310Y1023620D02*
D03*
X727710D02*
D03*
X676910D02*
D03*
X651510D02*
D03*
X1018540Y974090D02*
D03*
Y999490D02*
D03*
Y948690D02*
D03*
Y923290D02*
D03*
D62*
X1802130Y816610D02*
D03*
X1803400Y1146810D02*
D03*
X1802130Y965200D02*
D03*
X1008380Y689610D02*
D03*
X653430Y784860D02*
D03*
X1018540Y1024890D02*
D03*
D63*
X1786510Y1195070D02*
D03*
X1169670Y1136650D02*
D03*
Y1098550D02*
D03*
Y1060450D02*
D03*
Y984250D02*
D03*
Y946150D02*
D03*
Y831850D02*
D03*
Y793750D02*
D03*
Y869950D02*
D03*
Y908050D02*
D03*
Y1022350D02*
D03*
D64*
X1786510Y1233170D02*
D03*
X1169670Y755650D02*
D03*
D65*
X1672590Y657860D02*
D03*
X1013460Y650240D02*
D03*
X909320Y1023620D02*
D03*
X688340Y648970D02*
D03*
X753110Y1023620D02*
D03*
D66*
X1498600Y873760D02*
D03*
X1544320Y803910D02*
D03*
D67*
X1498600Y899160D02*
D03*
X1544320Y829310D02*
D03*
D68*
X1536700Y659130D02*
D03*
D69*
X1511300D02*
D03*
D70*
X750570Y774700D02*
D03*
D71*
Y749300D02*
D03*
Y723900D02*
D03*
Y698500D02*
D03*
X826770Y774700D02*
D03*
Y749300D02*
D03*
Y723900D02*
D03*
Y698500D02*
D03*
D72*
X1767840Y730250D02*
D03*
X880110Y951230D02*
D03*
X1487170Y1051560D02*
D03*
X811530Y872490D02*
D03*
X842010Y838200D02*
D03*
X731520Y688340D02*
D03*
X685800Y708660D02*
D03*
X650240Y867410D02*
D03*
X892810Y934720D02*
D03*
X880110Y999490D02*
D03*
X844550Y875030D02*
D03*
X816995Y914785D02*
D03*
X805180Y953770D02*
D03*
X803910Y767080D02*
D03*
X716280Y976630D02*
D03*
X1479550Y1108710D02*
D03*
X1475740Y1037590D02*
D03*
X1468120Y1177290D02*
D03*
X1731010Y1130300D02*
D03*
X1456690Y1045210D02*
D03*
X1239520Y882650D02*
D03*
X1469390Y646430D02*
D03*
X1619250Y1247140D02*
D03*
X1349856Y1234740D02*
D03*
X1590040Y1221740D02*
D03*
X1635760Y845820D02*
D03*
X1664970Y1066070D02*
D03*
Y1109980D02*
D03*
X1732280Y1045210D02*
D03*
X1734820Y971550D02*
D03*
X1672590Y1012190D02*
D03*
X1663248Y950412D02*
D03*
X1537970Y920750D02*
D03*
X1544320Y773710D02*
D03*
X1508760Y852170D02*
D03*
X1471930Y1017270D02*
D03*
X1366520Y661670D02*
D03*
X1430020Y817880D02*
D03*
X1342390Y722630D02*
D03*
X811579Y891483D02*
D03*
X801966Y902604D02*
D03*
X873760Y913640D02*
D03*
X828040Y887730D02*
D03*
X848360Y893350D02*
D03*
X793750Y840740D02*
D03*
X800677Y856557D02*
D03*
X917649Y907489D02*
D03*
X858520Y956310D02*
D03*
X961390Y897869D02*
D03*
X910590Y955040D02*
D03*
X961390Y986790D02*
D03*
X951230Y839470D02*
D03*
X1014730Y843280D02*
D03*
X911860Y831850D02*
D03*
X913948Y846638D02*
D03*
X864870Y858520D02*
D03*
X875030Y869950D02*
D03*
X876300Y839470D02*
D03*
X859790Y838200D02*
D03*
X960120Y723900D02*
D03*
X868680Y883920D02*
D03*
X824718Y835172D02*
D03*
X842010Y956310D02*
D03*
X833120Y999490D02*
D03*
X858520Y998220D02*
D03*
X797560Y995680D02*
D03*
X727710D02*
D03*
X753110Y994410D02*
D03*
X702310Y995680D02*
D03*
X676910Y996950D02*
D03*
X651510D02*
D03*
X695960Y783590D02*
D03*
X733365Y758885D02*
D03*
X706120Y715010D02*
D03*
X929640Y730250D02*
D03*
X845820Y660400D02*
D03*
X850900Y772160D02*
D03*
X867410Y723900D02*
D03*
D73*
X1088390Y640080D02*
D03*
Y668020D02*
D03*
Y694690D02*
D03*
Y721360D02*
D03*
Y746760D02*
D03*
Y773430D02*
D03*
Y800100D02*
D03*
Y825500D02*
D03*
Y852170D02*
D03*
Y878840D02*
D03*
Y904240D02*
D03*
Y929640D02*
D03*
Y955040D02*
D03*
Y980440D02*
D03*
Y1005840D02*
D03*
Y1031240D02*
D03*
Y1056640D02*
D03*
Y1082040D02*
D03*
Y1107440D02*
D03*
Y1132840D02*
D03*
Y1158240D02*
D03*
Y1182370D02*
D03*
Y1207770D02*
D03*
Y1233170D02*
D03*
Y1259840D02*
D03*
X1266190Y1179830D02*
D03*
X1250950D02*
D03*
X1236980D02*
D03*
D100*
X1226820Y910290D02*
D03*
Y938830D02*
D03*
D102*
X1252820Y1098550D02*
D03*
X1224280D02*
D03*
D104*
X1385570Y1020780D02*
D03*
Y1049320D02*
D03*
X1275080Y971250D02*
D03*
Y999790D02*
D03*
D105*
X1293675Y1114425D02*
D03*
Y1127125D02*
D03*
Y1139825D02*
D03*
Y1152525D02*
D03*
D106*
X1330960Y1136650D02*
D03*
X1422400Y1135380D02*
D03*
D107*
X1350976Y1080770D02*
D03*
X1376984D02*
D03*
X1296366Y1059180D02*
D03*
X1322374D02*
D03*
D108*
X1444625Y1098095D02*
D03*
X1431925D02*
D03*
X1419225D02*
D03*
X1406525D02*
D03*
D111*
X1353820Y1051400D02*
D03*
Y1018700D02*
D03*
X1226820Y969170D02*
D03*
Y1001870D02*
D03*
D112*
X1315110Y981560D02*
D03*
Y994560D02*
D03*
X1334110Y988060D02*
D03*
D113*
X1272540Y940310D02*
D03*
X1272540Y908810D02*
D03*
X1673860Y1186690D02*
D03*
X1673860Y1155190D02*
D03*
D114*
X1254600Y1137920D02*
D03*
X1221900D02*
D03*
M02*
