G04*
G04 #@! TF.GenerationSoftware,Altium Limited,Altium Designer,25.2.1 (25)*
G04*
G04 Layer_Physical_Order=3*
G04 Layer_Color=128*
%FSLAX44Y44*%
%MOMM*%
G71*
G04*
G04 #@! TF.SameCoordinates,F4FED96F-6736-4451-9F0E-EDF3A1B2C77D*
G04*
G04*
G04 #@! TF.FilePolarity,Negative*
G04*
G01*
G75*
%ADD74C,1.0160*%
G04:AMPARAMS|DCode=85|XSize=2.624mm|YSize=2.624mm|CornerRadius=0mm|HoleSize=0mm|Usage=FLASHONLY|Rotation=0.000|XOffset=0mm|YOffset=0mm|HoleType=Round|Shape=Relief|Width=0.254mm|Gap=0.254mm|Entries=4|*
%AMTHD85*
7,0,0,2.6240,2.1160,0.2540,45*
%
%ADD85THD85*%
%ADD86C,2.4160*%
%ADD87C,2.1160*%
%ADD89C,1.6660*%
%ADD90C,2.0360*%
%ADD91C,1.9160*%
G04:AMPARAMS|DCode=93|XSize=1.8085mm|YSize=1.8085mm|CornerRadius=0mm|HoleSize=0mm|Usage=FLASHONLY|Rotation=0.000|XOffset=0mm|YOffset=0mm|HoleType=Round|Shape=Relief|Width=0.254mm|Gap=0.254mm|Entries=4|*
%AMTHD93*
7,0,0,1.8085,1.3005,0.2540,45*
%
%ADD93THD93*%
%ADD94C,2.2860*%
%ADD95C,1.3005*%
%ADD96C,1.7272*%
G04:AMPARAMS|DCode=97|XSize=2.924mm|YSize=2.924mm|CornerRadius=0mm|HoleSize=0mm|Usage=FLASHONLY|Rotation=0.000|XOffset=0mm|YOffset=0mm|HoleType=Round|Shape=Relief|Width=0.254mm|Gap=0.254mm|Entries=4|*
%AMTHD97*
7,0,0,2.9240,2.4160,0.2540,45*
%
%ADD97THD97*%
D74*
X598170Y617220D02*
X1889760D01*
Y1281430D01*
X595630D02*
X1889760D01*
X595630Y619760D02*
Y1281430D01*
Y619760D02*
X598170Y617220D01*
D85*
X1596390Y657860D02*
D03*
D86*
X1786510Y1233170D02*
D03*
X1169670Y1136650D02*
D03*
Y1098550D02*
D03*
Y1060450D02*
D03*
Y984250D02*
D03*
Y946150D02*
D03*
Y831850D02*
D03*
Y793750D02*
D03*
Y755650D02*
D03*
Y869950D02*
D03*
Y908050D02*
D03*
Y1022350D02*
D03*
D87*
X1802130Y791210D02*
D03*
Y816610D02*
D03*
Y765810D02*
D03*
Y740410D02*
D03*
X1621790Y657860D02*
D03*
X1672590D02*
D03*
X1647190D02*
D03*
X1803400Y1096010D02*
D03*
Y1146810D02*
D03*
Y1121410D02*
D03*
Y1070610D02*
D03*
Y1045210D02*
D03*
X1802130Y939800D02*
D03*
Y965200D02*
D03*
Y914400D02*
D03*
Y889000D02*
D03*
X911860Y650240D02*
D03*
X937260D02*
D03*
X988060D02*
D03*
X1013460D02*
D03*
X962660D02*
D03*
X807720Y1023620D02*
D03*
X833120D02*
D03*
X883920D02*
D03*
X909320D02*
D03*
X858520D02*
D03*
X1008380Y791210D02*
D03*
Y765810D02*
D03*
Y715010D02*
D03*
Y689610D02*
D03*
Y740410D02*
D03*
X789940Y648970D02*
D03*
X764540D02*
D03*
X713740D02*
D03*
X688340D02*
D03*
X739140D02*
D03*
X653430Y683260D02*
D03*
Y708660D02*
D03*
Y759460D02*
D03*
Y784860D02*
D03*
Y734060D02*
D03*
X702310Y1023620D02*
D03*
X753110D02*
D03*
X727710D02*
D03*
X676910D02*
D03*
X651510D02*
D03*
X1018540Y974090D02*
D03*
Y1024890D02*
D03*
Y999490D02*
D03*
Y948690D02*
D03*
Y923290D02*
D03*
D89*
X1498600Y873760D02*
D03*
Y899160D02*
D03*
X1544320Y829310D02*
D03*
Y803910D02*
D03*
D90*
X1536700Y659130D02*
D03*
X1511300D02*
D03*
D91*
X750570Y774700D02*
D03*
Y749300D02*
D03*
Y723900D02*
D03*
Y698500D02*
D03*
X826770Y774700D02*
D03*
Y749300D02*
D03*
Y723900D02*
D03*
Y698500D02*
D03*
D93*
X1731010Y1130300D02*
D03*
X1239520Y882650D02*
D03*
X1469390Y646430D02*
D03*
X1734820Y971550D02*
D03*
X1663248Y950412D02*
D03*
D94*
X1088390Y640080D02*
D03*
Y668020D02*
D03*
Y694690D02*
D03*
Y721360D02*
D03*
Y746760D02*
D03*
Y773430D02*
D03*
Y800100D02*
D03*
Y825500D02*
D03*
Y852170D02*
D03*
Y878840D02*
D03*
Y904240D02*
D03*
Y929640D02*
D03*
Y955040D02*
D03*
Y980440D02*
D03*
Y1005840D02*
D03*
Y1031240D02*
D03*
Y1056640D02*
D03*
Y1082040D02*
D03*
Y1107440D02*
D03*
Y1132840D02*
D03*
Y1158240D02*
D03*
Y1182370D02*
D03*
Y1207770D02*
D03*
Y1233170D02*
D03*
Y1259840D02*
D03*
D95*
X1767840Y730250D02*
D03*
X880110Y951230D02*
D03*
X1487170Y1051560D02*
D03*
X811530Y872490D02*
D03*
X842010Y838200D02*
D03*
X731520Y688340D02*
D03*
X685800Y708660D02*
D03*
X650240Y867410D02*
D03*
X892810Y934720D02*
D03*
X880110Y999490D02*
D03*
X844550Y875030D02*
D03*
X816995Y914785D02*
D03*
X805180Y953770D02*
D03*
X803910Y767080D02*
D03*
X716280Y976630D02*
D03*
X1479550Y1108710D02*
D03*
X1475740Y1037590D02*
D03*
X1468120Y1177290D02*
D03*
X1456690Y1045210D02*
D03*
X1619250Y1247140D02*
D03*
X1349856Y1234740D02*
D03*
X1590040Y1221740D02*
D03*
X1635760Y845820D02*
D03*
X1664970Y1066070D02*
D03*
Y1109980D02*
D03*
X1732280Y1045210D02*
D03*
X1672590Y1012190D02*
D03*
X1537970Y920750D02*
D03*
X1544320Y773710D02*
D03*
X1508760Y852170D02*
D03*
X1471930Y1017270D02*
D03*
X1366520Y661670D02*
D03*
X1430020Y817880D02*
D03*
X1342390Y722630D02*
D03*
X811579Y891483D02*
D03*
X801966Y902604D02*
D03*
X873760Y913640D02*
D03*
X828040Y887730D02*
D03*
X848360Y893350D02*
D03*
X793750Y840740D02*
D03*
X800677Y856557D02*
D03*
X917649Y907489D02*
D03*
X858520Y956310D02*
D03*
X961390Y897869D02*
D03*
X910590Y955040D02*
D03*
X961390Y986790D02*
D03*
X951230Y839470D02*
D03*
X1014730Y843280D02*
D03*
X911860Y831850D02*
D03*
X913948Y846638D02*
D03*
X864870Y858520D02*
D03*
X875030Y869950D02*
D03*
X876300Y839470D02*
D03*
X859790Y838200D02*
D03*
X960120Y723900D02*
D03*
X868680Y883920D02*
D03*
X824718Y835172D02*
D03*
X842010Y956310D02*
D03*
X833120Y999490D02*
D03*
X858520Y998220D02*
D03*
X797560Y995680D02*
D03*
X727710D02*
D03*
X753110Y994410D02*
D03*
X702310Y995680D02*
D03*
X676910Y996950D02*
D03*
X651510D02*
D03*
X695960Y783590D02*
D03*
X733365Y758885D02*
D03*
X706120Y715010D02*
D03*
X929640Y730250D02*
D03*
X845820Y660400D02*
D03*
X850900Y772160D02*
D03*
X867410Y723900D02*
D03*
D96*
X1266190Y1179830D02*
D03*
X1250950D02*
D03*
X1236980D02*
D03*
D97*
X1786510Y1195070D02*
D03*
M02*
