G04*
G04 #@! TF.GenerationSoftware,Altium Limited,Altium Designer,25.2.1 (25)*
G04*
G04 Layer_Color=128*
%FSLAX44Y44*%
%MOMM*%
G71*
G04*
G04 #@! TF.SameCoordinates,F4FED96F-6736-4451-9F0E-EDF3A1B2C77D*
G04*
G04*
G04 #@! TF.FilePolarity,Positive*
G04*
G01*
G75*
%ADD21R,1.7062X1.2034*%
%ADD27R,0.7000X1.2000*%
%ADD31R,1.7000X1.0500*%
%ADD32R,1.6582X0.9561*%
%ADD42R,0.9561X1.6582*%
%ADD98R,1.2200X0.9100*%
%ADD99R,1.2000X0.4000*%
%ADD100R,1.6621X1.0581*%
%ADD101R,0.9500X0.9000*%
%ADD102R,1.0581X1.7121*%
%ADD103R,0.9100X1.2200*%
%ADD104R,1.7121X1.0581*%
%ADD107R,1.2034X1.7062*%
%ADD115R,1.0720X0.5620*%
%ADD116R,0.7660X0.5080*%
%ADD117R,1.2940X0.7460*%
%ADD118R,0.5620X1.0720*%
%ADD119R,0.5080X0.7660*%
%ADD120R,0.7460X1.2940*%
D21*
X1629410Y1186484D02*
D03*
Y1160476D02*
D03*
X1714500D02*
D03*
Y1186484D02*
D03*
D27*
X1341120Y833670D02*
D03*
Y870670D02*
D03*
D31*
X1308100Y873760D02*
D03*
Y848260D02*
D03*
D32*
Y906928D02*
D03*
Y933450D02*
D03*
X1341120Y906219D02*
D03*
Y932741D02*
D03*
D42*
X1500579Y1102360D02*
D03*
X1527101D02*
D03*
X1389941Y1186180D02*
D03*
X1363419D02*
D03*
X1551379Y1093470D02*
D03*
X1577901D02*
D03*
Y1125220D02*
D03*
X1551379D02*
D03*
X1526392Y1146810D02*
D03*
X1499870D02*
D03*
D98*
X1353820Y1051400D02*
D03*
Y1018700D02*
D03*
X1226820Y969170D02*
D03*
Y1001870D02*
D03*
D99*
X1315110Y981560D02*
D03*
Y994560D02*
D03*
X1334110Y988060D02*
D03*
D100*
X1226820Y910290D02*
D03*
Y938830D02*
D03*
D101*
X1272540Y940310D02*
D03*
X1272540Y908810D02*
D03*
X1673860Y1186690D02*
D03*
X1673860Y1155190D02*
D03*
D102*
X1252820Y1098550D02*
D03*
X1224280D02*
D03*
D103*
X1254600Y1137920D02*
D03*
X1221900D02*
D03*
D104*
X1385570Y1020780D02*
D03*
Y1049320D02*
D03*
X1275080Y971250D02*
D03*
Y999790D02*
D03*
D107*
X1350976Y1080770D02*
D03*
X1376984D02*
D03*
X1296366Y1059180D02*
D03*
X1322374D02*
D03*
D115*
X1293805Y1114425D02*
D03*
Y1127125D02*
D03*
Y1139825D02*
D03*
Y1152525D02*
D03*
D116*
X1350475Y1114425D02*
D03*
Y1127125D02*
D03*
Y1139825D02*
D03*
Y1152525D02*
D03*
D117*
X1337315Y1117785D02*
D03*
Y1128245D02*
D03*
Y1138705D02*
D03*
Y1149165D02*
D03*
X1320875Y1117785D02*
D03*
Y1128245D02*
D03*
Y1138705D02*
D03*
Y1149165D02*
D03*
D118*
X1444622Y1098225D02*
D03*
X1431922D02*
D03*
X1419222D02*
D03*
X1406522D02*
D03*
D119*
X1444625Y1154895D02*
D03*
X1431925D02*
D03*
X1419225D02*
D03*
X1406525D02*
D03*
D120*
X1441265Y1141735D02*
D03*
X1430805D02*
D03*
X1420345D02*
D03*
X1409885D02*
D03*
X1441265Y1125295D02*
D03*
X1430805D02*
D03*
X1420345D02*
D03*
X1409885D02*
D03*
M02*
