G04*
G04 #@! TF.GenerationSoftware,Altium Limited,Altium Designer,24.7.2 (38)*
G04*
G04 Layer_Physical_Order=1*
G04 Layer_Color=255*
%FSLAX44Y44*%
%MOMM*%
G71*
G04*
G04 #@! TF.SameCoordinates,1ABB164B-B226-434E-8602-407845119EEE*
G04*
G04*
G04 #@! TF.FilePolarity,Positive*
G04*
G01*
G75*
%ADD14R,0.3000X1.2000*%
%ADD15R,1.2000X0.3000*%
%ADD16R,0.9500X0.4500*%
%ADD17R,1.0500X0.9500*%
%ADD18R,7.2000X10.5000*%
%ADD19R,2.8500X1.0500*%
%ADD20R,0.9000X0.8000*%
%ADD21R,1.2000X1.0000*%
%ADD22R,2.0000X5.5000*%
%ADD23R,1.0000X1.2000*%
%ADD24R,0.9121X0.9581*%
%ADD25R,0.9581X0.9121*%
%ADD26R,0.8000X0.9000*%
%ADD34C,1.5700*%
%ADD35R,1.5660X1.5660*%
%ADD36C,1.5660*%
%ADD40C,0.2540*%
%ADD41C,1.6000*%
G04:AMPARAMS|DCode=42|XSize=1.6mm|YSize=1.6mm|CornerRadius=0.4mm|HoleSize=0mm|Usage=FLASHONLY|Rotation=0.000|XOffset=0mm|YOffset=0mm|HoleType=Round|Shape=RoundedRectangle|*
%AMROUNDEDRECTD42*
21,1,1.6000,0.8000,0,0,0.0*
21,1,0.8000,1.6000,0,0,0.0*
1,1,0.8000,0.4000,-0.4000*
1,1,0.8000,-0.4000,-0.4000*
1,1,0.8000,-0.4000,0.4000*
1,1,0.8000,0.4000,0.4000*
%
%ADD42ROUNDEDRECTD42*%
%ADD43C,1.2700*%
D14*
X986120Y623920D02*
D03*
X991120D02*
D03*
X996120D02*
D03*
X1001120D02*
D03*
X1006120D02*
D03*
X1011120D02*
D03*
X1016120D02*
D03*
X1021120D02*
D03*
X1026120D02*
D03*
X1031120D02*
D03*
X1036120D02*
D03*
X1041120D02*
D03*
X1046120D02*
D03*
X1051120D02*
D03*
X1056120D02*
D03*
X1061120D02*
D03*
Y508920D02*
D03*
X1056120D02*
D03*
X1051120D02*
D03*
X1046120D02*
D03*
X1041120D02*
D03*
X1036120D02*
D03*
X1031120D02*
D03*
X1026120D02*
D03*
X1021120D02*
D03*
X1016120D02*
D03*
X1011120D02*
D03*
X1006120D02*
D03*
X1001120D02*
D03*
X996120D02*
D03*
X991120D02*
D03*
X986120D02*
D03*
D15*
X1081120Y603920D02*
D03*
Y598920D02*
D03*
Y593920D02*
D03*
Y588920D02*
D03*
Y583920D02*
D03*
Y578920D02*
D03*
Y573920D02*
D03*
Y568920D02*
D03*
Y563920D02*
D03*
Y558920D02*
D03*
Y553920D02*
D03*
Y548920D02*
D03*
Y543920D02*
D03*
Y538920D02*
D03*
Y533920D02*
D03*
Y528920D02*
D03*
X966120D02*
D03*
Y533920D02*
D03*
Y538920D02*
D03*
Y543920D02*
D03*
Y548920D02*
D03*
Y553920D02*
D03*
Y558920D02*
D03*
Y563920D02*
D03*
Y568920D02*
D03*
Y573920D02*
D03*
Y578920D02*
D03*
Y583920D02*
D03*
Y588920D02*
D03*
Y593920D02*
D03*
Y598920D02*
D03*
Y603920D02*
D03*
D16*
X1060450Y437010D02*
D03*
Y421510D02*
D03*
X1042670Y437010D02*
D03*
Y421510D02*
D03*
D17*
X1019810Y420740D02*
D03*
Y435240D02*
D03*
D18*
X887100Y430530D02*
D03*
D19*
X989100Y455930D02*
D03*
Y430530D02*
D03*
Y405130D02*
D03*
D20*
X855750Y538680D02*
D03*
Y523680D02*
D03*
Y602730D02*
D03*
Y617730D02*
D03*
D21*
X937260Y501810D02*
D03*
Y521810D02*
D03*
Y564990D02*
D03*
Y544990D02*
D03*
X943610Y632300D02*
D03*
Y612300D02*
D03*
X975360Y649130D02*
D03*
Y669130D02*
D03*
D22*
X896620Y617730D02*
D03*
Y522730D02*
D03*
D23*
X1046640Y647700D02*
D03*
X1066640D02*
D03*
X1050130Y665480D02*
D03*
X1030130D02*
D03*
D24*
X1004570Y667670D02*
D03*
Y653130D02*
D03*
X953770Y668020D02*
D03*
Y653480D02*
D03*
D25*
X918560Y664210D02*
D03*
X933100D02*
D03*
D26*
X857370Y665480D02*
D03*
X872370D02*
D03*
D34*
X1092200Y394970D02*
D03*
X1056640D02*
D03*
D35*
X1125220Y622300D02*
D03*
D36*
Y596900D02*
D03*
Y571500D02*
D03*
Y546100D02*
D03*
Y520700D02*
D03*
Y495300D02*
D03*
Y469900D02*
D03*
Y444500D02*
D03*
Y419100D02*
D03*
Y393700D02*
D03*
D40*
X887100Y430530D02*
X921390Y464820D01*
X942340D01*
X1056640Y469900D02*
X1125220D01*
X1031120Y495420D02*
Y508920D01*
Y495420D02*
X1056640Y469900D01*
X1036350Y502598D02*
Y508690D01*
Y502598D02*
X1043648Y495300D01*
X1036120Y508920D02*
X1036350Y508690D01*
X1043648Y495300D02*
X1125220D01*
X975870Y549150D02*
X992505Y565785D01*
X966350Y549150D02*
X975870D01*
X966120Y548920D02*
X966350Y549150D01*
X987150Y543920D02*
X988060Y544830D01*
X966120Y543920D02*
X987150D01*
X950894Y564786D02*
X959798Y573690D01*
X950894Y534444D02*
Y564786D01*
X938260Y521810D02*
X950894Y534444D01*
X991350Y516370D02*
X1005840Y530860D01*
X991350Y509150D02*
Y516370D01*
X991120Y508920D02*
X991350Y509150D01*
X1062943Y594407D02*
X1065692D01*
X1070205Y598920D01*
X1081120D01*
X986120Y508920D02*
X986350Y509150D01*
X1090330Y603920D02*
X1098550Y612140D01*
X1081120Y603920D02*
X1090330D01*
X1055740Y607960D02*
X1076590D01*
X1125220Y656590D02*
Y693420D01*
X1076590Y607960D02*
X1125220Y656590D01*
X1056120Y623920D02*
X1056176Y623864D01*
Y616168D02*
X1057664Y614680D01*
X1056176Y616168D02*
Y623864D01*
X1057664Y614680D02*
X1070610D01*
X1099820Y643890D02*
Y693420D01*
X1070610Y614680D02*
X1099820Y643890D01*
X1051350Y612350D02*
X1055740Y607960D01*
X1051350Y612350D02*
Y623690D01*
X1046480Y593090D02*
Y613510D01*
X1046120Y613870D02*
X1046480Y613510D01*
X1035050Y605938D02*
X1040890Y611778D01*
Y623690D01*
X1035050Y603250D02*
Y605938D01*
X1040890Y623690D02*
X1041120Y623920D01*
X1024890Y605662D02*
X1035890Y616662D01*
X1024890Y593090D02*
Y605662D01*
X1035890Y616662D02*
Y623690D01*
X1036120Y623920D01*
X1006350Y605280D02*
X1007110Y604520D01*
X1006350Y605280D02*
Y623690D01*
X1006120Y623920D02*
X1006350Y623690D01*
X1046120Y613870D02*
Y623920D01*
X1051120D02*
X1051350Y623690D01*
X1019810Y570230D02*
X1041120Y548920D01*
Y508920D02*
Y548920D01*
X1050130Y665480D02*
X1065530D01*
X1007110Y584200D02*
X1065308D01*
X1074068Y592960D01*
X1074902D01*
X1074902Y592960D01*
X1075660D01*
X1076620Y593920D01*
X1081120D01*
X953770Y637540D02*
X1007110Y584200D01*
X1026400Y660750D02*
X1030130Y664480D01*
X1023620Y659262D02*
X1025108Y660750D01*
X1030130Y664480D02*
Y665480D01*
X1025108Y660750D02*
X1026400D01*
X1023620Y650240D02*
Y659262D01*
X989330Y693420D02*
X1004570Y678180D01*
Y667670D02*
Y678180D01*
X963930Y693420D02*
X975360Y681990D01*
Y669130D02*
Y681990D01*
X938530Y693420D02*
X953770Y678180D01*
Y668020D02*
Y678180D01*
X918560Y664210D02*
Y684348D01*
X913130Y689778D02*
X918560Y684348D01*
X913130Y689778D02*
Y693420D01*
X872370Y665980D02*
X887730Y681340D01*
Y693420D01*
X872370Y665480D02*
Y665980D01*
X1003568Y436880D02*
X1042555D01*
X1042670Y421510D02*
X1057950D01*
X1056970Y420530D02*
X1057950Y421510D01*
X1056970Y395300D02*
Y420530D01*
X1057950Y421510D02*
X1060450D01*
X1056640Y394970D02*
X1056970Y395300D01*
X1069180Y644160D02*
Y645160D01*
X1061120Y636100D02*
X1069180Y644160D01*
X1050130Y649290D02*
Y665480D01*
X1004570Y652900D02*
Y653130D01*
Y652900D02*
X1007861Y649609D01*
X1008091D02*
X1022700Y635000D01*
X1007861Y649609D02*
X1008091D01*
X1022700Y635000D02*
X1056132D01*
X1081350Y568690D02*
X1097550D01*
X1111250Y531120D02*
Y554990D01*
X1097550Y568690D02*
X1111250Y554990D01*
X1121670Y520700D02*
X1125220D01*
X1111250Y531120D02*
X1121670Y520700D01*
X989100Y405130D02*
X998100D01*
X1010750Y420740D02*
X1019810D01*
X1002080Y412070D02*
X1010750Y420740D01*
X1002080Y409110D02*
Y412070D01*
X998100Y405130D02*
X1002080Y409110D01*
X1041400Y455930D02*
X1076325Y421005D01*
X1019810Y420740D02*
X1020580Y421510D01*
X1042670D01*
X1002080Y434510D02*
Y435392D01*
X998100Y430530D02*
X1002080Y434510D01*
Y435392D02*
X1003568Y436880D01*
X989100Y430530D02*
X998100D01*
X855750Y538680D02*
Y602730D01*
X1050130Y649290D02*
X1051720Y647700D01*
X1061120Y623920D02*
Y636100D01*
X1056132Y635000D02*
X1060890Y630242D01*
X975440Y669130D02*
X979170Y672860D01*
X975360Y669130D02*
X975440D01*
X933100Y664210D02*
X934720Y662590D01*
Y647700D02*
Y662590D01*
X938880Y616030D02*
X942610Y612300D01*
X938880Y616030D02*
Y617030D01*
X942610Y612300D02*
X943610D01*
X924602Y631308D02*
Y632104D01*
Y631308D02*
X938880Y617030D01*
X918210Y638496D02*
Y640080D01*
Y638496D02*
X924602Y632104D01*
X1005890Y624150D02*
Y632300D01*
X989060Y649130D02*
X1005890Y632300D01*
Y624150D02*
X1006120Y623920D01*
X975360Y649130D02*
X989060D01*
X902212Y612138D02*
X919482D01*
X947470Y584150D01*
X896620Y617730D02*
X902212Y612138D01*
X946318Y636278D02*
X951932D01*
X943610Y633570D02*
X946318Y636278D01*
X951932D02*
X953420Y637766D01*
X953770Y637540D02*
Y653480D01*
X872131Y665480D02*
X872370D01*
X1125220Y546100D02*
Y549650D01*
X1121434Y553436D02*
X1125220Y549650D01*
X1101210Y573920D02*
X1121434Y553696D01*
X1081120Y573920D02*
X1101210D01*
X1121434Y553436D02*
Y553696D01*
X1016350Y498760D02*
Y508690D01*
X1096010Y419100D02*
X1125220D01*
X1016350Y498760D02*
X1096010Y419100D01*
X1011350Y497410D02*
Y508690D01*
X1112550Y396210D02*
X1122710D01*
X1011350Y497410D02*
X1112550Y396210D01*
X1016120Y508920D02*
X1016350Y508690D01*
X1122710Y396210D02*
X1125220Y393700D01*
X1011120Y508920D02*
X1011350Y508690D01*
X989100Y455930D02*
X1041400D01*
X857250Y641350D02*
Y661050D01*
X966350Y574150D02*
X974200D01*
X986790Y586740D01*
X966120Y573920D02*
X966350Y574150D01*
X959798Y573690D02*
X965890D01*
X966120Y573920D01*
X937260Y521810D02*
X938260D01*
X942340Y464820D02*
Y467569D01*
X937260Y472649D02*
Y501810D01*
Y472649D02*
X942340Y467569D01*
X896620Y522730D02*
Y536260D01*
X905350Y544990D02*
X937260D01*
X896620Y536260D02*
X905350Y544990D01*
X1092070Y589150D02*
X1125220Y622300D01*
X1081350Y589150D02*
X1092070D01*
X1112470Y584150D02*
X1125220Y596900D01*
X1081350Y584150D02*
X1112470D01*
X1116179Y578920D02*
X1123599Y571500D01*
X1125220D01*
X1081120Y578920D02*
X1116179D01*
X1081120Y568920D02*
X1081350Y568690D01*
X1090798Y396372D02*
Y406532D01*
Y396372D02*
X1092200Y394970D01*
X1076325Y421005D02*
X1090798Y406532D01*
X1081120Y588920D02*
X1081350Y589150D01*
X1081120Y583920D02*
X1081350Y584150D01*
X942340Y462280D02*
Y464820D01*
Y462280D02*
X970110Y434510D01*
X985120D01*
X989100Y430530D01*
X887100D02*
X912500Y405130D01*
X947470Y584150D02*
X965890D01*
X937260Y564990D02*
X938260Y565990D01*
Y568690D02*
X948260Y578690D01*
X965890D01*
Y584150D02*
X966120Y583920D01*
X854480Y617730D02*
X896620D01*
X855430Y522730D02*
X896620D01*
X855750Y523680D02*
X856700Y522730D01*
X965890Y578690D02*
X966120Y578920D01*
D41*
X1074420Y693420D02*
D03*
X1049020D02*
D03*
X1099820D02*
D03*
X1125220D02*
D03*
X938530D02*
D03*
X913130D02*
D03*
X963930D02*
D03*
X989330D02*
D03*
D42*
X1023620D02*
D03*
X887730D02*
D03*
D43*
X992505Y565785D02*
D03*
X988060Y544830D02*
D03*
X1098550Y612140D02*
D03*
X1062943Y594407D02*
D03*
X1005840Y530860D02*
D03*
X1035050Y603250D02*
D03*
X1024890Y593090D02*
D03*
X1007110Y604520D02*
D03*
X1046480Y593090D02*
D03*
X1019810Y570230D02*
D03*
X1065530Y665480D02*
D03*
X1023620Y650240D02*
D03*
X934720Y647700D02*
D03*
X918210Y640080D02*
D03*
X854710Y572770D02*
D03*
X986790Y586740D02*
D03*
X857250Y641350D02*
D03*
X942340Y464820D02*
D03*
M02*
