M48
;Layer_Color=9474304
;FILE_FORMAT=4:4
METRIC,LZ
;TYPE=PLATED
T01F00S00C0.7112
T02F00S00C1.0160
T03F00S00C1.0200
T04F00S00C1.1000
%
T01
X0094234Y0046482
X0098806Y0054483
X00992505Y00565785
X0098679Y0058674
X0100711Y0060452
X0103505Y0060325
X0102489Y0059309
X0104648
X01062943Y00594407
X0109855Y0061214
X0106553Y0066548
X0102362Y0065024
X0101981Y0057023
X0100584Y0053086
X0093472Y006477
X0091821Y0064008
X0085725Y0064135
X0085471Y0057277
T02
X0112522Y003937
Y004191
Y004445
Y004699
Y004953
Y005207
Y005461
Y005715
Y005969
Y006223
T03
X0105664Y0039497
X010922
T04
X0088773Y0069342
X0091313
X0093853
X0096393
X0098933
X0102362
X0104902
X0107442
X0109982
X0112522
M30
