G04*
G04 #@! TF.GenerationSoftware,Altium Limited,Altium Designer,24.7.2 (38)*
G04*
G04 Layer_Color=65535*
%FSLAX44Y44*%
%MOMM*%
G71*
G04*
G04 #@! TF.SameCoordinates,1ABB164B-B226-434E-8602-407845119EEE*
G04*
G04*
G04 #@! TF.FilePolarity,Positive*
G04*
G01*
G75*
%ADD10C,0.6000*%
%ADD11C,0.2500*%
%ADD12C,0.2000*%
%ADD13C,0.1270*%
D10*
X989120Y603920D02*
G03*
X989120Y603920I-3000J0D01*
G01*
D11*
X967370Y610920D02*
G03*
X967370Y610920I-1250J0D01*
G01*
X990350Y394380D02*
G03*
X990350Y394380I-1250J0D01*
G01*
X1126970Y643115D02*
G03*
X1126970Y643115I-1250J0D01*
G01*
X1006170Y693420D02*
G03*
X1006170Y693420I-1250J0D01*
G01*
X870280D02*
G03*
X870280Y693420I-1250J0D01*
G01*
D12*
X976120Y518920D02*
X1071120D01*
X976120Y613920D02*
X1071120D01*
Y518920D02*
Y613920D01*
X976120Y518920D02*
Y613920D01*
X1107450Y381620D02*
Y408320D01*
X1076950D02*
X1107450D01*
X1076950Y381620D02*
Y408320D01*
Y381620D02*
X1107450D01*
X1041390D02*
Y408320D01*
Y381620D02*
X1071890D01*
Y408320D01*
X1041390D02*
X1071890D01*
X1064200Y427760D02*
Y430760D01*
X1056700Y427760D02*
Y430760D01*
X1046420Y427760D02*
Y430760D01*
X1038920Y427760D02*
Y430760D01*
X927100Y482530D02*
X957100D01*
Y378530D02*
Y482530D01*
X927100Y378530D02*
X957100D01*
X864250Y522680D02*
Y539680D01*
X847250Y522680D02*
Y539680D01*
X932510Y510560D02*
Y513060D01*
X942010Y510560D02*
Y513060D01*
Y553740D02*
Y556240D01*
X932510Y553740D02*
Y556240D01*
X847250Y601730D02*
Y618730D01*
X864250Y601730D02*
Y618730D01*
X871620Y511730D02*
X882620D01*
X871620Y628730D02*
X882620D01*
X910620Y511730D02*
X921620D01*
X910620Y628730D02*
X921620D01*
X871620Y511730D02*
Y628730D01*
X921620Y511730D02*
Y628730D01*
X948360Y621050D02*
Y623550D01*
X938860Y621050D02*
Y623550D01*
X1112901Y381865D02*
X1137539D01*
Y634135D01*
X1112901D02*
X1137539D01*
X1112901Y381865D02*
Y634135D01*
X1055390Y652450D02*
X1057890D01*
X1055390Y642950D02*
X1057890D01*
X1139420Y679970D02*
Y706870D01*
X1009420D02*
X1139420D01*
X1009420Y679970D02*
Y706870D01*
Y679970D02*
X1139420D01*
X996009Y648339D02*
Y672461D01*
X1013131Y648339D02*
Y672461D01*
X970610Y657880D02*
Y660380D01*
X980110Y657880D02*
Y660380D01*
X945209Y648689D02*
Y672811D01*
X962331Y648689D02*
Y672811D01*
X913769Y655649D02*
X937891D01*
X913769Y672771D02*
X937891D01*
X856370Y673980D02*
X873370D01*
X856370Y656980D02*
X873370D01*
X1003530Y679970D02*
Y706870D01*
X873530D02*
X1003530D01*
X873530Y679970D02*
Y706870D01*
Y679970D02*
X1003530D01*
X1038880Y660730D02*
X1041380D01*
X1038880Y670230D02*
X1041380D01*
D13*
X1102360Y391159D02*
X1099821D01*
X1101091D01*
Y384811D01*
X1099821Y383541D01*
X1098552D01*
X1097282Y384811D01*
X1109978Y383541D02*
X1104900D01*
X1109978Y388620D01*
Y389889D01*
X1108708Y391159D01*
X1106169D01*
X1104900Y389889D01*
X1004572Y689611D02*
Y697229D01*
X1008381D01*
X1009650Y695959D01*
Y693420D01*
X1008381Y692150D01*
X1004572D01*
X1017268Y689611D02*
X1012190D01*
X1017268Y694690D01*
Y695959D01*
X1015998Y697229D01*
X1013459D01*
X1012190Y695959D01*
X1065530Y389889D02*
X1062991D01*
X1064261D01*
Y383541D01*
X1062991Y382271D01*
X1061722D01*
X1060452Y383541D01*
X1068070Y388619D02*
X1069339Y389889D01*
X1071878D01*
X1073148Y388619D01*
Y387350D01*
X1071878Y386080D01*
X1070609D01*
X1071878D01*
X1073148Y384810D01*
Y383541D01*
X1071878Y382271D01*
X1069339D01*
X1068070Y383541D01*
X969812Y620229D02*
Y613881D01*
X971081Y612611D01*
X973620D01*
X974890Y613881D01*
Y620229D01*
X977429Y612611D02*
X979968D01*
X978699D01*
Y620229D01*
X977429Y618959D01*
X1074420Y436879D02*
X1073151Y438149D01*
X1070612D01*
X1069342Y436879D01*
Y431801D01*
X1070612Y430531D01*
X1073151D01*
X1074420Y431801D01*
X1082038Y438149D02*
X1076960D01*
Y434340D01*
X1079499Y435610D01*
X1080768D01*
X1082038Y434340D01*
Y431801D01*
X1080768Y430531D01*
X1078229D01*
X1076960Y431801D01*
X889506Y660396D02*
X894585Y652779D01*
Y660396D02*
X889506Y652779D01*
X897124D02*
X899663D01*
X898393D01*
Y660396D01*
X897124Y659127D01*
X861852Y486339D02*
Y479991D01*
X863122Y478721D01*
X865661D01*
X866930Y479991D01*
Y486339D01*
X874548Y478721D02*
X869470D01*
X874548Y483800D01*
Y485069D01*
X873278Y486339D01*
X870739D01*
X869470Y485069D01*
X1036322Y636891D02*
Y644509D01*
X1040131D01*
X1041400Y643239D01*
Y640700D01*
X1040131Y639430D01*
X1036322D01*
X1038861D02*
X1041400Y636891D01*
X1043940Y638161D02*
X1045209Y636891D01*
X1047748D01*
X1049018Y638161D01*
Y643239D01*
X1047748Y644509D01*
X1045209D01*
X1043940Y643239D01*
Y641970D01*
X1045209Y640700D01*
X1049018D01*
X947422Y671502D02*
Y679119D01*
X951231D01*
X952500Y677850D01*
Y675311D01*
X951231Y674041D01*
X947422D01*
X949961D02*
X952500Y671502D01*
X955040Y677850D02*
X956309Y679119D01*
X958848D01*
X960118Y677850D01*
Y676580D01*
X958848Y675311D01*
X960118Y674041D01*
Y672772D01*
X958848Y671502D01*
X956309D01*
X955040Y672772D01*
Y674041D01*
X956309Y675311D01*
X955040Y676580D01*
Y677850D01*
X956309Y675311D02*
X958848D01*
X998222Y671152D02*
Y678769D01*
X1002031D01*
X1003300Y677500D01*
Y674961D01*
X1002031Y673691D01*
X998222D01*
X1000761D02*
X1003300Y671152D01*
X1005840Y678769D02*
X1010918D01*
Y677500D01*
X1005840Y672421D01*
Y671152D01*
X937262Y602491D02*
Y610109D01*
X941071D01*
X942340Y608839D01*
Y606300D01*
X941071Y605030D01*
X937262D01*
X939801D02*
X942340Y602491D01*
X949958Y610109D02*
X947419Y608839D01*
X944880Y606300D01*
Y603761D01*
X946149Y602491D01*
X948688D01*
X949958Y603761D01*
Y605030D01*
X948688Y606300D01*
X944880D01*
X912212Y674161D02*
Y681779D01*
X916021D01*
X917290Y680509D01*
Y677970D01*
X916021Y676700D01*
X912212D01*
X914751D02*
X917290Y674161D01*
X924908Y681779D02*
X919830D01*
Y677970D01*
X922369Y679240D01*
X923638D01*
X924908Y677970D01*
Y675431D01*
X923638Y674161D01*
X921099D01*
X919830Y675431D01*
X930912Y492001D02*
Y499619D01*
X934721D01*
X935990Y498349D01*
Y495810D01*
X934721Y494540D01*
X930912D01*
X933451D02*
X935990Y492001D01*
X942338D02*
Y499619D01*
X938530Y495810D01*
X943608D01*
X934212Y567181D02*
Y574799D01*
X938021D01*
X939290Y573529D01*
Y570990D01*
X938021Y569720D01*
X934212D01*
X936751D02*
X939290Y567181D01*
X941830Y573529D02*
X943099Y574799D01*
X945638D01*
X946908Y573529D01*
Y572260D01*
X945638Y570990D01*
X944369D01*
X945638D01*
X946908Y569720D01*
Y568451D01*
X945638Y567181D01*
X943099D01*
X941830Y568451D01*
X969012Y671321D02*
Y678939D01*
X972821D01*
X974090Y677669D01*
Y675130D01*
X972821Y673860D01*
X969012D01*
X971551D02*
X974090Y671321D01*
X981708D02*
X976630D01*
X981708Y676400D01*
Y677669D01*
X980438Y678939D01*
X977899D01*
X976630Y677669D01*
X1037592Y674161D02*
Y681779D01*
X1041400D01*
X1042670Y680509D01*
Y677970D01*
X1041400Y676700D01*
X1037592D01*
X1040131D02*
X1042670Y674161D01*
X1045209D02*
X1047748D01*
X1046479D01*
Y681779D01*
X1045209Y680509D01*
X863952Y689611D02*
Y697229D01*
X867760D01*
X869030Y695959D01*
Y693420D01*
X867760Y692150D01*
X863952D01*
X871569Y689611D02*
X874108D01*
X872839D01*
Y697229D01*
X871569Y695959D01*
X1125220Y660399D02*
X1122681D01*
X1123950D01*
Y654051D01*
X1122681Y652781D01*
X1121411D01*
X1120142Y654051D01*
X1127759Y652781D02*
X1130298D01*
X1129029D01*
Y660399D01*
X1127759Y659129D01*
X1018540Y413529D02*
X1017271Y414799D01*
X1014732D01*
X1013462Y413529D01*
Y408451D01*
X1014732Y407181D01*
X1017271D01*
X1018540Y408451D01*
X1021080Y414799D02*
X1026158D01*
Y413529D01*
X1021080Y408451D01*
Y407181D01*
X1041400Y416559D02*
X1040131Y417829D01*
X1037592D01*
X1036322Y416559D01*
Y411481D01*
X1037592Y410211D01*
X1040131D01*
X1041400Y411481D01*
X1049018Y417829D02*
X1046479Y416559D01*
X1043940Y414020D01*
Y411481D01*
X1045209Y410211D01*
X1047748D01*
X1049018Y411481D01*
Y412750D01*
X1047748Y414020D01*
X1043940D01*
X854480Y547219D02*
X853211Y548489D01*
X850672D01*
X849402Y547219D01*
Y542141D01*
X850672Y540871D01*
X853211D01*
X854480Y542141D01*
X860828Y540871D02*
Y548489D01*
X857020Y544680D01*
X862098D01*
X854480Y626269D02*
X853211Y627539D01*
X850672D01*
X849402Y626269D01*
Y621191D01*
X850672Y619921D01*
X853211D01*
X854480Y621191D01*
X857020Y626269D02*
X858289Y627539D01*
X860828D01*
X862098Y626269D01*
Y625000D01*
X860828Y623730D01*
X859559D01*
X860828D01*
X862098Y622461D01*
Y621191D01*
X860828Y619921D01*
X858289D01*
X857020Y621191D01*
X864870Y676519D02*
X863600Y677789D01*
X861061D01*
X859792Y676519D01*
Y671441D01*
X861061Y670171D01*
X863600D01*
X864870Y671441D01*
X867409Y670171D02*
X869948D01*
X868679D01*
Y677789D01*
X867409Y676519D01*
M02*
