G04*
G04 #@! TF.GenerationSoftware,Altium Limited,Altium Designer,24.7.2 (38)*
G04*
G04 Layer_Color=2752767*
%FSLAX44Y44*%
%MOMM*%
G71*
G04*
G04 #@! TF.SameCoordinates,1ABB164B-B226-434E-8602-407845119EEE*
G04*
G04*
G04 #@! TF.FilePolarity,Positive*
G04*
G01*
G75*
%ADD13C,0.1270*%
%ADD44C,0.1693*%
D13*
X1120140Y617220D02*
Y627380D01*
X1130300D01*
Y617220D01*
X1120140D01*
Y591820D02*
Y601980D01*
X1130300D01*
Y591820D01*
X1120140D01*
Y566420D02*
Y576580D01*
X1130300D01*
Y566420D01*
X1120140D01*
Y541020D02*
Y551180D01*
X1130300D01*
Y541020D01*
X1120140D01*
Y515620D02*
Y525780D01*
X1130300D01*
Y515620D01*
X1120140D01*
Y490220D02*
Y500380D01*
X1130300D01*
Y490220D01*
X1120140D01*
Y464820D02*
Y474980D01*
X1130300D01*
Y464820D01*
X1120140D01*
Y439420D02*
Y449580D01*
X1130300D01*
Y439420D01*
X1120140D01*
Y414020D02*
Y424180D01*
X1130300D01*
Y414020D01*
X1120140D01*
Y388620D02*
Y398780D01*
X1130300D01*
Y388620D01*
X1120140D01*
X1074420Y688340D02*
X1069340Y698500D01*
X1079500D01*
X1074420Y688340D01*
X1023620D02*
X1018540Y698500D01*
X1028700D01*
X1023620Y688340D01*
X1049020D02*
X1043940Y698500D01*
X1054100D01*
X1049020Y688340D01*
X1099820D02*
X1094740Y698500D01*
X1104900D01*
X1099820Y688340D01*
X1125220D02*
X1120140Y698500D01*
X1130300D01*
X1125220Y688340D01*
X938530D02*
X933450Y698500D01*
X943610D01*
X938530Y688340D01*
X887730D02*
X882650Y698500D01*
X892810D01*
X887730Y688340D01*
X913130D02*
X908050Y698500D01*
X918210D01*
X913130Y688340D01*
X963930D02*
X958850Y698500D01*
X969010D01*
X963930Y688340D01*
X989330D02*
X984250Y698500D01*
X994410D01*
X989330Y688340D01*
X992505Y560705D02*
X995045Y563245D01*
X997585D01*
X995045Y565785D01*
X997585Y568325D01*
X995045D01*
X992505Y570865D01*
X989965Y568325D01*
X987425D01*
X989965Y565785D01*
X987425Y563245D01*
X989965D01*
X992505Y560705D01*
X988060Y539750D02*
X990600Y542290D01*
X993140D01*
X990600Y544830D01*
X993140Y547370D01*
X990600D01*
X988060Y549910D01*
X985520Y547370D01*
X982980D01*
X985520Y544830D01*
X982980Y542290D01*
X985520D01*
X988060Y539750D01*
X1098550Y607060D02*
X1101090Y609600D01*
X1103630D01*
X1101090Y612140D01*
X1103630Y614680D01*
X1101090D01*
X1098550Y617220D01*
X1096010Y614680D01*
X1093470D01*
X1096010Y612140D01*
X1093470Y609600D01*
X1096010D01*
X1098550Y607060D01*
X1062943Y589327D02*
X1065483Y591867D01*
X1068023D01*
X1065483Y594407D01*
X1068023Y596947D01*
X1065483D01*
X1062943Y599487D01*
X1060403Y596947D01*
X1057863D01*
X1060403Y594407D01*
X1057863Y591867D01*
X1060403D01*
X1062943Y589327D01*
X1005840Y525780D02*
X1008380Y528320D01*
X1010920D01*
X1008380Y530860D01*
X1010920Y533400D01*
X1008380D01*
X1005840Y535940D01*
X1003300Y533400D01*
X1000760D01*
X1003300Y530860D01*
X1000760Y528320D01*
X1003300D01*
X1005840Y525780D01*
X1035050Y598170D02*
X1037590Y600710D01*
X1040130D01*
X1037590Y603250D01*
X1040130Y605790D01*
X1037590D01*
X1035050Y608330D01*
X1032510Y605790D01*
X1029970D01*
X1032510Y603250D01*
X1029970Y600710D01*
X1032510D01*
X1035050Y598170D01*
X1024890Y588010D02*
X1027430Y590550D01*
X1029970D01*
X1027430Y593090D01*
X1029970Y595630D01*
X1027430D01*
X1024890Y598170D01*
X1022350Y595630D01*
X1019810D01*
X1022350Y593090D01*
X1019810Y590550D01*
X1022350D01*
X1024890Y588010D01*
X1007110Y599440D02*
X1009650Y601980D01*
X1012190D01*
X1009650Y604520D01*
X1012190Y607060D01*
X1009650D01*
X1007110Y609600D01*
X1004570Y607060D01*
X1002030D01*
X1004570Y604520D01*
X1002030Y601980D01*
X1004570D01*
X1007110Y599440D01*
X1046480Y588010D02*
X1049020Y590550D01*
X1051560D01*
X1049020Y593090D01*
X1051560Y595630D01*
X1049020D01*
X1046480Y598170D01*
X1043940Y595630D01*
X1041400D01*
X1043940Y593090D01*
X1041400Y590550D01*
X1043940D01*
X1046480Y588010D01*
X1019810Y565150D02*
X1022350Y567690D01*
X1024890D01*
X1022350Y570230D01*
X1024890Y572770D01*
X1022350D01*
X1019810Y575310D01*
X1017270Y572770D01*
X1014730D01*
X1017270Y570230D01*
X1014730Y567690D01*
X1017270D01*
X1019810Y565150D01*
X1065530Y660400D02*
X1068070Y662940D01*
X1070610D01*
X1068070Y665480D01*
X1070610Y668020D01*
X1068070D01*
X1065530Y670560D01*
X1062990Y668020D01*
X1060450D01*
X1062990Y665480D01*
X1060450Y662940D01*
X1062990D01*
X1065530Y660400D01*
X1023620Y645160D02*
X1026160Y647700D01*
X1028700D01*
X1026160Y650240D01*
X1028700Y652780D01*
X1026160D01*
X1023620Y655320D01*
X1021080Y652780D01*
X1018540D01*
X1021080Y650240D01*
X1018540Y647700D01*
X1021080D01*
X1023620Y645160D01*
X934720Y642620D02*
X937260Y645160D01*
X939800D01*
X937260Y647700D01*
X939800Y650240D01*
X937260D01*
X934720Y652780D01*
X932180Y650240D01*
X929640D01*
X932180Y647700D01*
X929640Y645160D01*
X932180D01*
X934720Y642620D01*
X918210Y635000D02*
X920750Y637540D01*
X923290D01*
X920750Y640080D01*
X923290Y642620D01*
X920750D01*
X918210Y645160D01*
X915670Y642620D01*
X913130D01*
X915670Y640080D01*
X913130Y637540D01*
X915670D01*
X918210Y635000D01*
X854710Y567690D02*
X857250Y570230D01*
X859790D01*
X857250Y572770D01*
X859790Y575310D01*
X857250D01*
X854710Y577850D01*
X852170Y575310D01*
X849630D01*
X852170Y572770D01*
X849630Y570230D01*
X852170D01*
X854710Y567690D01*
X986790Y581660D02*
X989330Y584200D01*
X991870D01*
X989330Y586740D01*
X991870Y589280D01*
X989330D01*
X986790Y591820D01*
X984250Y589280D01*
X981710D01*
X984250Y586740D01*
X981710Y584200D01*
X984250D01*
X986790Y581660D01*
X857250Y636270D02*
X859790Y638810D01*
X862330D01*
X859790Y641350D01*
X862330Y643890D01*
X859790D01*
X857250Y646430D01*
X854710Y643890D01*
X852170D01*
X854710Y641350D01*
X852170Y638810D01*
X854710D01*
X857250Y636270D01*
X942340Y459740D02*
X944880Y462280D01*
X947420D01*
X944880Y464820D01*
X947420Y467360D01*
X944880D01*
X942340Y469900D01*
X939800Y467360D01*
X937260D01*
X939800Y464820D01*
X937260Y462280D01*
X939800D01*
X942340Y459740D01*
D44*
X1097280Y394970D02*
G03*
X1097280Y394970I-5080J0D01*
G01*
X1061720D02*
G03*
X1061720Y394970I-5080J0D01*
G01*
M02*
