G04*
G04 #@! TF.GenerationSoftware,Altium Limited,Altium Designer,24.7.2 (38)*
G04*
G04 Layer_Color=128*
%FSLAX44Y44*%
%MOMM*%
G71*
G04*
G04 #@! TF.SameCoordinates,1ABB164B-B226-434E-8602-407845119EEE*
G04*
G04*
G04 #@! TF.FilePolarity,Positive*
G04*
G01*
G75*
%ADD13C,0.1270*%
D13*
X1087100Y394970D02*
X1097300D01*
X1092200Y389870D02*
Y400070D01*
X1051540Y394970D02*
X1061740D01*
X1056640Y389870D02*
Y400070D01*
X1120140Y622300D02*
X1130300D01*
X1125220Y617220D02*
Y627380D01*
X1120140Y596900D02*
X1130300D01*
X1125220Y591820D02*
Y601980D01*
X1120140Y571500D02*
X1130300D01*
X1125220Y566420D02*
Y576580D01*
X1120140Y546100D02*
X1130300D01*
X1125220Y541020D02*
Y551180D01*
X1120140Y520700D02*
X1130300D01*
X1125220Y515620D02*
Y525780D01*
X1120140Y495300D02*
X1130300D01*
X1125220Y490220D02*
Y500380D01*
X1120140Y469900D02*
X1130300D01*
X1125220Y464820D02*
Y474980D01*
X1120140Y444500D02*
X1130300D01*
X1125220Y439420D02*
Y449580D01*
X1120140Y419100D02*
X1130300D01*
X1125220Y414020D02*
Y424180D01*
X1120140Y393700D02*
X1130300D01*
X1125220Y388620D02*
Y398780D01*
X1068920Y693420D02*
X1079920D01*
X1074420Y687920D02*
Y698920D01*
X1018120Y693420D02*
X1029120D01*
X1023620Y687920D02*
Y698920D01*
X1043520Y693420D02*
X1054520D01*
X1049020Y687920D02*
Y698920D01*
X1094320Y693420D02*
X1105320D01*
X1099820Y687920D02*
Y698920D01*
X1119720Y693420D02*
X1130720D01*
X1125220Y687920D02*
Y698920D01*
X933030Y693420D02*
X944030D01*
X938530Y687920D02*
Y698920D01*
X882230Y693420D02*
X893230D01*
X887730Y687920D02*
Y698920D01*
X907630Y693420D02*
X918630D01*
X913130Y687920D02*
Y698920D01*
X958430Y693420D02*
X969430D01*
X963930Y687920D02*
Y698920D01*
X983830Y693420D02*
X994830D01*
X989330Y687920D02*
Y698920D01*
X988949Y565785D02*
X996061D01*
X992505Y562229D02*
Y569341D01*
X984504Y544830D02*
X991616D01*
X988060Y541274D02*
Y548386D01*
X1094994Y612140D02*
X1102106D01*
X1098550Y608584D02*
Y615696D01*
X1059387Y594407D02*
X1066499D01*
X1062943Y590851D02*
Y597963D01*
X1002284Y530860D02*
X1009396D01*
X1005840Y527304D02*
Y534416D01*
X1031494Y603250D02*
X1038606D01*
X1035050Y599694D02*
Y606806D01*
X1021334Y593090D02*
X1028446D01*
X1024890Y589534D02*
Y596646D01*
X1003554Y604520D02*
X1010666D01*
X1007110Y600964D02*
Y608076D01*
X1042924Y593090D02*
X1050036D01*
X1046480Y589534D02*
Y596646D01*
X1016254Y570230D02*
X1023366D01*
X1019810Y566674D02*
Y573786D01*
X1061974Y665480D02*
X1069086D01*
X1065530Y661924D02*
Y669036D01*
X1020064Y650240D02*
X1027176D01*
X1023620Y646684D02*
Y653796D01*
X931164Y647700D02*
X938276D01*
X934720Y644144D02*
Y651256D01*
X914654Y640080D02*
X921766D01*
X918210Y636524D02*
Y643636D01*
X851154Y572770D02*
X858266D01*
X854710Y569214D02*
Y576326D01*
X983234Y586740D02*
X990346D01*
X986790Y583184D02*
Y590296D01*
X853694Y641350D02*
X860806D01*
X857250Y637794D02*
Y644906D01*
X938784Y464820D02*
X945896D01*
X942340Y461264D02*
Y468376D01*
M02*
