G04*
G04 #@! TF.GenerationSoftware,Altium Limited,Altium Designer,24.7.2 (38)*
G04*
G04 Layer_Color=8421504*
%FSLAX44Y44*%
%MOMM*%
G71*
G04*
G04 #@! TF.SameCoordinates,1ABB164B-B226-434E-8602-407845119EEE*
G04*
G04*
G04 #@! TF.FilePolarity,Positive*
G04*
G01*
G75*
%ADD14R,0.3000X1.2000*%
%ADD15R,1.2000X0.3000*%
%ADD16R,0.9500X0.4500*%
%ADD17R,1.0500X0.9500*%
%ADD18R,7.2000X10.5000*%
%ADD19R,2.8500X1.0500*%
%ADD20R,0.9000X0.8000*%
%ADD21R,1.2000X1.0000*%
%ADD22R,2.0000X5.5000*%
%ADD23R,1.0000X1.2000*%
%ADD24R,0.9121X0.9581*%
%ADD25R,0.9581X0.9121*%
%ADD26R,0.8000X0.9000*%
D14*
X986120Y623920D02*
D03*
X991120D02*
D03*
X996120D02*
D03*
X1001120D02*
D03*
X1006120D02*
D03*
X1011120D02*
D03*
X1016120D02*
D03*
X1021120D02*
D03*
X1026120D02*
D03*
X1031120D02*
D03*
X1036120D02*
D03*
X1041120D02*
D03*
X1046120D02*
D03*
X1051120D02*
D03*
X1056120D02*
D03*
X1061120D02*
D03*
Y508920D02*
D03*
X1056120D02*
D03*
X1051120D02*
D03*
X1046120D02*
D03*
X1041120D02*
D03*
X1036120D02*
D03*
X1031120D02*
D03*
X1026120D02*
D03*
X1021120D02*
D03*
X1016120D02*
D03*
X1011120D02*
D03*
X1006120D02*
D03*
X1001120D02*
D03*
X996120D02*
D03*
X991120D02*
D03*
X986120D02*
D03*
D15*
X1081120Y603920D02*
D03*
Y598920D02*
D03*
Y593920D02*
D03*
Y588920D02*
D03*
Y583920D02*
D03*
Y578920D02*
D03*
Y573920D02*
D03*
Y568920D02*
D03*
Y563920D02*
D03*
Y558920D02*
D03*
Y553920D02*
D03*
Y548920D02*
D03*
Y543920D02*
D03*
Y538920D02*
D03*
Y533920D02*
D03*
Y528920D02*
D03*
X966120D02*
D03*
Y533920D02*
D03*
Y538920D02*
D03*
Y543920D02*
D03*
Y548920D02*
D03*
Y553920D02*
D03*
Y558920D02*
D03*
Y563920D02*
D03*
Y568920D02*
D03*
Y573920D02*
D03*
Y578920D02*
D03*
Y583920D02*
D03*
Y588920D02*
D03*
Y593920D02*
D03*
Y598920D02*
D03*
Y603920D02*
D03*
D16*
X1060450Y437010D02*
D03*
Y421510D02*
D03*
X1042670Y437010D02*
D03*
Y421510D02*
D03*
D17*
X1019810Y420740D02*
D03*
Y435240D02*
D03*
D18*
X887100Y430530D02*
D03*
D19*
X989100Y455930D02*
D03*
Y430530D02*
D03*
Y405130D02*
D03*
D20*
X855750Y538680D02*
D03*
Y523680D02*
D03*
Y602730D02*
D03*
Y617730D02*
D03*
D21*
X937260Y501810D02*
D03*
Y521810D02*
D03*
Y564990D02*
D03*
Y544990D02*
D03*
X943610Y632300D02*
D03*
Y612300D02*
D03*
X975360Y649130D02*
D03*
Y669130D02*
D03*
D22*
X896620Y617730D02*
D03*
Y522730D02*
D03*
D23*
X1046640Y647700D02*
D03*
X1066640D02*
D03*
X1050130Y665480D02*
D03*
X1030130D02*
D03*
D24*
X1004570Y667670D02*
D03*
Y653130D02*
D03*
X953770Y668020D02*
D03*
Y653480D02*
D03*
D25*
X918560Y664210D02*
D03*
X933100D02*
D03*
D26*
X857370Y665480D02*
D03*
X872370D02*
D03*
M02*
