G04*
G04 #@! TF.GenerationSoftware,Altium Limited,Altium Designer,24.7.2 (38)*
G04*
G04 Layer_Color=16711935*
%FSLAX44Y44*%
%MOMM*%
G71*
G04*
G04 #@! TF.SameCoordinates,1ABB164B-B226-434E-8602-407845119EEE*
G04*
G04*
G04 #@! TF.FilePolarity,Negative*
G04*
G01*
G75*
%ADD34C,1.5700*%
%ADD35R,1.5660X1.5660*%
%ADD36C,1.5660*%
%ADD37C,1.8032*%
G04:AMPARAMS|DCode=38|XSize=1.8032mm|YSize=1.8032mm|CornerRadius=0.5016mm|HoleSize=0mm|Usage=FLASHONLY|Rotation=0.000|XOffset=0mm|YOffset=0mm|HoleType=Round|Shape=RoundedRectangle|*
%AMROUNDEDRECTD38*
21,1,1.8032,0.8000,0,0,0.0*
21,1,0.8000,1.8032,0,0,0.0*
1,1,1.0032,0.4000,-0.4000*
1,1,1.0032,-0.4000,-0.4000*
1,1,1.0032,-0.4000,0.4000*
1,1,1.0032,0.4000,0.4000*
%
%ADD38ROUNDEDRECTD38*%
%ADD39C,1.4732*%
D34*
X1092200Y394970D02*
D03*
X1056640D02*
D03*
D35*
X1125220Y622300D02*
D03*
D36*
Y596900D02*
D03*
Y571500D02*
D03*
Y546100D02*
D03*
Y520700D02*
D03*
Y495300D02*
D03*
Y469900D02*
D03*
Y444500D02*
D03*
Y419100D02*
D03*
Y393700D02*
D03*
D37*
X1074420Y693420D02*
D03*
X1049020D02*
D03*
X1099820D02*
D03*
X1125220D02*
D03*
X938530D02*
D03*
X913130D02*
D03*
X963930D02*
D03*
X989330D02*
D03*
D38*
X1023620D02*
D03*
X887730D02*
D03*
D39*
X992505Y565785D02*
D03*
X988060Y544830D02*
D03*
X1098550Y612140D02*
D03*
X1062943Y594407D02*
D03*
X1005840Y530860D02*
D03*
X1035050Y603250D02*
D03*
X1024890Y593090D02*
D03*
X1007110Y604520D02*
D03*
X1046480Y593090D02*
D03*
X1019810Y570230D02*
D03*
X1065530Y665480D02*
D03*
X1023620Y650240D02*
D03*
X934720Y647700D02*
D03*
X918210Y640080D02*
D03*
X854710Y572770D02*
D03*
X986790Y586740D02*
D03*
X857250Y641350D02*
D03*
X942340Y464820D02*
D03*
M02*
